<svg width="20" height="21" viewBox="0 0 20 21" fill="none" xmlns="http://www.w3.org/2000/svg">
<g clip-path="url(#clip0_2_102633)">
<path d="M15.0991 12.3906C13.709 12.3906 12.5781 13.5215 12.5781 14.9116C12.5781 16.3018 13.709 17.4327 15.0991 17.4327C16.4895 17.4327 17.6202 16.3018 17.6202 14.9116C17.6202 13.5215 16.4893 12.3906 15.0991 12.3906ZM15.0991 16.1721C14.404 16.1721 13.8386 15.6068 13.8386 14.9116C13.8386 14.2165 14.404 13.6511 15.0991 13.6511C15.7943 13.6511 16.3596 14.2165 16.3596 14.9116C16.3596 15.6068 15.7943 16.1721 15.0991 16.1721Z" fill="white"/>
<path d="M6.48195 12.3906C5.09184 12.3906 3.96094 13.5215 3.96094 14.9116C3.96094 16.3018 5.09184 17.4327 6.48195 17.4327C7.87207 17.4327 9.00297 16.3018 9.00297 14.9116C9.00297 13.5215 7.87207 12.3906 6.48195 12.3906ZM6.48195 16.1721C5.7868 16.1721 5.22145 15.6068 5.22145 14.9116C5.22145 14.2165 5.7868 13.6511 6.48195 13.6511C7.17691 13.6511 7.74246 14.2165 7.74246 14.9116C7.74246 15.6068 7.17711 16.1721 6.48195 16.1721Z" fill="white"/>
<path d="M16.8045 5.1752C16.6973 4.96238 16.4795 4.82812 16.2412 4.82812H12.9219V6.08863H15.8525L17.5687 9.50207L18.6952 8.93566L16.8045 5.1752Z" fill="white"/>
<path d="M13.2142 14.3047H8.44531V15.5652H13.2142V14.3047Z" fill="white"/>
<path d="M4.60414 14.3047H2.4193C2.07117 14.3047 1.78906 14.5868 1.78906 14.9349C1.78906 15.283 2.07121 15.5652 2.4193 15.5652H4.60418C4.9523 15.5652 5.23441 15.283 5.23441 14.9349C5.23441 14.5868 4.95227 14.3047 4.60414 14.3047Z" fill="white"/>
<path d="M19.871 10.4527L18.6313 8.85602C18.5122 8.70223 18.3284 8.6123 18.1336 8.6123H13.5538V4.20055C13.5538 3.85242 13.2716 3.57031 12.9235 3.57031H2.4193C2.07117 3.57031 1.78906 3.85246 1.78906 4.20055C1.78906 4.54863 2.07121 4.83078 2.4193 4.83078H12.2932V9.24254C12.2932 9.59066 12.5754 9.87277 12.9235 9.87277H17.825L18.7428 11.0551V14.3055H16.9991C16.651 14.3055 16.3689 14.5877 16.3689 14.9358C16.3689 15.2839 16.651 15.566 16.9991 15.566H19.373C19.7212 15.566 20.0033 15.2839 20.0033 14.9358V10.8392C20.0033 10.6993 19.9567 10.5632 19.871 10.4527Z" fill="white"/>
<path d="M4.56848 11.1094H1.6693C1.32117 11.1094 1.03906 11.3915 1.03906 11.7396C1.03906 12.0877 1.32121 12.3698 1.6693 12.3698H4.56844C4.91656 12.3698 5.19867 12.0877 5.19867 11.7396C5.19871 11.3915 4.91656 11.1094 4.56848 11.1094Z" fill="white"/>
<path d="M6.0084 8.63281H0.630234C0.282148 8.63281 0 8.91496 0 9.26309C0 9.61121 0.282148 9.89332 0.630234 9.89332H6.0084C6.35652 9.89332 6.63863 9.61117 6.63863 9.26309C6.63863 8.915 6.35652 8.63281 6.0084 8.63281Z" fill="white"/>
<path d="M7.04746 6.14844H1.6693C1.32117 6.14844 1.03906 6.43059 1.03906 6.77867C1.03906 7.1268 1.32121 7.40891 1.6693 7.40891H7.04746C7.39559 7.40891 7.6777 7.12676 7.6777 6.77867C7.67773 6.43059 7.39559 6.14844 7.04746 6.14844Z" fill="white"/>
</g>
<defs>
<clipPath id="clip0_2_102633">
<rect width="20" height="20" fill="white" transform="translate(0 0.5)"/>
</clipPath>
</defs>
</svg>
