<svg width="24" height="24" viewBox="0 0 24 24" fill="none" xmlns="http://www.w3.org/2000/svg">
<g clip-path="url(#clip0_2_103292)">
<path d="M22.4029 12.3109C22.3064 12.1134 22.3064 11.8868 22.4029 11.6892L23.2981 9.85808C23.7964 8.8385 23.4016 7.62328 22.3991 7.09139L20.5986 6.13608C20.4044 6.03305 20.2712 5.84968 20.2332 5.63316L19.8811 3.62557C19.685 2.50779 18.651 1.75667 17.5276 1.91562L15.5095 2.20109C15.2917 2.23184 15.0763 2.16181 14.9183 2.00895L13.4534 0.591834C12.6377 -0.197255 11.3599 -0.197302 10.5443 0.591834L9.07937 2.00909C8.92131 2.162 8.70592 2.23189 8.48814 2.20123L6.47004 1.91576C5.34622 1.75672 4.31263 2.50793 4.11656 3.62571L3.76443 5.63321C3.72642 5.84977 3.59325 6.0331 3.39905 6.13618L1.59859 7.09148C0.596125 7.62332 0.201252 8.83865 0.699624 9.85822L1.5947 11.6893C1.69126 11.8869 1.69126 12.1135 1.5947 12.311L0.699577 14.1421C0.201205 15.1617 0.596078 16.3769 1.59854 16.9088L3.399 17.8641C3.59325 17.9672 3.72642 18.1505 3.76443 18.3671L4.11656 20.3747C4.29506 21.3922 5.16758 22.1058 6.17037 22.1057C6.26914 22.1057 6.36936 22.0988 6.47009 22.0846L8.48819 21.7991C8.70583 21.7682 8.92136 21.8384 9.07942 21.9912L10.5443 23.4083C10.9522 23.8029 11.4754 24.0002 11.9988 24.0001C12.5221 24.0001 13.0456 23.8028 13.4533 23.4083L14.9183 21.9912C15.0763 21.8384 15.2918 21.7685 15.5095 21.7991L17.5276 22.0846C18.6516 22.2436 19.685 21.4924 19.8811 20.3746L20.2333 18.3671C20.2713 18.1505 20.4044 17.9672 20.5986 17.8641L22.3991 16.9088C23.4016 16.377 23.7964 15.1617 23.2981 14.1421L22.4029 12.3109ZM21.7503 15.686L19.9499 16.6413C19.3758 16.946 18.9821 17.4877 18.8699 18.1279L18.5177 20.1354C18.4514 20.5136 18.1018 20.7676 17.7215 20.7139L15.7034 20.4285C15.0598 20.3373 14.4229 20.5444 13.9558 20.9963L12.4909 22.4133C12.215 22.6802 11.7827 22.6802 11.5067 22.4133L10.0418 20.9962C9.64702 20.6143 9.13093 20.4074 8.59216 20.4074C8.49344 20.4074 8.39392 20.4143 8.29427 20.4284L6.27617 20.7139C5.8962 20.7676 5.54628 20.5135 5.47991 20.1354L5.12774 18.1278C5.01543 17.4876 4.62177 16.9458 4.0477 16.6413L2.24724 15.686C1.90805 15.506 1.77446 15.0949 1.94307 14.7499L2.83819 12.9188C3.12356 12.3349 3.12356 11.6652 2.83819 11.0814L1.94307 9.25021C1.77446 8.90526 1.90805 8.49412 2.24724 8.31416L4.0477 7.35886C4.62173 7.05422 5.01543 6.51244 5.12769 5.87232L5.47981 3.86477C5.54619 3.48658 5.89578 3.23252 6.27608 3.28624L8.29417 3.57171C8.93753 3.66279 9.5746 3.45574 10.0417 3.00391L11.5066 1.5868C11.7825 1.31989 12.2149 1.31989 12.4909 1.5868L13.9557 3.00391C14.4229 3.45579 15.0598 3.66279 15.7033 3.57171L17.7214 3.28624C18.1014 3.23248 18.4513 3.48658 18.5176 3.86477L18.8698 5.87237C18.9821 6.51249 19.3757 7.05431 19.9498 7.35886L21.7503 8.31416C22.0895 8.49412 22.223 8.90526 22.0544 9.25021L21.1593 11.0813C20.8739 11.6651 20.8739 12.3349 21.1593 12.9187L22.0544 14.7498C22.2231 15.0949 22.0895 15.5061 21.7503 15.686Z" fill="#888888"/>
<path d="M17.0551 6.94294C16.7849 6.67266 16.3466 6.67266 16.0764 6.94294L6.94099 16.0784C6.67071 16.3486 6.67071 16.7869 6.94099 17.0571C7.07613 17.1923 7.25327 17.2599 7.43036 17.2599C7.60746 17.2599 7.78464 17.1923 7.91974 17.0571L17.0551 7.92178C17.3255 7.65146 17.3255 7.21327 17.0551 6.94294Z" fill="#888888"/>
<path d="M9.23306 5.77148C7.83376 5.77148 6.69531 6.90993 6.69531 8.30924C6.69531 9.70854 7.83376 10.847 9.23306 10.847C10.6324 10.847 11.7708 9.70854 11.7708 8.30924C11.7708 6.90993 10.6324 5.77148 9.23306 5.77148ZM9.23306 9.46273C8.59702 9.46273 8.07957 8.94528 8.07957 8.30919C8.07957 7.67315 8.59702 7.15569 9.23306 7.15569C9.86911 7.15569 10.3866 7.67315 10.3866 8.30919C10.3866 8.94528 9.86911 9.46273 9.23306 9.46273Z" fill="#888888"/>
<path d="M14.7682 13.1543C13.3689 13.1543 12.2305 14.2927 12.2305 15.692C12.2305 17.0914 13.3689 18.2298 14.7682 18.2298C16.1675 18.2298 17.306 17.0914 17.306 15.692C17.306 14.2927 16.1675 13.1543 14.7682 13.1543ZM14.7682 16.8455C14.1322 16.8455 13.6147 16.3281 13.6147 15.692C13.6147 15.056 14.1321 14.5386 14.7682 14.5386C15.4043 14.5386 15.9217 15.056 15.9217 15.692C15.9217 16.3281 15.4043 16.8455 14.7682 16.8455Z" fill="#888888"/>
</g>
<defs>
<clipPath id="clip0_2_103292">
<rect width="24" height="24" fill="white"/>
</clipPath>
</defs>
</svg>
