<svg width="40" height="40" viewBox="0 0 40 40" fill="none" xmlns="http://www.w3.org/2000/svg">
<mask id="mask0_545_11716" style="mask-type:luminance" maskUnits="userSpaceOnUse" x="0" y="0" width="40" height="40">
<path d="M0 7.62939e-06H40V40H0V7.62939e-06Z" fill="white"/>
</mask>
<g mask="url(#mask0_545_11716)">
<path d="M33.328 32.394C19.1836 31.3429 11.3117 27.2732 8.33523 24.081C7.94516 23.6625 7.63945 23.2586 7.41391 22.879C6.36203 21.1044 6.36203 18.8944 7.41391 17.1207C7.63859 16.7412 7.94516 16.3372 8.33523 15.9187C11.3109 12.7273 19.1788 8.65998 33.3134 7.60647C30.6062 8.01764 28.4634 13.4094 28.4634 19.9998C28.4634 26.6016 30.6135 32.0007 33.328 32.394Z" stroke="#888888" stroke-width="1.79688" stroke-miterlimit="10" stroke-linecap="round" stroke-linejoin="round"/>
<path d="M38.8298 20.0002C38.8298 26.8584 36.5095 32.418 33.6473 32.418C33.5411 32.4107 33.4348 32.4026 33.3295 32.3945C30.6149 32.0011 28.4648 26.602 28.4648 20.0002C28.4648 13.4098 30.6076 8.01805 33.3148 7.60688H33.3165C33.4259 7.58985 33.5363 7.58172 33.6473 7.58172C36.5095 7.58172 38.8298 13.1421 38.8298 20.0002Z" stroke="#888888" stroke-width="1.79688" stroke-miterlimit="10" stroke-linecap="round" stroke-linejoin="round"/>
<path d="M33.6445 16.9648V23.0347" stroke="#888888" stroke-width="1.79688" stroke-miterlimit="10" stroke-linecap="round" stroke-linejoin="round"/>
<path d="M7.41359 22.901C7.63914 23.2805 7.94484 23.6845 8.33492 24.103C5.73156 29.0041 1.17188 30.9805 1.17188 30.9805C1.17188 30.9805 2.39148 25.5056 2.39148 20.0214C2.39148 14.5466 1.17188 9.06235 1.17188 9.06235C1.17188 9.06235 5.73156 11.0397 8.33492 15.9407C7.94484 16.3592 7.63828 16.7631 7.41359 17.1427C6.36172 18.9164 6.36172 21.1265 7.41359 22.901Z" stroke="#888888" stroke-width="1.79688" stroke-miterlimit="10" stroke-linecap="round" stroke-linejoin="round"/>
</g>
</svg>
