<svg width="24" height="24" viewBox="0 0 24 24" fill="none" xmlns="http://www.w3.org/2000/svg">
<g clip-path="url(#clip0_731_946)">
<path d="M0 18.0003C0 18.7076 0.280952 19.3858 0.781049 19.8859C1.28115 20.386 1.95942 20.667 2.66667 20.667H21.3333C22.0406 20.667 22.7189 20.386 23.219 19.8859C23.719 19.3858 24 18.7076 24 18.0003V14.667H0V18.0003Z" fill="#138808"/>
<path d="M24 9.33301V5.99967C24 5.29243 23.719 4.61415 23.219 4.11406C22.7189 3.61396 22.0406 3.33301 21.3333 3.33301H2.66667C1.95942 3.33301 1.28115 3.61396 0.781049 4.11406C0.280952 4.61415 0 5.29243 0 5.99967L0 9.33301H24Z" fill="#FF9933"/>
<path d="M0 9.11133H24V14.8893H0V9.11133Z" fill="#F7F7F7"/>
<path d="M11.9987 14.6663C13.4715 14.6663 14.6654 13.4724 14.6654 11.9997C14.6654 10.5269 13.4715 9.33301 11.9987 9.33301C10.5259 9.33301 9.33203 10.5269 9.33203 11.9997C9.33203 13.4724 10.5259 14.6663 11.9987 14.6663Z" fill="#000080"/>
<path d="M12 14.25C13.2426 14.25 14.25 13.2426 14.25 12C14.25 10.7574 13.2426 9.75 12 9.75C10.7574 9.75 9.75 10.7574 9.75 12C9.75 13.2426 10.7574 14.25 12 14.25Z" fill="#F7F7F7"/>
<path d="M12.0672 11.1662L12.0005 11.5995L11.9339 11.1662L12.0005 9.86621L12.0672 11.1662ZM11.4485 9.93888L11.7205 11.2115L11.8972 11.6129L11.8492 11.1775L11.4485 9.93888ZM10.9339 10.1522L11.5259 11.3109L11.8005 11.6529L11.6419 11.2442L10.9339 10.1522ZM10.4919 10.4909L11.3639 11.4575L11.7179 11.7169L11.4585 11.3629L10.4919 10.4909ZM10.1532 10.9329L11.2452 11.6409L11.6539 11.7995L11.3119 11.5249L10.1532 10.9329ZM9.93985 11.4475L11.1785 11.8482L11.6139 11.8962L11.2125 11.7195L9.93985 11.4475ZM9.86719 11.9995L11.1672 12.0662L11.6005 11.9995L11.1672 11.9329L9.86719 11.9995ZM9.93985 12.5515L11.2125 12.2795L11.6139 12.1029L11.1785 12.1509L9.93985 12.5515ZM10.1532 13.0662L11.3119 12.4742L11.6539 12.1995L11.2452 12.3582L10.1532 13.0662ZM10.4919 13.5082L11.4585 12.6362L11.7179 12.2822L11.3639 12.5415L10.4919 13.5082ZM10.9339 13.8469L11.6419 12.7549L11.8005 12.3462L11.5259 12.6882L10.9339 13.8469ZM11.4485 14.0602L11.8492 12.8215L11.8972 12.3862L11.7205 12.7875L11.4485 14.0602ZM12.0005 14.1329L12.0672 12.8329L12.0005 12.3995L11.9339 12.8329L12.0005 14.1329ZM12.5525 14.0602L12.2805 12.7875L12.1039 12.3862L12.1519 12.8215L12.5525 14.0602ZM13.0672 13.8469L12.4752 12.6882L12.2005 12.3462L12.3592 12.7549L13.0672 13.8469ZM13.5092 13.5082L12.6372 12.5415L12.2832 12.2822L12.5425 12.6362L13.5092 13.5082ZM13.8479 13.0662L12.7559 12.3582L12.3472 12.1995L12.6892 12.4742L13.8479 13.0662ZM14.0612 12.5515L12.8225 12.1509L12.3872 12.1029L12.7885 12.2795L14.0612 12.5515ZM14.1339 11.9995L12.8339 11.9329L12.4005 11.9995L12.8339 12.0662L14.1339 11.9995ZM14.0612 11.4475L12.7885 11.7195L12.3872 11.8962L12.8225 11.8482L14.0612 11.4475ZM13.8479 10.9329L12.6892 11.5249L12.3472 11.7995L12.7559 11.6409L13.8479 10.9329ZM13.5092 10.4909L12.5425 11.3629L12.2832 11.7169L12.6372 11.4575L13.5092 10.4909ZM13.0672 10.1522L12.3592 11.2442L12.2005 11.6529L12.4752 11.3109L13.0672 10.1522ZM12.5525 9.93888L12.1519 11.1775L12.1039 11.6129L12.2805 11.2115L12.5525 9.93888Z" fill="#6666B3"/>
<path d="M11.7076 9.90632C11.7812 9.90632 11.8409 9.84662 11.8409 9.77298C11.8409 9.69934 11.7812 9.63965 11.7076 9.63965C11.6339 9.63965 11.5742 9.69934 11.5742 9.77298C11.5742 9.84662 11.6339 9.90632 11.7076 9.90632Z" fill="#000080"/>
<path d="M11.1411 10.0587C11.2148 10.0587 11.2745 9.99896 11.2745 9.92533C11.2745 9.85169 11.2148 9.79199 11.1411 9.79199C11.0675 9.79199 11.0078 9.85169 11.0078 9.92533C11.0078 9.99896 11.0675 10.0587 11.1411 10.0587Z" fill="#000080"/>
<path d="M10.6333 10.3507C10.707 10.3507 10.7667 10.291 10.7667 10.2173C10.7667 10.1437 10.707 10.084 10.6333 10.084C10.5597 10.084 10.5 10.1437 10.5 10.2173C10.5 10.291 10.5597 10.3507 10.6333 10.3507Z" fill="#000080"/>
<path d="M10.2193 10.7657C10.2929 10.7657 10.3526 10.706 10.3526 10.6324C10.3526 10.5587 10.2929 10.499 10.2193 10.499C10.1456 10.499 10.0859 10.5587 10.0859 10.6324C10.0859 10.706 10.1456 10.7657 10.2193 10.7657Z" fill="#000080"/>
<path d="M9.9263 11.2735C9.99994 11.2735 10.0596 11.2138 10.0596 11.1402C10.0596 11.0665 9.99994 11.0068 9.9263 11.0068C9.85266 11.0068 9.79297 11.0665 9.79297 11.1402C9.79297 11.2138 9.85266 11.2735 9.9263 11.2735Z" fill="#000080"/>
<path d="M9.77396 11.8399C9.8476 11.8399 9.90729 11.7802 9.90729 11.7066C9.90729 11.6329 9.8476 11.5732 9.77396 11.5732C9.70032 11.5732 9.64062 11.6329 9.64062 11.7066C9.64062 11.7802 9.70032 11.8399 9.77396 11.8399Z" fill="#000080"/>
<path d="M9.77396 12.4268C9.8476 12.4268 9.90729 12.3671 9.90729 12.2935C9.90729 12.2199 9.8476 12.1602 9.77396 12.1602C9.70032 12.1602 9.64062 12.2199 9.64062 12.2935C9.64062 12.3671 9.70032 12.4268 9.77396 12.4268Z" fill="#000080"/>
<path d="M9.9263 12.9932C9.99994 12.9932 10.0596 12.9335 10.0596 12.8599C10.0596 12.7863 9.99994 12.7266 9.9263 12.7266C9.85266 12.7266 9.79297 12.7863 9.79297 12.8599C9.79297 12.9335 9.85266 12.9932 9.9263 12.9932Z" fill="#000080"/>
<path d="M10.2193 13.502C10.2929 13.502 10.3526 13.4423 10.3526 13.3687C10.3526 13.295 10.2929 13.2354 10.2193 13.2354C10.1456 13.2354 10.0859 13.295 10.0859 13.3687C10.0859 13.4423 10.1456 13.502 10.2193 13.502Z" fill="#000080"/>
<path d="M10.6333 13.9161C10.707 13.9161 10.7667 13.8564 10.7667 13.7827C10.7667 13.7091 10.707 13.6494 10.6333 13.6494C10.5597 13.6494 10.5 13.7091 10.5 13.7827C10.5 13.8564 10.5597 13.9161 10.6333 13.9161Z" fill="#000080"/>
<path d="M11.1411 14.209C11.2148 14.209 11.2745 14.1494 11.2745 14.0757C11.2745 14.0021 11.2148 13.9424 11.1411 13.9424C11.0675 13.9424 11.0078 14.0021 11.0078 14.0757C11.0078 14.1494 11.0675 14.209 11.1411 14.209Z" fill="#000080"/>
<path d="M11.7076 14.3614C11.7812 14.3614 11.8409 14.3017 11.8409 14.2281C11.8409 14.1544 11.7812 14.0947 11.7076 14.0947C11.6339 14.0947 11.5742 14.1544 11.5742 14.2281C11.5742 14.3017 11.6339 14.3614 11.7076 14.3614Z" fill="#000080"/>
<path d="M12.2935 14.3614C12.3671 14.3614 12.4268 14.3017 12.4268 14.2281C12.4268 14.1544 12.3671 14.0947 12.2935 14.0947C12.2199 14.0947 12.1602 14.1544 12.1602 14.2281C12.1602 14.3017 12.2199 14.3614 12.2935 14.3614Z" fill="#000080"/>
<path d="M12.8599 14.209C12.9335 14.209 12.9932 14.1494 12.9932 14.0757C12.9932 14.0021 12.9335 13.9424 12.8599 13.9424C12.7863 13.9424 12.7266 14.0021 12.7266 14.0757C12.7266 14.1494 12.7863 14.209 12.8599 14.209Z" fill="#000080"/>
<path d="M13.3677 13.9161C13.4413 13.9161 13.501 13.8564 13.501 13.7827C13.501 13.7091 13.4413 13.6494 13.3677 13.6494C13.2941 13.6494 13.2344 13.7091 13.2344 13.7827C13.2344 13.8564 13.2941 13.9161 13.3677 13.9161Z" fill="#000080"/>
<path d="M13.7857 13.502C13.8593 13.502 13.919 13.4423 13.919 13.3687C13.919 13.295 13.8593 13.2354 13.7857 13.2354C13.712 13.2354 13.6523 13.295 13.6523 13.3687C13.6523 13.4423 13.712 13.502 13.7857 13.502Z" fill="#000080"/>
<path d="M14.0747 12.9932C14.1484 12.9932 14.2081 12.9335 14.2081 12.8599C14.2081 12.7863 14.1484 12.7266 14.0747 12.7266C14.0011 12.7266 13.9414 12.7863 13.9414 12.8599C13.9414 12.9335 14.0011 12.9932 14.0747 12.9932Z" fill="#000080"/>
<path d="M14.2271 12.4268C14.3007 12.4268 14.3604 12.3671 14.3604 12.2935C14.3604 12.2199 14.3007 12.1602 14.2271 12.1602C14.1534 12.1602 14.0938 12.2199 14.0938 12.2935C14.0938 12.3671 14.1534 12.4268 14.2271 12.4268Z" fill="#000080"/>
<path d="M14.2271 11.8399C14.3007 11.8399 14.3604 11.7802 14.3604 11.7066C14.3604 11.6329 14.3007 11.5732 14.2271 11.5732C14.1534 11.5732 14.0938 11.6329 14.0938 11.7066C14.0938 11.7802 14.1534 11.8399 14.2271 11.8399Z" fill="#000080"/>
<path d="M14.0747 11.2735C14.1484 11.2735 14.2081 11.2138 14.2081 11.1402C14.2081 11.0665 14.1484 11.0068 14.0747 11.0068C14.0011 11.0068 13.9414 11.0665 13.9414 11.1402C13.9414 11.2138 14.0011 11.2735 14.0747 11.2735Z" fill="#000080"/>
<path d="M13.7857 10.7657C13.8593 10.7657 13.919 10.706 13.919 10.6324C13.919 10.5587 13.8593 10.499 13.7857 10.499C13.712 10.499 13.6523 10.5587 13.6523 10.6324C13.6523 10.706 13.712 10.7657 13.7857 10.7657Z" fill="#000080"/>
<path d="M13.3677 10.3507C13.4413 10.3507 13.501 10.291 13.501 10.2173C13.501 10.1437 13.4413 10.084 13.3677 10.084C13.2941 10.084 13.2344 10.1437 13.2344 10.2173C13.2344 10.291 13.2941 10.3507 13.3677 10.3507Z" fill="#000080"/>
<path d="M12.8599 10.0587C12.9335 10.0587 12.9932 9.99896 12.9932 9.92533C12.9932 9.85169 12.9335 9.79199 12.8599 9.79199C12.7863 9.79199 12.7266 9.85169 12.7266 9.92533C12.7266 9.99896 12.7863 10.0587 12.8599 10.0587Z" fill="#000080"/>
<path d="M12.2935 9.90632C12.3671 9.90632 12.4268 9.84662 12.4268 9.77298C12.4268 9.69934 12.3671 9.63965 12.2935 9.63965C12.2199 9.63965 12.1602 9.69934 12.1602 9.77298C12.1602 9.84662 12.2199 9.90632 12.2935 9.90632Z" fill="#000080"/>
<path d="M12.0023 12.6004C12.3337 12.6004 12.6023 12.3318 12.6023 12.0004C12.6023 11.669 12.3337 11.4004 12.0023 11.4004C11.671 11.4004 11.4023 11.669 11.4023 12.0004C11.4023 12.3318 11.671 12.6004 12.0023 12.6004Z" fill="#000080"/>
</g>
<defs>
<clipPath id="clip0_731_946">
<rect width="24" height="24" fill="white"/>
</clipPath>
</defs>
</svg>
