<svg width="40" height="16" viewBox="0 0 40 16" fill="none" xmlns="http://www.w3.org/2000/svg">
<path d="M18.6677 7.78555V12.4127H17.1992V0.986328H21.0921C22.0788 0.986328 22.92 1.31523 23.6084 1.97297C24.312 2.6307 24.6638 3.43375 24.6638 4.38211C24.6638 5.35344 24.312 6.15648 23.6084 6.80656C22.9277 7.45664 22.0864 7.77789 21.0921 7.77789H18.6677V7.78555ZM18.6677 2.39359V6.37828H21.1227C21.704 6.37828 22.1935 6.17945 22.5759 5.78937C22.9659 5.3993 23.1648 4.92516 23.1648 4.38977C23.1648 3.86203 22.9659 3.39547 22.5759 3.00547C22.1934 2.60008 21.7116 2.40125 21.1227 2.40125H18.6677V2.39359Z" fill="#383E41"/>
<path d="M28.5048 4.33594C29.5909 4.33594 30.4475 4.62656 31.0746 5.20781C31.7018 5.78906 32.0153 6.58445 32.0153 7.59406V12.4124H30.6157V11.3264H30.5545C29.9503 12.2212 29.1396 12.6648 28.1301 12.6648C27.2659 12.6648 26.5469 12.4124 25.9656 11.9C25.3844 11.3876 25.0938 10.7527 25.0938 9.98797C25.0938 9.17727 25.3997 8.53484 26.0116 8.06062C26.6234 7.57883 27.4418 7.34172 28.459 7.34172C29.3309 7.34172 30.0498 7.50234 30.6081 7.82351V7.48703C30.6081 6.97461 30.4093 6.54633 30.0039 6.18688C29.5985 5.82742 29.1244 5.65148 28.5813 5.65148C27.763 5.65148 27.1129 5.99563 26.6387 6.69164L25.3461 5.88094C26.0574 4.84836 27.1129 4.33594 28.5048 4.33594ZM26.6081 10.0109C26.6081 10.3933 26.7687 10.7145 27.0976 10.9669C27.4188 11.2193 27.8012 11.3493 28.2372 11.3493C28.8567 11.3493 29.4073 11.1198 29.8892 10.6609C30.3711 10.202 30.6158 9.66664 30.6158 9.04719C30.1569 8.68773 29.5221 8.50414 28.7038 8.50414C28.1072 8.50414 27.6101 8.64945 27.2123 8.93242C26.807 9.2307 26.6081 9.59023 26.6081 10.0109Z" fill="#383E41"/>
<path d="M40.0001 4.58789L35.1052 15.846H33.5909L35.4111 11.9072L32.1836 4.58789H33.782L36.1071 10.2016H36.1377L38.4016 4.58789H40.0001Z" fill="#383E41"/>
<path d="M12.706 5.47461H6.55078V7.99852L10.0957 7.9993C9.95195 8.83906 9.48922 9.55492 8.78023 10.0322V10.0327C8.78047 10.0325 8.78078 10.0323 8.78102 10.0322L8.71719 11.5407L10.8912 11.6689C10.8909 11.6691 10.8905 11.6695 10.8903 11.6697C12.1224 10.5294 12.8284 8.84367 12.8284 6.85211C12.8284 6.37328 12.7855 5.91516 12.706 5.47461Z" fill="#0085F7"/>
<path d="M8.77906 10.033C8.77883 10.0332 8.77852 10.0334 8.77828 10.0335C8.19102 10.4294 7.43484 10.6609 6.55039 10.6609C4.84101 10.6609 3.39094 9.50914 2.87164 7.95656H2.87141C2.87148 7.9568 2.87156 7.95711 2.87164 7.95734L1.05672 7.66992L0.695312 9.64578C1.77383 11.7855 3.99008 13.2537 6.55047 13.2537C8.31977 13.2537 9.80625 12.672 10.8884 11.6705C10.8888 11.6702 10.8891 11.67 10.8893 11.6697L8.77906 10.033Z" fill="#00A94B"/>
<path d="M2.66844 6.70203C2.66844 6.26609 2.74109 5.84469 2.87344 5.44852L2.30672 3.75977H0.696719C0.250859 4.64469 0 5.64352 0 6.70203C0 7.76055 0.251641 8.75937 0.696719 9.6443L0.697031 9.64406L2.87344 7.95555C2.87336 7.95531 2.87328 7.95508 2.8732 7.95477C2.74102 7.55891 2.66844 7.13773 2.66844 6.70203Z" fill="#FFBB00"/>
<path d="M6.55078 0.152344C3.99094 0.152344 1.77375 1.62078 0.695312 3.76078L2.87195 5.44953C3.39125 3.89695 4.84133 2.74516 6.5507 2.74516C7.51664 2.74516 8.38172 3.07789 9.06469 3.72797L10.9347 1.85953C9.79898 0.801641 8.31828 0.152344 6.55078 0.152344Z" fill="#FF4031"/>
</svg>
