<svg width="20" height="20" viewBox="0 0 20 20" fill="none" xmlns="http://www.w3.org/2000/svg">
<mask id="mask0_2_102367" style="mask-type:alpha" maskUnits="userSpaceOnUse" x="0" y="0" width="20" height="20">
<rect width="20" height="20" fill="#D9D9D9"/>
</mask>
<g mask="url(#mask0_2_102367)">
<path d="M16.7917 10.8333H6.66667V9.16667H16.7917L15.5 7.875L16.6667 6.66667L20 10L16.6667 13.3333L15.5 12.125L16.7917 10.8333ZM12.5 7.5V4.16667H4.16667V15.8333H12.5V12.5H14.1667V15.8333C14.1667 16.2917 14.0035 16.684 13.6771 17.0104C13.3507 17.3368 12.9583 17.5 12.5 17.5H4.16667C3.70833 17.5 3.31597 17.3368 2.98958 17.0104C2.66319 16.684 2.5 16.2917 2.5 15.8333V4.16667C2.5 3.70833 2.66319 3.31597 2.98958 2.98958C3.31597 2.66319 3.70833 2.5 4.16667 2.5H12.5C12.9583 2.5 13.3507 2.66319 13.6771 2.98958C14.0035 3.31597 14.1667 3.70833 14.1667 4.16667V7.5H12.5Z" fill="#888888"/>
</g>
</svg>
