<svg width="40" height="40" viewBox="0 0 40 40" fill="none" xmlns="http://www.w3.org/2000/svg">
<mask id="mask0_1242_8646" style="mask-type:luminance" maskUnits="userSpaceOnUse" x="0" y="0" width="40" height="40">
<path d="M0 0H40V40H0V0Z" fill="white"/>
</mask>
<g mask="url(#mask0_1242_8646)">
<path fill-rule="evenodd" clip-rule="evenodd" d="M26.417 13.6113C26.3947 13.6113 26.3723 13.6136 26.3504 13.618C25.217 13.9347 25.4453 15.5314 23.382 15.6679H23.182C23.1529 15.6676 23.1238 15.6703 23.0954 15.6763H23.0937C23.0058 15.6975 22.9278 15.7476 22.8721 15.8187C22.8164 15.8899 22.7864 15.9777 22.787 16.0679V17.8846C22.787 18.1079 22.9637 18.2863 23.182 18.2863H24.257V25.9914C24.257 26.2114 24.4304 26.3879 24.6453 26.3879H26.4088C26.5128 26.3867 26.6119 26.3443 26.6848 26.2699C26.7576 26.1956 26.7978 26.0954 26.797 25.9914V18.2863H27.797C28.0137 18.2863 28.1904 18.1079 28.1904 17.8846V16.0679C28.1908 15.9629 28.1497 15.8619 28.0761 15.7869C28.0024 15.7121 27.9022 15.6693 27.797 15.6679H26.777V13.9763C26.7775 13.9286 26.7685 13.8813 26.7507 13.837C26.7328 13.7928 26.7064 13.7525 26.673 13.7184C26.6395 13.6844 26.5998 13.6573 26.5558 13.6386C26.5119 13.6199 26.4648 13.6118 26.417 13.6113ZM33.4582 15.5613C32.7949 15.5613 32.1883 15.8113 31.7215 16.2196V16.013C31.7158 15.913 31.6722 15.8189 31.5998 15.7497C31.5276 15.6804 31.4318 15.6411 31.3316 15.6396H29.5483C29.4428 15.6414 29.3422 15.6847 29.2685 15.7603C29.1948 15.8359 29.1539 15.9374 29.1549 16.0429V25.9096C29.1539 26.0151 29.1948 26.1167 29.2685 26.1923C29.3422 26.2678 29.4428 26.3112 29.5483 26.313H31.3316C31.5316 26.313 31.6932 26.1613 31.7198 25.9646V18.8813C31.7132 18.7094 31.7741 18.5418 31.8898 18.4146C32.0054 18.2873 32.1665 18.2108 32.3382 18.2013H32.6648C32.8028 18.212 32.9341 18.2643 33.0415 18.3513C33.1191 18.4162 33.181 18.4976 33.2229 18.5897C33.2647 18.6817 33.2852 18.7818 33.2832 18.8829V25.673L33.2899 25.9313C33.2894 26.0369 33.3308 26.1383 33.4047 26.2134C33.4786 26.2887 33.5793 26.3316 33.6848 26.333H35.4683C35.5702 26.3313 35.6676 26.2906 35.7405 26.2193C35.8132 26.148 35.856 26.0515 35.8598 25.9496L35.8582 18.873C35.8582 18.6396 35.9615 18.4296 36.1483 18.3063C36.2459 18.2417 36.3582 18.2028 36.4749 18.193H36.8048C37.1883 18.2263 37.4215 18.5263 37.4215 18.873C37.4299 21.1996 37.4283 23.5396 37.4283 25.913C37.4278 26.0185 37.469 26.1199 37.5431 26.1951C37.617 26.2704 37.7177 26.3133 37.8232 26.3146H39.6065C39.8232 26.3146 39.9998 26.1346 39.9998 25.913V18.3413C39.9998 17.8246 39.9432 17.6046 39.8665 17.3796C39.689 16.8522 39.3508 16.3934 38.8996 16.0678C38.4483 15.7419 37.9065 15.5654 37.3499 15.5629H37.3248C36.9648 15.5632 36.6088 15.6373 36.2785 15.7807C35.9483 15.924 35.6509 16.1336 35.4048 16.3963C34.9198 15.8829 34.2382 15.5629 33.4832 15.5629L33.4582 15.5613ZM0.386682 15.6663C0.335465 15.6666 0.284836 15.6773 0.237685 15.6973C0.190535 15.7173 0.147788 15.7464 0.111882 15.7829C0.0759759 15.8193 0.0476162 15.8626 0.0284219 15.9101C0.00922769 15.9576 -0.000425247 16.0085 1.43673e-05 16.0596V25.933C1.43673e-05 26.153 0.160014 26.3296 0.360014 26.3346H2.17668C2.39335 26.3346 2.57168 26.1563 2.57168 25.9346L2.57835 23.1713H4.28335C5.71168 23.1713 6.70502 22.1629 6.70502 20.7029V18.1396C6.70502 16.6779 5.71168 15.6663 4.28335 15.6663H0.386682ZM15.4402 15.6663C15.3878 15.6666 15.3362 15.6774 15.288 15.6979C15.2398 15.7183 15.1962 15.748 15.1595 15.7853C15.1228 15.8226 15.0938 15.8668 15.0742 15.9153C15.0546 15.9638 15.0447 16.0156 15.0451 16.0679V20.1846C15.0451 21.7513 16.1402 22.8646 17.6768 22.8646H18.8018C18.8018 22.8646 18.8285 22.8646 18.8635 22.8713C18.9662 22.8839 19.0605 22.9339 19.1288 23.0116C19.1969 23.0894 19.2342 23.1896 19.2335 23.293C19.2335 23.5096 19.0735 23.6846 18.8685 23.7113L18.8385 23.7179L18.3335 23.7279H16.2318C16.1268 23.7293 16.0265 23.772 15.9528 23.8469C15.8792 23.9219 15.8381 24.0229 15.8385 24.1279V25.9446C15.8376 26.0501 15.8785 26.1518 15.9522 26.2273C16.0258 26.3028 16.1263 26.3463 16.2318 26.3479H19.1485C20.6818 26.3479 21.7768 25.233 21.7768 23.6679V16.0679C21.7772 15.9629 21.7362 15.8619 21.6625 15.7869C21.5888 15.712 21.4885 15.6693 21.3835 15.6679H19.6002C19.495 15.6693 19.3948 15.712 19.3211 15.7869C19.2475 15.8619 19.2063 15.9629 19.2068 16.0679C19.1985 17.3796 19.2068 18.6096 19.2068 19.8263C19.2055 19.9365 19.1612 20.0416 19.0833 20.1195C19.0055 20.1973 18.9002 20.2417 18.7902 20.2429H18.0418C17.9302 20.2417 17.8238 20.1962 17.7456 20.1165C17.6675 20.0369 17.6242 19.9296 17.6251 19.8179C17.6335 18.5613 17.6168 17.3179 17.6168 16.0679C17.6172 15.9629 17.5762 15.8619 17.5025 15.7869C17.4288 15.712 17.3285 15.6693 17.2235 15.6679L15.4402 15.6663ZM8.76669 15.6763C8.71592 15.6749 8.66538 15.6836 8.618 15.7019C8.57054 15.7201 8.52723 15.7475 8.49039 15.7824C8.45354 15.8175 8.42392 15.8594 8.40331 15.9057C8.38269 15.9522 8.37138 16.0022 8.37008 16.053V17.758C8.37008 17.978 8.55838 18.158 8.79008 18.158H11.1451C11.3317 18.1863 11.4784 18.3246 11.5001 18.5413V18.7747C11.4784 18.9813 11.3334 19.1314 11.1551 19.1479H9.98839C8.43839 19.1479 7.33173 20.198 7.33173 21.673V23.7879C7.33173 25.2547 8.28169 26.298 9.82339 26.298H13.0567C13.6367 26.298 14.1067 25.8479 14.1067 25.298V18.4046C14.1067 16.7314 13.2601 15.6763 11.2401 15.6763H8.76669ZM2.57812 18.2964H3.70812C3.93979 18.2964 4.1248 18.488 4.1248 18.723V20.1164C4.12545 20.1717 4.1152 20.2267 4.09462 20.2782C4.07404 20.3295 4.04353 20.3764 4.00484 20.416C3.96614 20.4556 3.92003 20.4873 3.86912 20.5091C3.81821 20.5309 3.76351 20.5423 3.70812 20.543H3.54146C3.22146 20.5463 2.89812 20.543 2.57812 20.543V18.2964ZM10.3614 21.5913H11.1031C11.3348 21.5913 11.5231 21.7713 11.5231 21.9913V23.5446C11.5225 23.5879 11.5146 23.6306 11.4998 23.6713C11.4701 23.7523 11.4159 23.8221 11.3449 23.8711C11.2738 23.92 11.1894 23.9457 11.1031 23.9446H10.3614C10.2528 23.9468 10.1477 23.9061 10.069 23.8313C9.99031 23.7562 9.94446 23.6533 9.94139 23.5446V21.9896C9.94139 21.7696 10.1298 21.5913 10.3614 21.5913Z" fill="#00B8F8"/>
</g>
<mask id="mask1_1242_8646" style="mask-type:luminance" maskUnits="userSpaceOnUse" x="0" y="0" width="40" height="40">
<path d="M0 0H40V40H0V0Z" fill="white"/>
</mask>
<g mask="url(#mask1_1242_8646)">
<path fill-rule="evenodd" clip-rule="evenodd" d="M0.386682 15.668C0.335465 15.6684 0.284836 15.679 0.237685 15.699C0.190535 15.719 0.147788 15.7481 0.111882 15.7847C0.0759759 15.821 0.0476162 15.8644 0.0284219 15.9118C0.00922769 15.9593 -0.000425247 16.0102 1.43673e-05 16.0614V25.9347C1.43673e-05 26.1547 0.160014 26.3313 0.360014 26.3364H2.17668C2.39335 26.3364 2.57168 26.158 2.57168 25.9364L2.57835 23.173H4.28335C5.71168 23.173 6.70502 22.1647 6.70502 20.7047V18.1414C6.70502 16.6797 5.71168 15.668 4.28335 15.668H0.386682ZM15.4402 15.668C15.3878 15.6684 15.3362 15.6791 15.288 15.6995C15.2398 15.72 15.1962 15.7497 15.1595 15.787C15.1228 15.8244 15.0938 15.8685 15.0742 15.9169C15.0546 15.9655 15.0447 16.0174 15.0451 16.0696V20.1863C15.0451 21.753 16.1402 22.8663 17.6768 22.8663H18.8018C18.8018 22.8663 18.8285 22.8663 18.8635 22.873C18.9662 22.8856 19.0605 22.9357 19.1288 23.0134C19.1969 23.0911 19.2342 23.1913 19.2335 23.2947C19.2335 23.5113 19.0735 23.6863 18.8685 23.713L18.8385 23.7197L18.3335 23.7296H16.2318C16.1268 23.731 16.0265 23.7737 15.9528 23.8487C15.8792 23.9235 15.8381 24.0247 15.8385 24.1296V25.9463C15.8376 26.0518 15.8785 26.1535 15.9522 26.229C16.0258 26.3045 16.1263 26.348 16.2318 26.3496H19.1485C20.6818 26.3496 21.7768 25.2347 21.7768 23.6696V16.0696C21.7772 15.9647 21.7362 15.8635 21.6625 15.7887C21.5888 15.7137 21.4885 15.671 21.3835 15.6696H19.6002C19.495 15.671 19.3948 15.7137 19.3211 15.7887C19.2475 15.8635 19.2063 15.9647 19.2068 16.0696C19.1985 17.3814 19.2068 18.6113 19.2068 19.828C19.2055 19.9382 19.1612 20.0433 19.0833 20.1212C19.0055 20.199 18.9002 20.2434 18.7902 20.2447H18.0418C17.9302 20.2434 17.8238 20.1979 17.7456 20.1182C17.6675 20.0386 17.6242 19.9313 17.6251 19.8197C17.6335 18.563 17.6168 17.3197 17.6168 16.0696C17.6172 15.9647 17.5762 15.8635 17.5025 15.7887C17.4288 15.7137 17.3285 15.671 17.2235 15.6696L15.4402 15.668ZM8.76669 15.678C8.71592 15.6767 8.66538 15.6854 8.618 15.7036C8.57054 15.7218 8.52723 15.7492 8.49039 15.7841C8.45354 15.8191 8.42392 15.8611 8.40331 15.9074C8.38269 15.9539 8.37138 16.0038 8.37008 16.0547V17.7597C8.37008 17.9797 8.55838 18.1597 8.79008 18.1597H11.1451C11.3317 18.188 11.4784 18.3264 11.5001 18.543V18.7764C11.4784 18.983 11.3334 19.1331 11.1551 19.1497H9.98839C8.43839 19.1497 7.33173 20.1997 7.33173 21.6747V23.7897C7.33173 25.2564 8.28169 26.2997 9.82339 26.2997H13.0567C13.6367 26.2997 14.1067 25.8497 14.1067 25.2997V18.4064C14.1067 16.7331 13.2601 15.678 11.2401 15.678H8.76669ZM2.57812 18.2981H3.70812C3.93979 18.2981 4.1248 18.4897 4.1248 18.7247V20.1181C4.12545 20.1734 4.1152 20.2284 4.09462 20.2799C4.07404 20.3312 4.04353 20.3781 4.00484 20.4177C3.96614 20.4573 3.92003 20.489 3.86912 20.5108C3.81821 20.5326 3.76351 20.544 3.70812 20.5447H3.54146C3.22146 20.548 2.89812 20.5447 2.57812 20.5447V18.2981ZM10.3614 21.593H11.1031C11.3348 21.593 11.5231 21.773 11.5231 21.993V23.5463C11.5225 23.5896 11.5146 23.6324 11.4998 23.673C11.4701 23.754 11.4159 23.8238 11.3449 23.8728C11.2738 23.9217 11.1894 23.9474 11.1031 23.9463H10.3614C10.2528 23.9485 10.1477 23.9078 10.069 23.8329C9.99031 23.7579 9.94446 23.655 9.94139 23.5463V21.9913C9.94139 21.7713 10.1298 21.593 10.3614 21.593Z" fill="#002875"/>
</g>
</svg>
