<svg width="110" height="110" viewBox="0 0 110 110" fill="none" xmlns="http://www.w3.org/2000/svg">
<path d="M105 55C105 82.6142 82.6142 105 55 105C27.3858 105 5 82.6142 5 55C5 27.3858 27.3858 5 55 5C82.6142 5 105 27.3858 105 55Z" fill="#008CFF"/>
<path d="M65 104L37 77.5L73 34L103.5 67C96.5 94 73.5 103 65 104Z" fill="#0359A0"/>
<rect x="30.2188" y="56.2383" width="38.4763" height="21.5252" transform="rotate(-46.4118 30.2188 56.2383)" fill="#0359A0"/>
<g clip-path="url(#clip0_2_103582)">
<path d="M81.0785 56.2644C80.8411 55.7787 80.8411 55.2216 81.0785 54.736L83.279 50.2344C84.5041 47.728 83.5334 44.7406 81.069 43.433L76.6429 41.0845C76.1654 40.8313 75.838 40.3805 75.7445 39.8482L74.8789 34.9129C74.3969 32.165 71.855 30.3185 69.0932 30.7092L64.1321 31.411C63.5966 31.4866 63.0671 31.3144 62.6786 30.9387L59.0775 27.4549C57.0723 25.5151 53.931 25.515 51.926 27.4549L48.3247 30.939C47.9361 31.3149 47.4066 31.4867 46.8712 31.4114L41.9101 30.7096C39.1474 30.3186 36.6064 32.1653 36.1244 34.9132L35.2588 39.8483C35.1653 40.3807 34.838 40.8314 34.3605 41.0848L29.9344 43.4332C27.47 44.7407 26.4993 47.7283 27.7245 50.2348L29.9249 54.7363C30.1622 55.222 30.1622 55.779 29.9249 56.2646L27.7244 60.7661C26.4992 63.2726 27.4699 66.26 29.9343 67.5675L34.3604 69.916C34.838 70.1693 35.1653 70.6201 35.2588 71.1524L36.1244 76.0877C36.5632 78.5892 38.7082 80.3435 41.1734 80.3433C41.4162 80.3433 41.6626 80.3262 41.9102 80.2912L46.8714 79.5894C47.4064 79.5135 47.9362 79.686 48.3248 80.0618L51.926 83.5455C52.9287 84.5155 54.215 85.0005 55.5017 85.0003C56.788 85.0002 58.0751 84.5153 59.0774 83.5455L62.6786 80.0618C63.0672 79.686 63.5968 79.5143 64.1321 79.5894L69.0932 80.2912C71.8563 80.6821 74.3969 78.8354 74.8789 76.0876L75.7446 71.1525C75.8381 70.6201 76.1655 70.1694 76.6429 69.916L81.069 67.5675C83.5334 66.2601 84.5041 63.2724 83.279 60.766L81.0785 56.2644ZM48.6958 40.1873C52.1358 40.1873 54.9345 42.986 54.9345 46.426C54.9345 49.8659 52.1358 52.6646 48.6958 52.6646C45.2559 52.6646 42.4572 49.8659 42.4572 46.426C42.4572 42.986 45.2559 40.1873 48.6958 40.1873ZM45.4758 67.9321C45.1435 68.2644 44.7081 68.4305 44.2727 68.4305C43.8374 68.4305 43.4018 68.2645 43.0697 67.9321C42.4052 67.2677 42.4052 66.1904 43.0697 65.526L65.5275 43.0682C66.1918 42.4037 67.2692 42.4037 67.9336 43.0682C68.5981 43.7326 68.5981 44.8099 67.9336 45.4744L45.4758 67.9321ZM62.3072 70.8132C58.8673 70.8132 56.0686 68.0145 56.0686 64.5746C56.0686 61.1346 58.8673 58.3359 62.3072 58.3359C65.7472 58.3359 68.5459 61.1346 68.5459 64.5746C68.5459 68.0145 65.7472 70.8132 62.3072 70.8132Z" fill="white"/>
<path d="M62.3045 61.7383C60.7409 61.7383 59.4688 63.0103 59.4688 64.574C59.4688 66.1376 60.7408 67.4096 62.3045 67.4096C63.8681 67.4096 65.1402 66.1376 65.1402 64.574C65.1402 63.0103 63.8681 61.7383 62.3045 61.7383Z" fill="white"/>
<path d="M48.695 43.5898C47.1314 43.5898 45.8594 44.8619 45.8594 46.4255C45.8594 47.9891 47.1314 49.2613 48.695 49.2613C50.2587 49.2613 51.5308 47.9892 51.5308 46.4255C51.5307 44.862 50.2587 43.5898 48.695 43.5898Z" fill="white"/>
</g>
<defs>
<clipPath id="clip0_2_103582">
<rect width="59" height="59" fill="white" transform="translate(26 26)"/>
</clipPath>
</defs>
</svg>
