<svg width="18" height="18" viewBox="0 0 18 18" fill="none" xmlns="http://www.w3.org/2000/svg">
<mask id="mask0_2_109952" style="mask-type:alpha" maskUnits="userSpaceOnUse" x="0" y="0" width="18" height="18">
<rect width="18" height="18" fill="#D9D9D9"/>
</mask>
<g mask="url(#mask0_2_109952)">
<path d="M15.7696 8.2875V14.25C15.7696 14.6625 15.6227 15.0156 15.329 15.3094C15.0352 15.6031 14.6821 15.75 14.2696 15.75H3.76958C3.35708 15.75 3.00395 15.6031 2.7102 15.3094C2.41645 15.0156 2.26958 14.6625 2.26958 14.25V8.2875C1.98208 8.025 1.7602 7.6875 1.60395 7.275C1.4477 6.8625 1.44458 6.4125 1.59458 5.925L2.38208 3.375C2.48208 3.05 2.6602 2.78125 2.91645 2.56875C3.1727 2.35625 3.46958 2.25 3.80708 2.25H14.2321C14.5696 2.25 14.8633 2.35312 15.1133 2.55937C15.3633 2.76562 15.5446 3.0375 15.6571 3.375L16.4446 5.925C16.5946 6.4125 16.5915 6.85625 16.4352 7.25625C16.279 7.65625 16.0571 8 15.7696 8.2875ZM10.6696 7.5C11.0071 7.5 11.2633 7.38438 11.4383 7.15312C11.6133 6.92188 11.6821 6.6625 11.6446 6.375L11.2321 3.75H9.76958V6.525C9.76958 6.7875 9.85708 7.01562 10.0321 7.20938C10.2071 7.40313 10.4196 7.5 10.6696 7.5ZM7.29458 7.5C7.58208 7.5 7.81645 7.40313 7.9977 7.20938C8.17895 7.01562 8.26958 6.7875 8.26958 6.525V3.75H6.80708L6.39458 6.375C6.34458 6.675 6.4102 6.9375 6.59145 7.1625C6.7727 7.3875 7.00708 7.5 7.29458 7.5ZM3.95708 7.5C4.18208 7.5 4.37895 7.41875 4.5477 7.25625C4.71645 7.09375 4.81958 6.8875 4.85708 6.6375L5.26958 3.75H3.80708L3.05708 6.2625C2.98208 6.5125 3.0227 6.78125 3.17895 7.06875C3.3352 7.35625 3.59458 7.5 3.95708 7.5ZM14.0821 7.5C14.4446 7.5 14.7071 7.35625 14.8696 7.06875C15.0321 6.78125 15.0696 6.5125 14.9821 6.2625L14.1946 3.75H12.7696L13.1821 6.6375C13.2196 6.8875 13.3227 7.09375 13.4915 7.25625C13.6602 7.41875 13.8571 7.5 14.0821 7.5ZM3.76958 14.25H14.2696V8.9625C14.2071 8.9875 14.1665 9 14.1477 9H14.0821C13.7446 9 13.4477 8.94375 13.1915 8.83125C12.9352 8.71875 12.6821 8.5375 12.4321 8.2875C12.2071 8.5125 11.9508 8.6875 11.6633 8.8125C11.3758 8.9375 11.0696 9 10.7446 9C10.4071 9 10.0915 8.9375 9.7977 8.8125C9.50395 8.6875 9.24458 8.5125 9.01958 8.2875C8.80708 8.5125 8.5602 8.6875 8.27895 8.8125C7.9977 8.9375 7.69458 9 7.36958 9C7.00708 9 6.67895 8.9375 6.3852 8.8125C6.09145 8.6875 5.83208 8.5125 5.60708 8.2875C5.34458 8.55 5.0852 8.73438 4.82895 8.84063C4.5727 8.94688 4.28208 9 3.95708 9H3.8727C3.84145 9 3.80708 8.9875 3.76958 8.9625V14.25Z" fill="#888888"/>
</g>
</svg>
