<svg width="20" height="20" viewBox="0 0 20 20" fill="none" xmlns="http://www.w3.org/2000/svg">
<mask id="mask0_315_1269" style="mask-type:alpha" maskUnits="userSpaceOnUse" x="0" y="0" width="20" height="20">
<rect width="20" height="20" fill="#D9D9D9"/>
</mask>
<g mask="url(#mask0_315_1269)">
<path d="M9.9987 9.99967C9.08203 9.99967 8.29731 9.67329 7.64453 9.02051C6.99175 8.36773 6.66536 7.58301 6.66536 6.66634C6.66536 5.74967 6.99175 4.96495 7.64453 4.31217C8.29731 3.6594 9.08203 3.33301 9.9987 3.33301C10.9154 3.33301 11.7001 3.6594 12.3529 4.31217C13.0056 4.96495 13.332 5.74967 13.332 6.66634C13.332 7.58301 13.0056 8.36773 12.3529 9.02051C11.7001 9.67329 10.9154 9.99967 9.9987 9.99967ZM3.33203 16.6663V14.333C3.33203 13.8608 3.45356 13.4268 3.69661 13.0309C3.93967 12.6351 4.26259 12.333 4.66536 12.1247C5.52648 11.6941 6.40148 11.3712 7.29036 11.1559C8.17925 10.9406 9.08203 10.833 9.9987 10.833C10.9154 10.833 11.8181 10.9406 12.707 11.1559C13.5959 11.3712 14.4709 11.6941 15.332 12.1247C15.7348 12.333 16.0577 12.6351 16.3008 13.0309C16.5438 13.4268 16.6654 13.8608 16.6654 14.333V16.6663H3.33203ZM4.9987 14.9997H14.9987V14.333C14.9987 14.1802 14.9605 14.0413 14.8841 13.9163C14.8077 13.7913 14.707 13.6941 14.582 13.6247C13.832 13.2497 13.0751 12.9684 12.3112 12.7809C11.5473 12.5934 10.7765 12.4997 9.9987 12.4997C9.22092 12.4997 8.45009 12.5934 7.6862 12.7809C6.92231 12.9684 6.16536 13.2497 5.41536 13.6247C5.29036 13.6941 5.18967 13.7913 5.11328 13.9163C5.03689 14.0413 4.9987 14.1802 4.9987 14.333V14.9997ZM9.9987 8.33301C10.457 8.33301 10.8494 8.16981 11.1758 7.84342C11.5022 7.51704 11.6654 7.12467 11.6654 6.66634C11.6654 6.20801 11.5022 5.81565 11.1758 5.48926C10.8494 5.16287 10.457 4.99967 9.9987 4.99967C9.54036 4.99967 9.148 5.16287 8.82161 5.48926C8.49523 5.81565 8.33203 6.20801 8.33203 6.66634C8.33203 7.12467 8.49523 7.51704 8.82161 7.84342C9.148 8.16981 9.54036 8.33301 9.9987 8.33301Z" fill="#888888"/>
</g>
</svg>
