<svg width="82" height="37" viewBox="0 0 82 37" fill="none" xmlns="http://www.w3.org/2000/svg">
<g clip-path="url(#clip0_545_894)">
<path d="M50.2959 0.102269C45.7817 0.26084 35.2407 0.861146 33.6825 1.0537C33.2013 1.12166 30.8067 1.32553 23.3135 1.97115C18.845 2.34492 14.9724 2.61676 11.9934 2.74135C11.2258 2.77533 10.4925 2.85462 10.3664 2.92258C9.79356 3.22839 9.73628 4.11186 10.2519 4.54227C10.6643 4.89339 10.8362 4.92737 12.7038 5.07462C15.6484 5.30115 20.3689 5.19921 28.1256 4.73482C42.5048 3.874 45.0369 3.78339 54.8217 3.79472C59.7026 3.79472 64.2741 3.85135 64.9616 3.90798C66.474 4.03258 66.8979 3.95329 67.1958 3.45492C67.5968 2.80931 67.3906 1.9938 66.7031 1.57472C66.1417 1.23492 64.4575 0.827167 62.143 0.487371C58.6829 -0.0223227 56.3341 -0.101608 50.2959 0.102269Z" fill="white"/>
<path d="M43.2409 5.00695C41.3275 5.33542 40.6172 5.5393 39.838 5.98103C39.0589 6.42276 38.6579 7.00042 38.2798 8.15572C37.6153 10.2738 37.3518 13.0828 37.4434 17.4548C37.6267 26.7426 38.7038 30.7861 40.9723 30.7861C41.4306 30.7861 41.6025 30.7182 41.9233 30.435C42.4733 29.9593 42.5535 29.4949 42.2327 28.5322C41.8202 27.2636 41.7056 25.44 41.7056 20.3431C41.7171 17.738 41.74 15.5859 41.7744 15.5633C41.8087 15.5293 42.3816 15.4274 43.0576 15.3254C43.7336 15.2348 44.4325 15.0876 44.6158 14.9969C45.372 14.6005 45.5668 13.5811 44.9939 13.0035C44.5013 12.5164 43.9284 12.4145 42.966 12.607C42.5306 12.6977 42.0952 12.7769 42.015 12.7769C41.9004 12.7769 41.8775 12.4711 41.9348 11.3272C41.9692 10.5343 42.0264 9.57154 42.0608 9.18644L42.1181 8.49552L44.7992 8.50685L47.4688 8.5295L47.7781 8.24634C48.225 7.82726 48.4083 7.4195 48.4083 6.79654C48.4083 6.02634 48.0646 5.56195 47.2282 5.14287C46.3116 4.68981 45.3033 4.65583 43.2409 5.00695Z" fill="white"/>
<path d="M70.3704 5.98106C69.2705 6.93249 68.7434 10.1719 68.7663 15.8351C68.7893 20.4224 69.0872 23.9676 69.6142 25.9044C69.8663 26.8559 70.76 28.5435 71.1266 28.804C71.6422 29.1551 73.6129 28.872 74.8388 28.2603C75.7325 27.8073 77.3939 26.6746 78.2532 25.9384C81.129 23.4466 82.3779 20.2638 81.805 16.9112C81.2551 13.6831 79.5479 10.5683 77.0387 8.1784C76.0877 7.28361 75.4805 6.8532 74.4722 6.34351C73.59 5.9131 73.1087 5.7885 71.8255 5.69789L70.7714 5.62993L70.3704 5.98106ZM73.2577 8.37095C74.6784 9.29973 76.6491 11.7802 77.623 13.8303C78.5396 15.7559 78.9406 17.8513 78.6657 19.2897C78.3792 20.7962 77.3824 22.2346 75.744 23.5259C75.3659 23.8203 74.3462 24.5113 73.4983 25.0436L71.9515 26.0177L71.8713 25.6552C71.8255 25.4514 71.7224 24.2054 71.6422 22.8802C71.5391 20.9774 71.5391 19.7315 71.6422 16.8772C71.814 12.5391 72.238 7.90657 72.4671 7.90657C72.513 7.90657 72.8681 8.11045 73.2577 8.37095Z" fill="white"/>
<path d="M62.2464 7.32889C60.2986 7.96317 59.3362 9.34501 58.2592 13.0601C57.6978 14.963 57.4572 16.3108 57.377 17.9305C57.2968 19.6861 57.4342 20.6942 57.904 21.6683C58.2134 22.3026 58.2363 22.4725 58.2936 24.1035C58.3623 26.0743 58.6029 27.2409 59.2331 28.5888C59.8403 29.8913 60.8257 30.7748 61.7079 30.7861C62.2464 30.7861 63.1745 30.2311 63.6328 29.6082C64.6754 28.2377 65.7295 25.3834 66.7951 21.1019C67.7346 17.2962 68.1012 12.7883 67.6315 10.9534C67.1846 9.23174 66.2565 7.90654 65.1566 7.43083C64.4004 7.09103 63.0943 7.04572 62.2464 7.32889ZM63.8619 10.3871C64.0567 10.5909 64.2859 11.078 64.4577 11.6103C64.7098 12.4372 64.7327 12.6524 64.7212 15.0423C64.7212 17.9305 64.5952 18.9952 63.8619 22.2119C63.1859 25.1682 62.235 27.9772 61.8225 28.2263C61.6621 28.3283 61.1694 27.2749 60.9517 26.3235C60.5163 24.4886 60.5049 21.0453 60.9173 17.3189L61.0548 16.039L60.7913 15.8238C60.6424 15.6992 60.4247 15.6086 60.3101 15.6086C60.0237 15.6086 60.0695 15.416 60.7226 13.7397C61.4444 11.8935 62.361 10.3757 62.888 10.1718C63.312 10.0019 63.5411 10.0473 63.8619 10.3871Z" fill="white"/>
<path d="M24.7469 8.0306C23.2459 8.89141 22.6731 11.5531 22.696 17.5902C22.7189 25.4961 23.7157 30.3439 25.4916 31.2387C26.1332 31.5671 26.5915 31.5331 26.9925 31.1367C27.4165 30.7176 27.4279 30.3099 27.0269 29.3245C26.6488 28.407 26.4655 27.3423 26.3051 25.2809C26.0759 22.302 26.1905 18.7455 26.7519 12.2554C27.004 9.33315 27.004 9.28784 26.7978 8.85743C26.6717 8.61958 26.4426 8.33641 26.2822 8.21182C25.9155 7.95131 25.0677 7.84937 24.7469 8.0306Z" fill="white"/>
<path d="M50.8603 8.13268C49.6114 8.31391 48.4428 9.10676 47.7897 10.1941C46.9991 11.542 46.5866 14.7247 46.5866 19.6744C46.5752 23.5594 46.7012 24.9526 47.2053 26.8215C48.1449 30.2421 50.001 31.7598 51.9373 30.6725C52.7279 30.2194 53.4268 29.3246 54.183 27.7842C56.4401 23.2423 57.6202 16.2651 56.7266 12.7766C56.0391 10.1148 54.7215 8.60839 52.6935 8.18931C51.8342 8.00809 51.7311 8.00809 50.8603 8.13268ZM52.1435 10.7378C52.4529 10.7378 53.1976 11.542 53.4841 12.1876C53.6559 12.55 53.8736 13.3202 53.9767 13.9092C54.6184 17.5337 52.8654 25.8021 50.929 28.2939L50.7113 28.5771L50.3676 27.8295C50.1728 27.4104 49.9093 26.5496 49.7604 25.904C49.5198 24.8167 49.4969 24.4655 49.5083 21.4414C49.5083 18.9948 49.5656 17.7942 49.7145 16.7635C49.9322 15.1891 49.8749 14.8946 49.2677 14.5888C49.0844 14.4982 48.9125 14.4189 48.9011 14.4189C48.8896 14.4076 48.9583 14.1018 49.05 13.7393C49.2792 12.8672 50.0239 11.3154 50.3333 11.0323C50.6311 10.7718 51.2155 10.6245 51.6623 10.6925C51.8456 10.7151 52.0633 10.7378 52.1435 10.7378Z" fill="white"/>
<path d="M29.9013 8.74459C29.0649 9.11836 28.5608 10.1151 28.492 11.5422C28.4347 12.6183 28.5837 13.0827 29.0993 13.4111C29.5346 13.6943 30.4512 13.5697 30.8637 13.1846C31.2991 12.7655 32.0324 11.3044 32.1011 10.7041C32.2615 9.32224 31.0241 8.22357 29.9013 8.74459Z" fill="white"/>
<path d="M15.6735 8.92583C14.8371 9.11838 14.3444 9.70736 14.585 10.2171C14.6767 10.4323 14.6537 10.6361 14.4933 11.1685C14.1267 12.3351 13.9892 13.649 14.0007 16.1748C14.0007 17.9757 14.0579 19.1197 14.2527 20.5922C14.8256 25.2247 15.6391 27.8525 16.8765 29.1777L17.3004 29.6194L18.618 29.6874C19.3399 29.7213 20.371 29.8459 20.8981 29.9479C22.1011 30.1744 22.6396 30.0611 22.9719 29.5061C23.4302 28.7699 23.1552 27.9997 22.2959 27.592C21.8491 27.3767 21.5741 27.3541 20.119 27.3428L18.4462 27.3201L18.2629 26.7651C18.1597 26.448 18.0337 25.9723 17.9879 25.7004L17.9077 25.2021L18.641 25.2587C19.8669 25.3606 20.5658 25.0095 20.5658 24.2959C20.5658 23.4917 20.0617 23.1973 18.641 23.1973H17.6212L17.5525 22.2005C17.3692 19.754 17.3463 18.0777 17.4608 16.8544C17.5296 16.1408 17.69 14.5664 17.8046 13.3658C17.9306 12.1652 18.0452 11.1458 18.0795 11.1232C18.1139 11.0892 18.6639 11.1232 19.294 11.1911C19.9357 11.2704 20.6919 11.2931 20.9898 11.2478C22.5709 11.0212 22.3417 9.28827 20.6804 8.93715C20.0273 8.80124 16.2463 8.78991 15.6735 8.92583Z" fill="white"/>
<path d="M1.79741 9.74113C1.62555 9.78643 1.3162 9.99031 1.10996 10.1942C0.285017 11.055 -0.0128789 13.0032 0.101696 16.9335C0.296475 23.854 1.08704 28.8716 2.17551 30.2875C2.80567 31.103 3.61916 31.3521 4.11183 30.8651C4.30661 30.6726 4.66179 30.548 5.39508 30.4007C7.26265 30.0496 8.96983 29.0302 10.5853 27.3199C12.4071 25.3944 13.3581 22.9139 13.3695 20.0822C13.381 17.1713 12.1894 14.0565 10.402 12.2443C9.15315 10.9984 7.72096 10.2395 5.94504 9.8997C4.95969 9.70715 2.313 9.61653 1.79741 9.74113ZM5.13155 12.3122C7.22828 12.8446 8.4657 13.898 9.4625 16.0047C10.6655 18.5418 10.6999 21.4188 9.55416 23.7294C9.06149 24.7375 8.04177 25.6776 6.16273 26.8442C4.29515 28.0108 4.22641 28.0335 4.13475 27.7616C3.9056 26.9801 3.77956 24.2504 3.77956 19.5159C3.77956 14.0452 3.87122 12.097 4.11183 12.097C4.19204 12.097 4.65034 12.199 5.13155 12.3122Z" fill="white"/>
<path d="M29.0429 15.6309C27.8055 16.2539 27.4274 18.27 27.8399 22.0644C28.1378 24.8847 28.6648 26.9121 29.2492 27.5238C29.822 28.1354 30.5439 28.1694 31.048 27.6144C31.3001 27.3312 31.3001 27.4898 31.1626 24.0465C31.1053 22.4495 31.1282 21.2829 31.2657 19.5159C31.4605 16.9448 31.4261 16.4804 30.9563 15.9594C30.6814 15.6649 30.097 15.3817 29.7533 15.3817C29.6387 15.3817 29.3179 15.495 29.0429 15.6309Z" fill="white"/>
<path d="M52.9881 32.0883C44.1314 32.4281 34.1748 33.0058 27.3805 33.5608C23.4047 33.8892 21.182 34.0818 20.2768 34.1837C17.6187 34.4895 13.7919 34.784 11.4201 34.8407C8.78491 34.92 8.73908 34.92 8.52139 35.1918C8.04017 35.7694 8.41827 36.449 9.36924 36.7322C10.8358 37.1626 14.5366 37.1853 20.3914 36.7888C21.2736 36.7322 23.0495 36.6303 24.3442 36.5623C25.6389 36.4943 27.4721 36.3924 28.4117 36.3358C31.0584 36.1659 40.2588 35.7468 46.0563 35.5429C50.8455 35.3617 64.3654 35.2824 68.513 35.407C72.5003 35.5203 72.9013 35.475 73.4283 34.852C74.1272 34.0365 73.4742 32.8585 72.1222 32.4847C71.9045 32.4281 71.1826 32.2922 70.5181 32.1903C68.8797 31.9297 58.5679 31.8731 52.9881 32.0883Z" fill="white"/>
</g>
<defs>
<clipPath id="clip0_545_894">
<rect width="82" height="37" fill="white"/>
</clipPath>
</defs>
</svg>
