<svg width="110" height="110" viewBox="0 0 110 110" fill="none" xmlns="http://www.w3.org/2000/svg">
<mask id="mask0_2_106096" style="mask-type:alpha" maskUnits="userSpaceOnUse" x="24" y="26" width="62" height="63">
<rect x="24.3359" y="26.832" width="61.3333" height="61.3333" fill="#D9D9D9"/>
</mask>
<g mask="url(#mask0_2_106096)">
<path d="M37.115 47.2778V75.3889H72.8928V47.2778H65.2261V67.7222L55.0039 62.6111L44.7817 67.7222V47.2778H37.115ZM37.115 80.5C35.7095 80.5 34.5062 79.9995 33.5053 78.9986C32.5044 77.9977 32.0039 76.7944 32.0039 75.3889V43.5083C32.0039 42.912 32.0997 42.337 32.2914 41.7833C32.4831 41.2296 32.7706 40.7185 33.1539 40.25L36.3484 36.3528C36.8169 35.7565 37.4025 35.2986 38.1053 34.9792C38.8081 34.6597 39.5428 34.5 40.3095 34.5H69.6984C70.465 34.5 71.1997 34.6597 71.9025 34.9792C72.6053 35.2986 73.1909 35.7565 73.6595 36.3528L76.8539 40.25C77.2372 40.7185 77.5247 41.2296 77.7164 41.7833C77.9081 42.337 78.0039 42.912 78.0039 43.5083V75.3889C78.0039 76.7944 77.5034 77.9977 76.5025 78.9986C75.5016 79.9995 74.2984 80.5 72.8928 80.5H37.115ZM38.1372 42.1667H71.8706L69.6984 39.6111H40.3095L38.1372 42.1667ZM49.8928 47.2778V59.4167L55.0039 56.8611L60.115 59.4167V47.2778H49.8928Z" fill="#008CFF"/>
</g>
<mask id="mask1_2_106096" style="mask-type:alpha" maskUnits="userSpaceOnUse" x="-7" y="-4" width="124" height="123">
<rect width="122.667" height="122.667" transform="matrix(-1 0 0 1 116.336 -3.83203)" fill="#D9D9D9"/>
</mask>
<g mask="url(#mask1_2_106096)">
<path d="M54.9868 103.5C61.3478 103.5 67.3282 102.293 72.9281 99.8789C78.5279 97.4648 83.399 94.1885 87.5414 90.05C91.6837 85.9115 94.963 81.045 97.3794 75.4505C99.7957 69.8559 101.004 63.8781 101.004 57.5171C101.004 51.1561 99.7969 45.1757 97.3828 39.5758C94.9687 33.976 91.6924 29.1049 87.5539 24.9625C83.4154 20.8202 78.5489 17.5409 72.9544 15.1245C67.3598 12.7082 61.382 11.5 55.021 11.5C48.66 11.5 42.6796 12.707 37.0798 15.1211C31.4799 17.5352 26.6088 20.8115 22.4664 24.95C18.3241 29.0885 15.0448 33.955 12.6284 39.5495C10.2121 45.1441 9.00391 51.1219 9.00391 57.4829C9.00391 63.8439 10.2109 69.8243 12.625 75.4242C15.0391 81.024 18.3155 85.8951 22.4539 90.0375C26.5924 94.1798 31.4589 97.4591 37.0534 99.8755C42.6481 102.292 48.6258 103.5 54.9868 103.5ZM55.0039 98.3889C43.5891 98.3889 33.9206 94.4278 25.9984 86.5056C18.0761 78.5833 14.115 68.9148 14.115 57.5C14.115 52.5094 15.0078 47.7037 16.7935 43.0827C18.5791 38.4618 21.1068 34.2641 24.3766 30.4897L82.0142 88.1273C78.2398 91.4627 74.0422 94.0068 69.4212 95.7596C64.8002 97.5125 59.9945 98.3889 55.0039 98.3889ZM85.6312 84.5103L27.9936 26.8727C31.7025 23.4718 35.878 20.9113 40.5202 19.1912C45.1624 17.4711 49.9903 16.6111 55.0039 16.6111C66.4187 16.6111 76.0872 20.5722 84.0095 28.4944C91.9317 36.4167 95.8928 46.0852 95.8928 57.5C95.8928 62.4906 95.0164 67.2963 93.2635 71.9173C91.5107 76.5383 88.9666 80.7359 85.6312 84.5103Z" fill="#FE5858"/>
</g>
</svg>
