<svg width="100" height="100" viewBox="0 0 100 100" fill="none" xmlns="http://www.w3.org/2000/svg">
<g clip-path="url(#clip0_2_103211)">
<path d="M100 50C100 77.6142 77.6142 100 50 100C22.3858 100 0 77.6142 0 50C0 22.3858 22.3858 0 50 0C77.6142 0 100 22.3858 100 50Z" fill="#26A661"/>
<path d="M46.5 64.5L28 46L35.5 48L49.5 61.5L46.5 64.5Z" fill="#176D3E" stroke="#176D3E" stroke-width="0.3" stroke-linejoin="round"/>
<path d="M76.5 102L38 66.5L72.5 29.5L113.5 70C107.5 98.5 81 100.5 76.5 102Z" fill="#176D3E"/>
<mask id="mask0_2_103211" style="mask-type:alpha" maskUnits="userSpaceOnUse" x="10" y="10" width="80" height="80">
<rect x="10" y="10" width="80" height="80" fill="#D9D9D9"/>
</mask>
<g mask="url(#mask0_2_103211)">
<path d="M41.833 70.287L22.1953 50.747L27.6029 45.3663L41.833 59.5255L72.3964 29.1143L77.804 34.4949L41.833 70.287Z" fill="white"/>
</g>
</g>
<defs>
<clipPath id="clip0_2_103211">
<rect width="100" height="100" rx="50" fill="white"/>
</clipPath>
</defs>
</svg>
