<svg width="94" height="29" viewBox="0 0 94 29" fill="none" xmlns="http://www.w3.org/2000/svg">
<path d="M0 3.5H90C92.2091 3.5 94 5.29086 94 7.5V24.5C94 26.7091 92.2091 28.5 90 28.5H4C1.79086 28.5 0 26.7091 0 24.5V3.5Z" fill="#F47C51"/>
<mask id="mask0_1057_9268" style="mask-type:alpha" maskUnits="userSpaceOnUse" x="5" y="9" width="14" height="14">
<rect x="5" y="9" width="14" height="14" fill="#D9D9D9"/>
</mask>
<g mask="url(#mask0_1057_9268)">
<path d="M8.39922 20.8831L9.34714 16.7852L6.16797 14.029L10.368 13.6644L12.0013 9.7998L13.6346 13.6644L17.8346 14.029L14.6555 16.7852L15.6034 20.8831L12.0013 18.7102L8.39922 20.8831Z" fill="white"/>
</g>
<path d="M23.686 11.26H26.626C27.144 11.26 27.627 11.33 28.075 11.47C28.523 11.61 28.8847 11.8433 29.16 12.17C29.44 12.4967 29.58 12.9423 29.58 13.507C29.58 13.885 29.5077 14.2233 29.363 14.522C29.2183 14.8207 29.034 15.0657 28.81 15.257C28.586 15.4437 28.3503 15.5627 28.103 15.614C28.313 15.6373 28.5277 15.7003 28.747 15.803C28.9663 15.9057 29.1693 16.048 29.356 16.23C29.5427 16.412 29.692 16.6407 29.804 16.916C29.9207 17.1913 29.979 17.5133 29.979 17.882C29.979 18.3953 29.867 18.8503 29.643 19.247C29.4237 19.639 29.097 19.947 28.663 20.171C28.2337 20.3903 27.6993 20.5 27.06 20.5H23.686V11.26ZM25.436 19.086H26.703C27.0577 19.086 27.34 19.0277 27.55 18.911C27.7647 18.7943 27.9187 18.6357 28.012 18.435C28.1053 18.2343 28.152 18.0057 28.152 17.749C28.152 17.3383 28.0213 17.0233 27.76 16.804C27.4987 16.5847 27.1277 16.475 26.647 16.475H25.436V19.086ZM25.436 15.089H26.549C26.8383 15.089 27.0763 15.033 27.263 14.921C27.4543 14.8043 27.599 14.6503 27.697 14.459C27.795 14.263 27.844 14.0507 27.844 13.822C27.844 13.3833 27.7157 13.0823 27.459 12.919C27.207 12.7557 26.864 12.674 26.43 12.674H25.436V15.089ZM32.6506 18.022C32.6646 18.2833 32.7346 18.5167 32.8606 18.722C32.9866 18.9273 33.1686 19.0883 33.4066 19.205C33.6493 19.3217 33.9386 19.38 34.2746 19.38C34.5779 19.38 34.8439 19.3427 35.0726 19.268C35.3059 19.1933 35.5019 19.1023 35.6606 18.995C35.8239 18.883 35.9453 18.7757 36.0246 18.673L36.7596 19.765C36.6289 19.9283 36.4539 20.08 36.2346 20.22C36.0199 20.3553 35.7446 20.4627 35.4086 20.542C35.0773 20.626 34.6619 20.668 34.1626 20.668C33.5326 20.668 32.9796 20.5443 32.5036 20.297C32.0276 20.0497 31.6566 19.6927 31.3906 19.226C31.1246 18.7593 30.9916 18.204 30.9916 17.56C30.9916 17 31.1106 16.496 31.3486 16.048C31.5866 15.5953 31.9319 15.2383 32.3846 14.977C32.8419 14.7157 33.3903 14.585 34.0296 14.585C34.6316 14.585 35.1519 14.7017 35.5906 14.935C36.0339 15.1637 36.3769 15.4997 36.6196 15.943C36.8623 16.3863 36.9836 16.9277 36.9836 17.567C36.9836 17.6043 36.9813 17.6813 36.9766 17.798C36.9766 17.91 36.9719 17.9847 36.9626 18.022H32.6506ZM35.3176 16.923C35.3129 16.7737 35.2663 16.6127 35.1776 16.44C35.0936 16.2673 34.9606 16.1203 34.7786 15.999C34.5966 15.8777 34.3539 15.817 34.0506 15.817C33.7473 15.817 33.4976 15.8753 33.3016 15.992C33.1103 16.1087 32.9656 16.2533 32.8676 16.426C32.7696 16.594 32.7136 16.7597 32.6996 16.923H35.3176ZM40.5922 14.585C40.9375 14.585 41.2572 14.6177 41.5512 14.683C41.8452 14.7437 42.0925 14.8137 42.2932 14.893C42.4985 14.9723 42.6339 15.04 42.6992 15.096L42.0902 16.167C41.9969 16.0923 41.8289 16.0037 41.5862 15.901C41.3482 15.7983 41.0822 15.747 40.7882 15.747C40.5222 15.747 40.2982 15.7937 40.1162 15.887C39.9342 15.9757 39.8432 16.111 39.8432 16.293C39.8432 16.475 39.9412 16.6197 40.1372 16.727C40.3332 16.8343 40.6062 16.9277 40.9562 17.007C41.2502 17.0677 41.5395 17.161 41.8242 17.287C42.1089 17.4083 42.3445 17.5857 42.5312 17.819C42.7179 18.0477 42.8112 18.3533 42.8112 18.736C42.8112 19.114 42.7295 19.429 42.5662 19.681C42.4075 19.9283 42.1952 20.1243 41.9292 20.269C41.6632 20.4137 41.3715 20.5163 41.0542 20.577C40.7369 20.6377 40.4219 20.668 40.1092 20.668C39.7032 20.668 39.3462 20.6283 39.0382 20.549C38.7302 20.4743 38.4759 20.388 38.2752 20.29C38.0792 20.1873 37.9392 20.101 37.8552 20.031L38.4642 18.841C38.5855 18.9483 38.7839 19.0673 39.0592 19.198C39.3392 19.324 39.6402 19.387 39.9622 19.387C40.2982 19.387 40.5619 19.3287 40.7532 19.212C40.9492 19.0953 41.0472 18.939 41.0472 18.743C41.0472 18.5983 41.0005 18.4817 40.9072 18.393C40.8139 18.2997 40.6855 18.2227 40.5222 18.162C40.3589 18.1013 40.1675 18.0477 39.9482 18.001C39.7475 17.959 39.5422 17.8983 39.3322 17.819C39.1222 17.735 38.9262 17.6253 38.7442 17.49C38.5622 17.3547 38.4152 17.1867 38.3032 16.986C38.1912 16.7807 38.1352 16.5357 38.1352 16.251C38.1352 15.887 38.2519 15.5837 38.4852 15.341C38.7185 15.0937 39.0219 14.907 39.3952 14.781C39.7685 14.6503 40.1675 14.585 40.5922 14.585ZM43.4704 14.753H44.5064V12.394H46.2704V14.753H47.6284V16.23H46.2704V18.309C46.2704 18.5843 46.3147 18.799 46.4034 18.953C46.4921 19.1023 46.6321 19.177 46.8234 19.177C46.9681 19.177 47.0871 19.149 47.1804 19.093C47.2737 19.0323 47.3297 18.9903 47.3484 18.967L47.9784 20.241C47.9504 20.269 47.8594 20.318 47.7054 20.388C47.5561 20.458 47.3624 20.521 47.1244 20.577C46.8911 20.6377 46.6274 20.668 46.3334 20.668C45.8061 20.668 45.3697 20.5163 45.0244 20.213C44.6791 19.905 44.5064 19.429 44.5064 18.785V16.23H43.4704V14.753ZM52.4777 11.26H56.0337C56.5563 11.26 57.0253 11.3697 57.4407 11.589C57.856 11.8037 58.185 12.1187 58.4277 12.534C58.675 12.9447 58.7987 13.4417 58.7987 14.025C58.7987 14.6037 58.6913 15.0797 58.4767 15.453C58.262 15.8217 58.003 16.0993 57.6997 16.286C57.401 16.4727 57.1233 16.58 56.8667 16.608L59.1347 20.5H57.1607L55.1097 16.741H54.2207V20.5H52.4777V11.26ZM54.2207 15.509H55.4107C55.854 15.509 56.2297 15.3993 56.5377 15.18C56.8503 14.9607 57.0067 14.592 57.0067 14.074C57.0067 13.556 56.8527 13.192 56.5447 12.982C56.2367 12.7673 55.8633 12.66 55.4247 12.66H54.2207V15.509ZM65.0937 20.5V19.499C65.0517 19.6017 64.9444 19.7463 64.7717 19.933C64.5991 20.1197 64.3657 20.29 64.0717 20.444C63.7824 20.5933 63.4417 20.668 63.0497 20.668C62.4991 20.668 62.0114 20.5373 61.5867 20.276C61.1621 20.01 60.8284 19.6483 60.5857 19.191C60.3477 18.729 60.2287 18.2087 60.2287 17.63C60.2287 17.0513 60.3477 16.5333 60.5857 16.076C60.8284 15.614 61.1621 15.25 61.5867 14.984C62.0114 14.718 62.4991 14.585 63.0497 14.585C63.4324 14.585 63.7637 14.6503 64.0437 14.781C64.3284 14.907 64.5571 15.0563 64.7297 15.229C64.9071 15.397 65.0214 15.5487 65.0727 15.684V14.753H66.8367V20.5H65.0937ZM61.9717 17.63C61.9717 17.952 62.0441 18.2367 62.1887 18.484C62.3334 18.7267 62.5247 18.9157 62.7627 19.051C63.0007 19.1863 63.2597 19.254 63.5397 19.254C63.8337 19.254 64.0951 19.1863 64.3237 19.051C64.5524 18.911 64.7321 18.7197 64.8627 18.477C64.9981 18.2297 65.0657 17.9473 65.0657 17.63C65.0657 17.3127 64.9981 17.0327 64.8627 16.79C64.7321 16.5427 64.5524 16.349 64.3237 16.209C64.0951 16.069 63.8337 15.999 63.5397 15.999C63.2597 15.999 63.0007 16.069 62.7627 16.209C62.5247 16.3443 62.3334 16.5357 62.1887 16.783C62.0441 17.0257 61.9717 17.308 61.9717 17.63ZM67.8063 14.753H68.8423V12.394H70.6063V14.753H71.9643V16.23H70.6063V18.309C70.6063 18.5843 70.6507 18.799 70.7393 18.953C70.828 19.1023 70.968 19.177 71.1593 19.177C71.304 19.177 71.423 19.149 71.5163 19.093C71.6097 19.0323 71.6657 18.9903 71.6843 18.967L72.3143 20.241C72.2863 20.269 72.1953 20.318 72.0413 20.388C71.892 20.458 71.6983 20.521 71.4603 20.577C71.227 20.6377 70.9633 20.668 70.6693 20.668C70.142 20.668 69.7057 20.5163 69.3603 20.213C69.015 19.905 68.8423 19.429 68.8423 18.785V16.23H67.8063V14.753ZM74.5275 18.022C74.5415 18.2833 74.6115 18.5167 74.7375 18.722C74.8635 18.9273 75.0455 19.0883 75.2835 19.205C75.5262 19.3217 75.8155 19.38 76.1515 19.38C76.4549 19.38 76.7209 19.3427 76.9495 19.268C77.1829 19.1933 77.3789 19.1023 77.5375 18.995C77.7009 18.883 77.8222 18.7757 77.9015 18.673L78.6365 19.765C78.5059 19.9283 78.3309 20.08 78.1115 20.22C77.8969 20.3553 77.6215 20.4627 77.2855 20.542C76.9542 20.626 76.5389 20.668 76.0395 20.668C75.4095 20.668 74.8565 20.5443 74.3805 20.297C73.9045 20.0497 73.5335 19.6927 73.2675 19.226C73.0015 18.7593 72.8685 18.204 72.8685 17.56C72.8685 17 72.9875 16.496 73.2255 16.048C73.4635 15.5953 73.8089 15.2383 74.2615 14.977C74.7189 14.7157 75.2672 14.585 75.9065 14.585C76.5085 14.585 77.0289 14.7017 77.4675 14.935C77.9109 15.1637 78.2539 15.4997 78.4965 15.943C78.7392 16.3863 78.8605 16.9277 78.8605 17.567C78.8605 17.6043 78.8582 17.6813 78.8535 17.798C78.8535 17.91 78.8489 17.9847 78.8395 18.022H74.5275ZM77.1945 16.923C77.1899 16.7737 77.1432 16.6127 77.0545 16.44C76.9705 16.2673 76.8375 16.1203 76.6555 15.999C76.4735 15.8777 76.2309 15.817 75.9275 15.817C75.6242 15.817 75.3745 15.8753 75.1785 15.992C74.9872 16.1087 74.8425 16.2533 74.7445 16.426C74.6465 16.594 74.5905 16.7597 74.5765 16.923H77.1945ZM82.5462 20.668C82.0002 20.668 81.5195 20.5373 81.1042 20.276C80.6935 20.01 80.3715 19.6483 80.1382 19.191C79.9095 18.729 79.7952 18.2087 79.7952 17.63C79.7952 17.0513 79.9095 16.5333 80.1382 16.076C80.3715 15.614 80.6935 15.25 81.1042 14.984C81.5195 14.718 82.0002 14.585 82.5462 14.585C82.9335 14.585 83.2765 14.648 83.5752 14.774C83.8785 14.9 84.1212 15.0493 84.3032 15.222C84.4852 15.3947 84.5925 15.5487 84.6252 15.684V10.868H86.4102V20.5H84.6462V19.499C84.5715 19.6623 84.4338 19.835 84.2332 20.017C84.0325 20.199 83.7875 20.353 83.4982 20.479C83.2088 20.605 82.8915 20.668 82.5462 20.668ZM83.0502 19.254C83.3488 19.254 83.6172 19.1863 83.8552 19.051C84.0932 18.911 84.2798 18.7197 84.4152 18.477C84.5552 18.2297 84.6252 17.9473 84.6252 17.63C84.6252 17.3127 84.5552 17.0327 84.4152 16.79C84.2798 16.5427 84.0932 16.349 83.8552 16.209C83.6172 16.069 83.3488 15.999 83.0502 15.999C82.7748 15.999 82.5228 16.069 82.2942 16.209C82.0655 16.3443 81.8812 16.5357 81.7412 16.783C81.6058 17.0257 81.5382 17.308 81.5382 17.63C81.5382 17.952 81.6058 18.2367 81.7412 18.484C81.8812 18.7267 82.0655 18.9157 82.2942 19.051C82.5228 19.1863 82.7748 19.254 83.0502 19.254Z" fill="white"/>
<path d="M6 0L0 3.5H6V0Z" fill="#A4350F"/>
</svg>
