<svg width="20" height="21" viewBox="0 0 20 21" fill="none" xmlns="http://www.w3.org/2000/svg">
<path d="M11.1724 11.9151L14.9307 8.15676L14.1021 7.32812L11.1724 10.2578L10.0005 9.08594L9.17188 9.91457L11.1724 11.9151Z" fill="white"/>
<path d="M15.8594 15.1875H6.48438C6.16129 15.1875 5.89844 14.9246 5.89844 14.6016C5.89844 14.2785 6.16129 14.0156 6.48438 14.0156H17.317L20 4.64062H4.92363L4.67562 3.63344L4.6752 3.63355C4.48598 2.86707 3.79285 2.29688 2.96875 2.29688H1.75781C0.788555 2.29688 0 3.08543 0 4.05469H1.17188C1.17188 3.7316 1.43473 3.46875 1.75781 3.46875H2.96875C3.29184 3.46875 3.55469 3.7316 3.55469 4.05469H3.5725L5.77375 12.9944C5.15758 13.2679 4.72656 13.8852 4.72656 14.6016C4.72656 15.5708 5.51512 16.3594 6.48438 16.3594H7.17109C7.10605 16.5428 7.07031 16.7399 7.07031 16.9453C7.07031 17.9146 7.85887 18.7031 8.82812 18.7031C9.79738 18.7031 10.5859 17.9146 10.5859 16.9453C10.5859 16.7399 10.5502 16.5428 10.4852 16.3594H14.2024C14.1373 16.5428 14.1016 16.7399 14.1016 16.9453C14.1016 17.9146 14.8902 18.7031 15.8594 18.7031C16.8287 18.7031 17.6172 17.9146 17.6172 16.9453C17.6172 15.9761 16.8286 15.1875 15.8594 15.1875ZM18.4464 5.8125L16.433 12.8438H6.94355L5.21223 5.8125H18.4464ZM9.41406 16.9453C9.41406 17.2684 9.15121 17.5312 8.82812 17.5312C8.50504 17.5312 8.24219 17.2684 8.24219 16.9453C8.24219 16.6222 8.50504 16.3594 8.82812 16.3594C9.15121 16.3594 9.41406 16.6222 9.41406 16.9453ZM15.8594 17.5312C15.5363 17.5312 15.2734 17.2684 15.2734 16.9453C15.2734 16.6222 15.5363 16.3594 15.8594 16.3594C16.1825 16.3594 16.4453 16.6222 16.4453 16.9453C16.4453 17.2684 16.1825 17.5312 15.8594 17.5312Z" fill="white"/>
</svg>
