<svg width="22" height="18" viewBox="0 0 22 18" fill="none" xmlns="http://www.w3.org/2000/svg">
<path d="M4.37877 1.35323L4.37876 1.35324C4.05374 1.62816 3.85436 2.01317 3.8174 2.43702L3.54368 5.00508H2.50214C1.61864 5.00508 0.9 5.72372 0.9 6.60722V15.4237C0.9 16.3072 1.61864 17.0258 2.50214 17.0258H16.6354C17.519 17.0258 18.2376 16.3072 18.2376 15.4237V14.1022L18.6308 14.135L18.6308 14.135C18.6758 14.1388 18.7207 14.1406 18.7652 14.1406C19.5889 14.1406 20.291 13.5071 20.3607 12.6717L21.0943 3.88587C21.1299 3.45955 20.9972 3.04443 20.7209 2.71781L20.6446 2.78239L20.7209 2.71781C20.4447 2.39124 20.0573 2.19151 19.631 2.15591L5.54678 0.979897C5.12042 0.944291 4.70538 1.07701 4.37877 1.35323ZM18.7125 13.1572L18.7124 13.1572L18.2376 13.1175V6.60722C18.2376 5.72371 17.519 5.00508 16.6354 5.00508H4.53051L4.79368 2.536L4.79369 2.53587L4.79471 2.52482L4.79472 2.52482C4.82321 2.18369 5.12395 1.92917 5.46511 1.95775L5.46514 1.95775L19.5494 3.13377C19.7149 3.14758 19.8646 3.22476 19.9718 3.35153L20.0481 3.28696L19.9718 3.35154C20.079 3.47833 20.1303 3.63872 20.1165 3.80419L19.3829 12.59C19.3544 12.9312 19.0534 13.1857 18.7125 13.1572ZM2.50214 5.98633H16.6354C16.9777 5.98633 17.2563 6.26496 17.2563 6.60722V7.31058H1.88125V6.60722C1.88125 6.26495 2.15987 5.98633 2.50214 5.98633ZM1.88125 8.29183H17.2563V9.71248H1.88125V8.29183ZM16.6354 16.0446H2.50214C2.15987 16.0446 1.88125 15.7659 1.88125 15.4237V10.6937H17.2563V15.4237C17.2563 15.7659 16.9777 16.0446 16.6354 16.0446Z" fill="#888888" stroke="#888888" stroke-width="0.2"/>
</svg>
