<svg width="20" height="20" viewBox="0 0 20 20" fill="none" xmlns="http://www.w3.org/2000/svg">
<path d="M18.3984 10.8136V7.00039C18.3984 6.89139 18.3692 6.78479 18.3128 6.69159L15.0626 1.27339C14.7386 0.734991 14.1468 0.400391 13.5188 0.400391H5.27804C4.64984 0.400391 4.05804 0.734991 3.73404 1.27399L0.484037 6.69159C0.427637 6.78479 0.398438 6.89139 0.398438 7.00039V16.6004C0.398438 17.593 1.20584 18.4004 2.19844 18.4004H10.8116C11.7388 19.1494 12.9164 19.6004 14.1984 19.6004C17.1762 19.6004 19.5984 17.1782 19.5984 14.2004C19.5984 12.9184 19.1474 11.7408 18.3984 10.8136ZM9.99844 1.60039H13.5188C13.7286 1.60039 13.926 1.71239 14.0338 1.89159L16.7386 6.40039H9.99844V1.60039ZM4.76304 1.89219C4.87084 1.71239 5.06844 1.60039 5.27804 1.60039H8.79844V6.40039H2.05824L4.76304 1.89219ZM1.59844 16.6004V7.60039H17.1984V9.71339C16.3398 9.13739 15.3078 8.80039 14.1984 8.80039C11.2206 8.80039 8.79844 11.2226 8.79844 14.2004C8.79844 15.3098 9.13544 16.3418 9.71144 17.2004H2.19844C1.86744 17.2004 1.59844 16.9314 1.59844 16.6004ZM14.1984 18.4004C11.8828 18.4004 9.99844 16.516 9.99844 14.2004C9.99844 11.8848 11.8828 10.0004 14.1984 10.0004C16.514 10.0004 18.3984 11.8848 18.3984 14.2004C18.3984 16.516 16.514 18.4004 14.1984 18.4004ZM13.5984 16.6004C13.4448 16.6004 13.2914 16.5418 13.1742 16.4246L11.3742 14.6246C11.1398 14.3902 11.1398 14.0106 11.3742 13.7762C11.6086 13.5418 11.9882 13.5418 12.2226 13.7762L13.5984 15.152L16.1742 12.5762C16.4086 12.3418 16.7882 12.3418 17.0226 12.5762C17.257 12.8106 17.257 13.1902 17.0226 13.4246L14.0226 16.4246C13.9054 16.5418 13.752 16.6004 13.5984 16.6004ZM6.39844 10.6004H3.99844C3.66684 10.6004 3.39844 10.332 3.39844 10.0004C3.39844 9.66879 3.66684 9.40039 3.99844 9.40039H6.39844C6.73004 9.40039 6.99844 9.66879 6.99844 10.0004C6.99844 10.332 6.73004 10.6004 6.39844 10.6004Z" fill="white"/>
</svg>
