<svg width="41" height="40" viewBox="0 0 41 40" fill="none" xmlns="http://www.w3.org/2000/svg">
<mask id="mask0_545_11784" style="mask-type:luminance" maskUnits="userSpaceOnUse" x="0" y="0" width="41" height="40">
<path d="M0.179688 3.8147e-06H40.1797V40H0.179688V3.8147e-06Z" fill="white"/>
</mask>
<g mask="url(#mask0_545_11784)">
<path d="M25.5298 28.5737H17.7621C16.9027 28.5737 16.3409 28.0065 15.9839 27.383C15.8534 27.1549 15.6479 27.0197 15.4275 26.9737C15.4275 26.9666 15.4275 26.9604 15.4268 26.9541C15.1822 23.6047 17.198 20.6724 17.2652 20.5755C17.266 20.574 17.2667 20.5733 17.2667 20.5733L24.525 23.1804C24.525 23.1804 23.8726 26.2275 25.5298 28.5737Z" stroke="#888888" stroke-width="1.40625" stroke-miterlimit="10" stroke-linecap="round" stroke-linejoin="round"/>
<path d="M25.1882 16.9821L30.4872 6.2175C31.4808 4.19922 30.4967 1.76555 28.3796 1.005C26.2624 0.244453 23.9547 1.49555 23.4368 3.68477L20.6745 15.3606C17.4448 17.2386 16.3633 20.2493 16.3633 20.2493L25.5481 23.5488C25.5481 23.5488 26.6297 20.5381 25.1882 16.9821Z" stroke="#888888" stroke-width="1.40625" stroke-miterlimit="10" stroke-linecap="round" stroke-linejoin="round"/>
<path d="M20.1066 24.4671C20.1066 24.4671 19.4628 27.079 20.4612 28.5737" stroke="#888888" stroke-width="1.40625" stroke-miterlimit="10" stroke-linecap="round" stroke-linejoin="round"/>
<path d="M20.6758 15.3604L25.1895 16.9819" stroke="#888888" stroke-width="1.40625" stroke-miterlimit="10" stroke-linecap="round" stroke-linejoin="round"/>
<path d="M32.1288 32.2437C30.5868 30.741 28.1085 29.5672 26.1011 28.7939C25.7205 28.6472 25.3157 28.5737 24.9077 28.5737H17.7731C17.7695 28.5737 17.7661 28.5735 17.7625 28.5735C16.9024 28.5735 16.3411 28.0063 15.9838 27.3822C15.627 26.7591 14.7044 26.8279 14.4695 27.5065C14.4184 27.6538 14.377 27.7939 14.3436 27.9255C14.1452 28.7051 13.6056 29.3483 12.8892 29.7143C11.5973 30.3744 10.4079 31.2258 9.36328 32.2437H32.1288Z" stroke="#888888" stroke-width="1.40625" stroke-miterlimit="10" stroke-linecap="round" stroke-linejoin="round"/>
<path d="M23.3757 39.2188H29.5982C33.6338 36.6835 35.4894 32.2438 35.4894 32.2438H4.87109C4.87109 32.2438 6.8707 36.6835 10.7622 39.2188H16.4259" stroke="#888888" stroke-width="1.40625" stroke-miterlimit="10" stroke-linecap="round" stroke-linejoin="round"/>
</g>
</svg>
