<svg width="41" height="40" viewBox="0 0 41 40" fill="none" xmlns="http://www.w3.org/2000/svg">
<path d="M36.7519 14.055C36.7867 13.8071 36.6911 13.5585 36.499 13.3977L31.4731 9.18679V6.18177C31.4731 4.1768 29.8417 2.54541 27.8367 2.54541H13.7973C11.7923 2.54541 10.1609 4.1768 10.1609 6.18177V9.18497L10.1411 9.19882L5.13502 13.3977C4.94255 13.5589 4.84702 13.8078 4.88218 14.0564C4.91733 14.305 5.0782 14.5181 5.3076 14.6196C5.88632 14.8766 6.31016 15.3497 6.81044 15.7762C6.85337 15.8147 6.89638 15.8459 6.93935 15.8827V33.0909C6.93935 35.4971 8.89674 37.4545 11.303 37.4545H30.331C32.7373 37.4545 34.6947 35.4971 34.6947 33.0909V15.883C35.3687 15.3038 35.7781 14.8653 36.3293 14.6186C36.5576 14.5159 36.7174 14.3032 36.7519 14.055ZM11.6155 6.18177C11.6155 4.97866 12.5942 3.99996 13.7973 3.99996H27.8367C29.0399 3.99996 30.0185 4.97866 30.0185 6.18177V8.83731H27.2501V8.29363C27.2501 7.892 26.9244 7.56636 26.5228 7.56636C26.1212 7.56636 25.7955 7.892 25.7955 8.29363V8.83731H21.5455V8.29363C21.5455 7.892 21.2199 7.56636 20.8183 7.56636C20.4166 7.56636 20.091 7.892 20.091 8.29363V8.83731H15.841V8.29363C15.841 7.892 15.5153 7.56636 15.1137 7.56636C14.7121 7.56636 14.3864 7.892 14.3864 8.29363V8.83731H11.6155V6.18177ZM33.2401 16.7446V29.3533H8.3939V16.7446C10.2748 17.3603 11.7094 16.6541 12.9908 15.4776C14.5901 14.0094 15.9439 14.0003 17.5487 15.4758C19.6723 17.4277 21.8956 17.4908 24.086 15.4744C25.6883 13.999 27.0438 14.0114 28.6443 15.4794C30.0018 16.7231 31.3896 17.3497 33.2401 16.7446ZM30.331 36H11.303C9.69894 36 8.3939 34.6949 8.3939 33.0909V30.8078H33.2401V33.0909C33.2401 34.6949 31.9351 36 30.331 36ZM29.6272 14.4073C27.5182 12.4727 25.3004 12.3789 23.1009 14.4041C21.5211 15.8578 20.1582 15.8993 18.5335 14.4051C16.3571 12.4052 14.1444 12.444 12.0072 14.4062C9.65708 16.5637 8.43016 15.1224 6.83708 13.8679L11.0189 10.3561L11.113 10.2919H30.5264L34.798 13.8696C33.8452 14.6182 32.2662 16.8259 29.6272 14.4073Z" fill="#888888"/>
</svg>
