<svg width="95" height="52" viewBox="0 0 95 52" fill="none" xmlns="http://www.w3.org/2000/svg">
<path d="M7.7132 5.45951L16.4829 1.29517M2.99996 11L1.60032 9.43164C1.1417 8.91774 1.32778 8.10489 1.96429 7.84169L3.99996 6.99991M6.28861 14.346L13.3172 21.043M93.3864 50.3135C93.3864 50.3135 84.1168 39.4867 76.2983 35.2345C69.2945 31.4255 58.8965 26.8913 50.0663 24.9366M50.0663 24.9366C40.2406 22.7614 32.3563 23.7801 33.2505 32.5458C34.7274 47.0216 51.5916 50.0188 59.6006 42.7304C65.3327 37.514 58.9339 30.8118 50.0663 24.9366ZM50.0663 24.9366C44.6187 21.3271 38.2393 18.0298 33.1686 15.5806C21.002 9.70414 9.63838 10.0666 9.63838 10.0666" stroke="white" stroke-width="2" stroke-linecap="round"/>
</svg>
