<svg width="19" height="18" viewBox="0 0 19 18" fill="none" xmlns="http://www.w3.org/2000/svg">
<path d="M14.0013 17.4997H4.83464V6.66634L10.668 0.833008L11.7096 1.87467C11.8069 1.9719 11.8867 2.10384 11.9492 2.27051C12.0117 2.43717 12.043 2.5969 12.043 2.74967V3.04134L11.1263 6.66634H16.5013C16.9457 6.66634 17.3346 6.83301 17.668 7.16634C18.0013 7.49967 18.168 7.88856 18.168 8.33301V9.99967C18.168 10.0969 18.1541 10.2011 18.1263 10.3122C18.0985 10.4233 18.0707 10.5275 18.043 10.6247L15.543 16.4997C15.418 16.7775 15.2096 17.0136 14.918 17.208C14.6263 17.4024 14.3207 17.4997 14.0013 17.4997ZM6.5013 15.833H14.0013L16.5013 9.99967V8.33301H9.0013L10.1263 3.74967L6.5013 7.37467V15.833ZM4.83464 6.66634V8.33301H2.33464V15.833H4.83464V17.4997H0.667969V6.66634H4.83464Z" fill="#888888"/>
</svg>
