<svg width="110" height="110" viewBox="0 0 110 110" fill="none" xmlns="http://www.w3.org/2000/svg">
<g clip-path="url(#clip0_2_106117)">
<path d="M91.4422 91.4547C111.576 71.3213 111.576 38.6787 91.4422 18.5453C71.3088 -1.58805 38.6662 -1.58805 18.5328 18.5453C-1.60056 38.6787 -1.60056 71.3213 18.5328 91.4547C38.6662 111.588 71.3088 111.588 91.4422 91.4547Z" fill="#008CFF"/>
<path fill-rule="evenodd" clip-rule="evenodd" d="M103.021 73.8081C95.8574 92.0829 78.5633 105.273 58.0479 106.47L28.7191 77.141C28.6106 77.0482 28.5064 76.9468 28.4067 76.8372C27.7669 76.1364 27.4827 75.2899 27.5701 74.3444L30.6749 40.5649C30.7533 39.706 31.4683 39.0539 32.3311 39.0539H40.093L42.7542 41.7152V41.496L40.093 38.8348V34.0925C40.093 31.4437 41.1762 29.0364 42.9199 27.2921C44.5709 25.641 46.8163 24.5829 49.2982 24.4746H50.1423C52.6241 24.5829 54.869 25.641 56.5206 27.2921C56.6297 27.401 56.736 27.5127 56.8398 27.6268L103.021 73.8081Z" fill="#0359A0"/>
<path fill-rule="evenodd" clip-rule="evenodd" d="M61.2639 72.142L65.5191 76.0498C66.1155 76.5989 67.0382 76.5695 67.5996 75.9914L75.1939 68.721C75.7862 68.1504 75.8049 67.2066 75.2337 66.6136C74.663 66.0207 73.7203 66.002 73.1263 66.5726L66.5093 72.9088L63.2834 69.9465C62.6771 69.3892 61.7331 69.4285 61.1766 70.0344C60.6189 70.6402 60.6576 71.5843 61.2639 72.142ZM50.1421 24.4746H49.2979C46.8161 24.5829 44.5707 25.641 42.9197 27.2921C41.176 29.0362 40.0927 31.4437 40.0927 34.0925V38.8348H42.754V34.0925C42.754 32.1778 43.5384 30.4365 44.801 29.1735C46.0654 27.9102 47.8061 27.1258 49.7201 27.1258C51.6354 27.1258 53.3761 27.9104 54.6387 29.1735C55.9031 30.4365 56.6875 32.1778 56.6875 34.0925V38.8348H59.3475V34.0925C59.3475 31.4437 58.2653 29.0364 56.5206 27.2921C54.8688 25.641 52.6239 24.5829 50.1421 24.4746ZM68.2166 57.0752C76.0728 57.0752 82.4415 63.4438 82.4415 71.2994C82.4415 79.1556 76.0728 85.5242 68.2166 85.5242C60.3611 85.5242 53.9925 79.1556 53.9925 71.2994C53.9925 63.4438 60.3611 57.0752 68.2166 57.0752ZM32.3309 39.0539H40.0927V43.2694C40.0927 44.0041 40.6891 44.5999 41.4239 44.5999C42.1587 44.5999 42.754 44.0041 42.754 43.2694V39.0539H56.6875V43.2694C56.6875 44.0041 57.2828 44.5999 58.0176 44.5999C58.7523 44.5999 59.3475 44.0041 59.3475 43.2694V39.0539H67.1104C67.9734 39.0539 68.6872 39.706 68.7669 40.5649L70.0183 54.1804C69.4254 54.1183 68.8255 54.0865 68.2166 54.0865C58.71 54.0865 51.0038 61.7928 51.0038 71.2994C51.0038 73.6377 51.4709 75.8663 52.315 77.8994H30.813C29.8627 77.8994 29.0459 77.5384 28.4067 76.8372C27.7669 76.1364 27.4827 75.2899 27.5701 74.3444L30.6749 40.5649C30.7531 39.706 31.4681 39.0539 32.3309 39.0539Z" fill="white"/>
</g>
<defs>
<clipPath id="clip0_2_106117">
<rect width="110" height="110" fill="white"/>
</clipPath>
</defs>
</svg>
