<svg width="73" height="29" viewBox="0 0 73 29" fill="none" xmlns="http://www.w3.org/2000/svg">
<path d="M0 3.5H69C71.2091 3.5 73 5.29086 73 7.5V24.5C73 26.7091 71.2091 28.5 69 28.5H4C1.79086 28.5 0 26.7091 0 24.5V3.5Z" fill="#F47C51"/>
<path d="M8.686 10.26H11.626C12.144 10.26 12.627 10.33 13.075 10.47C13.523 10.61 13.8847 10.8433 14.16 11.17C14.44 11.4967 14.58 11.9423 14.58 12.507C14.58 12.885 14.5077 13.2233 14.363 13.522C14.2183 13.8207 14.034 14.0657 13.81 14.257C13.586 14.4437 13.3503 14.5627 13.103 14.614C13.313 14.6373 13.5277 14.7003 13.747 14.803C13.9663 14.9057 14.1693 15.048 14.356 15.23C14.5427 15.412 14.692 15.6407 14.804 15.916C14.9207 16.1913 14.979 16.5133 14.979 16.882C14.979 17.3953 14.867 17.8503 14.643 18.247C14.4237 18.639 14.097 18.947 13.663 19.171C13.2337 19.3903 12.6993 19.5 12.06 19.5H8.686V10.26ZM10.436 18.086H11.703C12.0577 18.086 12.34 18.0277 12.55 17.911C12.7647 17.7943 12.9187 17.6357 13.012 17.435C13.1053 17.2343 13.152 17.0057 13.152 16.749C13.152 16.3383 13.0213 16.0233 12.76 15.804C12.4987 15.5847 12.1277 15.475 11.647 15.475H10.436V18.086ZM10.436 14.089H11.549C11.8383 14.089 12.0763 14.033 12.263 13.921C12.4543 13.8043 12.599 13.6503 12.697 13.459C12.795 13.263 12.844 13.0507 12.844 12.822C12.844 12.3833 12.7157 12.0823 12.459 11.919C12.207 11.7557 11.864 11.674 11.43 11.674H10.436V14.089ZM17.6506 17.022C17.6646 17.2833 17.7346 17.5167 17.8606 17.722C17.9866 17.9273 18.1686 18.0883 18.4066 18.205C18.6493 18.3217 18.9386 18.38 19.2746 18.38C19.5779 18.38 19.8439 18.3427 20.0726 18.268C20.3059 18.1933 20.5019 18.1023 20.6606 17.995C20.8239 17.883 20.9453 17.7757 21.0246 17.673L21.7596 18.765C21.6289 18.9283 21.4539 19.08 21.2346 19.22C21.0199 19.3553 20.7446 19.4627 20.4086 19.542C20.0773 19.626 19.6619 19.668 19.1626 19.668C18.5326 19.668 17.9796 19.5443 17.5036 19.297C17.0276 19.0497 16.6566 18.6927 16.3906 18.226C16.1246 17.7593 15.9916 17.204 15.9916 16.56C15.9916 16 16.1106 15.496 16.3486 15.048C16.5866 14.5953 16.9319 14.2383 17.3846 13.977C17.8419 13.7157 18.3903 13.585 19.0296 13.585C19.6316 13.585 20.1519 13.7017 20.5906 13.935C21.0339 14.1637 21.3769 14.4997 21.6196 14.943C21.8623 15.3863 21.9836 15.9277 21.9836 16.567C21.9836 16.6043 21.9813 16.6813 21.9766 16.798C21.9766 16.91 21.9719 16.9847 21.9626 17.022H17.6506ZM20.3176 15.923C20.3129 15.7737 20.2663 15.6127 20.1776 15.44C20.0936 15.2673 19.9606 15.1203 19.7786 14.999C19.5966 14.8777 19.3539 14.817 19.0506 14.817C18.7473 14.817 18.4976 14.8753 18.3016 14.992C18.1103 15.1087 17.9656 15.2533 17.8676 15.426C17.7696 15.594 17.7136 15.7597 17.6996 15.923H20.3176ZM25.5922 13.585C25.9375 13.585 26.2572 13.6177 26.5512 13.683C26.8452 13.7437 27.0925 13.8137 27.2932 13.893C27.4985 13.9723 27.6339 14.04 27.6992 14.096L27.0902 15.167C26.9969 15.0923 26.8289 15.0037 26.5862 14.901C26.3482 14.7983 26.0822 14.747 25.7882 14.747C25.5222 14.747 25.2982 14.7937 25.1162 14.887C24.9342 14.9757 24.8432 15.111 24.8432 15.293C24.8432 15.475 24.9412 15.6197 25.1372 15.727C25.3332 15.8343 25.6062 15.9277 25.9562 16.007C26.2502 16.0677 26.5395 16.161 26.8242 16.287C27.1089 16.4083 27.3445 16.5857 27.5312 16.819C27.7179 17.0477 27.8112 17.3533 27.8112 17.736C27.8112 18.114 27.7295 18.429 27.5662 18.681C27.4075 18.9283 27.1952 19.1243 26.9292 19.269C26.6632 19.4137 26.3715 19.5163 26.0542 19.577C25.7369 19.6377 25.4219 19.668 25.1092 19.668C24.7032 19.668 24.3462 19.6283 24.0382 19.549C23.7302 19.4743 23.4759 19.388 23.2752 19.29C23.0792 19.1873 22.9392 19.101 22.8552 19.031L23.4642 17.841C23.5855 17.9483 23.7839 18.0673 24.0592 18.198C24.3392 18.324 24.6402 18.387 24.9622 18.387C25.2982 18.387 25.5619 18.3287 25.7532 18.212C25.9492 18.0953 26.0472 17.939 26.0472 17.743C26.0472 17.5983 26.0005 17.4817 25.9072 17.393C25.8139 17.2997 25.6855 17.2227 25.5222 17.162C25.3589 17.1013 25.1675 17.0477 24.9482 17.001C24.7475 16.959 24.5422 16.8983 24.3322 16.819C24.1222 16.735 23.9262 16.6253 23.7442 16.49C23.5622 16.3547 23.4152 16.1867 23.3032 15.986C23.1912 15.7807 23.1352 15.5357 23.1352 15.251C23.1352 14.887 23.2519 14.5837 23.4852 14.341C23.7185 14.0937 24.0219 13.907 24.3952 13.781C24.7685 13.6503 25.1675 13.585 25.5922 13.585ZM28.4704 13.753H29.5064V11.394H31.2704V13.753H32.6284V15.23H31.2704V17.309C31.2704 17.5843 31.3147 17.799 31.4034 17.953C31.4921 18.1023 31.6321 18.177 31.8234 18.177C31.9681 18.177 32.0871 18.149 32.1804 18.093C32.2737 18.0323 32.3297 17.9903 32.3484 17.967L32.9784 19.241C32.9504 19.269 32.8594 19.318 32.7054 19.388C32.5561 19.458 32.3624 19.521 32.1244 19.577C31.8911 19.6377 31.6274 19.668 31.3334 19.668C30.8061 19.668 30.3697 19.5163 30.0244 19.213C29.6791 18.905 29.5064 18.429 29.5064 17.785V15.23H28.4704V13.753ZM36.2836 13.585C36.6289 13.585 36.9486 13.6177 37.2426 13.683C37.5366 13.7437 37.7839 13.8137 37.9846 13.893C38.1899 13.9723 38.3253 14.04 38.3906 14.096L37.7816 15.167C37.6883 15.0923 37.5203 15.0037 37.2776 14.901C37.0396 14.7983 36.7736 14.747 36.4796 14.747C36.2136 14.747 35.9896 14.7937 35.8076 14.887C35.6256 14.9757 35.5346 15.111 35.5346 15.293C35.5346 15.475 35.6326 15.6197 35.8286 15.727C36.0246 15.8343 36.2976 15.9277 36.6476 16.007C36.9416 16.0677 37.2309 16.161 37.5156 16.287C37.8003 16.4083 38.0359 16.5857 38.2226 16.819C38.4093 17.0477 38.5026 17.3533 38.5026 17.736C38.5026 18.114 38.4209 18.429 38.2576 18.681C38.0989 18.9283 37.8866 19.1243 37.6206 19.269C37.3546 19.4137 37.0629 19.5163 36.7456 19.577C36.4283 19.6377 36.1133 19.668 35.8006 19.668C35.3946 19.668 35.0376 19.6283 34.7296 19.549C34.4216 19.4743 34.1673 19.388 33.9666 19.29C33.7706 19.1873 33.6306 19.101 33.5466 19.031L34.1556 17.841C34.2769 17.9483 34.4753 18.0673 34.7506 18.198C35.0306 18.324 35.3316 18.387 35.6536 18.387C35.9896 18.387 36.2533 18.3287 36.4446 18.212C36.6406 18.0953 36.7386 17.939 36.7386 17.743C36.7386 17.5983 36.6919 17.4817 36.5986 17.393C36.5053 17.2997 36.3769 17.2227 36.2136 17.162C36.0503 17.1013 35.8589 17.0477 35.6396 17.001C35.4389 16.959 35.2336 16.8983 35.0236 16.819C34.8136 16.735 34.6176 16.6253 34.4356 16.49C34.2536 16.3547 34.1066 16.1867 33.9946 15.986C33.8826 15.7807 33.8266 15.5357 33.8266 15.251C33.8266 14.887 33.9433 14.5837 34.1766 14.341C34.4099 14.0937 34.7133 13.907 35.0866 13.781C35.4599 13.6503 35.8589 13.585 36.2836 13.585ZM41.0705 17.022C41.0845 17.2833 41.1545 17.5167 41.2805 17.722C41.4065 17.9273 41.5885 18.0883 41.8265 18.205C42.0692 18.3217 42.3585 18.38 42.6945 18.38C42.9978 18.38 43.2638 18.3427 43.4925 18.268C43.7258 18.1933 43.9218 18.1023 44.0805 17.995C44.2438 17.883 44.3652 17.7757 44.4445 17.673L45.1795 18.765C45.0488 18.9283 44.8738 19.08 44.6545 19.22C44.4398 19.3553 44.1645 19.4627 43.8285 19.542C43.4972 19.626 43.0818 19.668 42.5825 19.668C41.9525 19.668 41.3995 19.5443 40.9235 19.297C40.4475 19.0497 40.0765 18.6927 39.8105 18.226C39.5445 17.7593 39.4115 17.204 39.4115 16.56C39.4115 16 39.5305 15.496 39.7685 15.048C40.0065 14.5953 40.3518 14.2383 40.8045 13.977C41.2618 13.7157 41.8102 13.585 42.4495 13.585C43.0515 13.585 43.5718 13.7017 44.0105 13.935C44.4538 14.1637 44.7968 14.4997 45.0395 14.943C45.2822 15.3863 45.4035 15.9277 45.4035 16.567C45.4035 16.6043 45.4012 16.6813 45.3965 16.798C45.3965 16.91 45.3918 16.9847 45.3825 17.022H41.0705ZM43.7375 15.923C43.7328 15.7737 43.6862 15.6127 43.5975 15.44C43.5135 15.2673 43.3805 15.1203 43.1985 14.999C43.0165 14.8777 42.7738 14.817 42.4705 14.817C42.1672 14.817 41.9175 14.8753 41.7215 14.992C41.5302 15.1087 41.3855 15.2533 41.2875 15.426C41.1895 15.594 41.1335 15.7597 41.1195 15.923H43.7375ZM48.3961 19.5H46.6111V9.868H48.3961V19.5ZM51.7047 19.5H49.9197V9.868H51.7047V19.5ZM54.5373 17.022C54.5513 17.2833 54.6213 17.5167 54.7473 17.722C54.8733 17.9273 55.0553 18.0883 55.2933 18.205C55.536 18.3217 55.8253 18.38 56.1613 18.38C56.4646 18.38 56.7306 18.3427 56.9593 18.268C57.1926 18.1933 57.3886 18.1023 57.5473 17.995C57.7106 17.883 57.832 17.7757 57.9113 17.673L58.6463 18.765C58.5156 18.9283 58.3406 19.08 58.1213 19.22C57.9066 19.3553 57.6313 19.4627 57.2953 19.542C56.964 19.626 56.5486 19.668 56.0493 19.668C55.4193 19.668 54.8663 19.5443 54.3903 19.297C53.9143 19.0497 53.5433 18.6927 53.2773 18.226C53.0113 17.7593 52.8783 17.204 52.8783 16.56C52.8783 16 52.9973 15.496 53.2353 15.048C53.4733 14.5953 53.8186 14.2383 54.2713 13.977C54.7286 13.7157 55.277 13.585 55.9163 13.585C56.5183 13.585 57.0386 13.7017 57.4773 13.935C57.9206 14.1637 58.2636 14.4997 58.5063 14.943C58.749 15.3863 58.8703 15.9277 58.8703 16.567C58.8703 16.6043 58.868 16.6813 58.8633 16.798C58.8633 16.91 58.8586 16.9847 58.8493 17.022H54.5373ZM57.2043 15.923C57.1996 15.7737 57.153 15.6127 57.0643 15.44C56.9803 15.2673 56.8473 15.1203 56.6653 14.999C56.4833 14.8777 56.2406 14.817 55.9373 14.817C55.634 14.817 55.3843 14.8753 55.1883 14.992C54.997 15.1087 54.8523 15.2533 54.7543 15.426C54.6563 15.594 54.6003 15.7597 54.5863 15.923H57.2043ZM61.7229 19.5H59.9449V13.753H61.7229V14.684H61.6879C61.7206 14.572 61.8093 14.4297 61.9539 14.257C62.1033 14.0843 62.3086 13.9303 62.5699 13.795C62.8313 13.655 63.1463 13.585 63.5149 13.585C63.7809 13.585 64.0213 13.6247 64.2359 13.704C64.4553 13.7787 64.6116 13.8533 64.7049 13.928L64.0049 15.384C63.9443 15.3093 63.8299 15.2323 63.6619 15.153C63.4986 15.0737 63.2933 15.034 63.0459 15.034C62.7519 15.034 62.5069 15.1157 62.3109 15.279C62.1149 15.4377 61.9679 15.6337 61.8699 15.867C61.7719 16.0957 61.7229 16.3103 61.7229 16.511V19.5Z" fill="white"/>
<path d="M6 0L0 3.5H6V0Z" fill="#A4350F"/>
</svg>
