<svg width="40" height="20" viewBox="0 0 40 20" fill="none" xmlns="http://www.w3.org/2000/svg">
<path fill-rule="evenodd" clip-rule="evenodd" d="M36.2813 6.49547L34.5983 8.06124L34.543 8.01892C34.7351 7.30602 34.9271 6.58987 35.1224 5.87697C35.6107 4.10287 36.0989 2.33202 36.5906 0.55792C36.5906 0.55141 36.5906 0.5449 36.5906 0.541644C36.5906 0.453752 36.6361 0.372372 36.7142 0.330054C36.8314 0.310522 36.8281 0.443987 36.8705 0.518858C37.1212 0.981101 37.3099 1.47264 37.6029 1.9121C37.8796 2.58267 38.2019 3.25 38.5502 3.88477C38.5925 3.94988 38.6186 4.02475 38.6186 4.10287C38.6186 4.23633 38.5502 4.36329 38.4362 4.43491C37.7038 5.11525 36.9942 5.80861 36.2813 6.49547Z" fill="#F07A25"/>
<path fill-rule="evenodd" clip-rule="evenodd" d="M36.2806 6.49549C36.9968 5.80864 37.7064 5.11528 38.4323 4.43818C38.5463 4.36657 38.6146 4.23962 38.6146 4.10615C38.6146 4.02802 38.5918 3.9499 38.5463 3.88805C38.1947 3.25328 37.8756 2.58596 37.599 1.91538L38.1003 0.232422C38.3087 0.632816 38.4812 0.961595 38.6472 1.29363C39.0671 2.13022 39.4773 2.97333 39.9135 3.80342C39.9721 3.88479 40.0013 3.98246 40.0013 4.08337C40.0013 4.24938 39.9167 4.40563 39.7735 4.49353C38.5821 5.59705 37.4135 6.72662 36.2383 7.84641C36.1634 7.94408 36.0625 8.01895 35.9453 8.05801C36.0951 7.54694 36.209 7.02284 36.2806 6.49549Z" fill="#0C8D48"/>
<path fill-rule="evenodd" clip-rule="evenodd" d="M9.88749 4.18818C10.1348 4.30211 10.2943 4.54951 10.2943 4.8197C10.2943 4.93038 10.2683 5.04105 10.2162 5.13871C10.0209 5.77348 9.8614 6.41476 9.68565 7.05604C9.63681 7.66151 9.12896 8.12702 8.52351 8.12702C8.45518 8.12702 8.38676 8.12051 8.31843 8.10748C5.62635 8.10748 2.93753 8.11074 0.24545 8.11399C0.0338598 8.11399 -0.0442659 8.09447 0.024094 7.85683C0.717458 5.40238 1.40106 2.94468 2.0814 0.486981C2.09768 0.340495 2.22137 0.226562 2.36786 0.226562C2.38088 0.226562 2.39716 0.226562 2.41018 0.229818C5.18039 0.236328 7.95385 0.233073 10.724 0.239583C10.7631 0.233073 10.8022 0.226562 10.8413 0.226562C11.1505 0.226562 11.3979 0.477215 11.3979 0.783208C11.3979 0.861333 11.3816 0.936204 11.349 1.00782C11.1407 1.82814 10.9129 2.64194 10.6752 3.45575C10.5483 3.81383 10.2553 4.08727 9.88749 4.18818ZM27.7981 19.7384H26.2226L28.4101 11.8412H29.9824L27.7981 19.7384ZM14.7183 19.2436C14.6336 19.5561 14.3439 19.7742 14.0217 19.7742H5.90958C5.68822 19.7742 5.52221 19.6994 5.41479 19.5496C5.30736 19.3998 5.28132 19.2111 5.34643 18.9897L7.32561 11.8607H8.90111L7.13355 18.228H13.4291L15.1968 11.8607H16.769L14.7183 19.2436ZM26.9807 12.0886C26.8733 11.9389 26.704 11.864 26.4762 11.864H17.827L17.4005 13.4135H25.2684L24.8094 15.0672H18.5138V15.0639H16.9416L15.6362 19.7774H17.2085L18.0842 16.6166H25.1578C25.3791 16.6166 25.5875 16.5418 25.7828 16.3921C25.9781 16.2423 26.1051 16.0535 26.1669 15.8321L27.0425 12.6713C27.1077 12.4304 27.0881 12.2384 26.9807 12.0886ZM16.4338 3.40693C17.3387 3.40693 18.2437 3.39065 19.1486 3.41669C19.1682 3.41669 19.1877 3.41995 19.2072 3.41995C19.4351 3.41995 19.6206 3.24417 19.6369 3.01955C19.8485 2.21225 20.0764 1.40821 20.2749 0.597659C20.2815 0.389324 20.4507 0.226562 20.6558 0.226562C20.6851 0.226562 20.7112 0.229818 20.7404 0.236328C20.8902 0.246094 21.0399 0.252604 21.1929 0.252604C21.3394 0.252604 21.4891 0.246094 21.6356 0.236328C21.8766 0.223307 21.9319 0.294922 21.8635 0.532554C21.5217 1.7435 21.1962 2.96096 20.8642 4.17191C20.5452 5.34054 20.2196 6.50917 19.9104 7.68105C19.9038 7.92519 19.7053 8.12051 19.4611 8.12051C19.4253 8.12051 19.3895 8.11725 19.3537 8.10748C19.2039 8.09447 19.0542 8.08795 18.9045 8.08795C18.7678 8.08795 18.631 8.09447 18.4943 8.10423C18.2632 8.11399 18.2274 8.03912 18.2892 7.82428C18.5367 6.97792 18.758 6.12504 19.0021 5.27868C19.0738 5.03129 19.0412 4.93038 18.7483 4.93363C16.9058 4.94665 15.06 4.94665 13.2176 4.93689C13.198 4.93363 13.1785 4.93363 13.159 4.93363C12.9572 4.93363 12.7912 5.08989 12.7814 5.29171C12.5665 6.14458 12.3159 6.99094 12.0912 7.84056C12.0782 7.9968 11.9481 8.11399 11.7918 8.11399C11.7723 8.11399 11.7527 8.11074 11.7332 8.10748C11.577 8.09772 11.4142 8.09447 11.258 8.09447C11.0952 8.09447 10.9324 8.10097 10.7729 8.11074C10.4376 8.13353 10.4929 7.961 10.5516 7.75266C10.9129 6.44081 11.2742 5.12569 11.6323 3.81383C11.9351 2.71031 12.2377 1.60678 12.534 0.503256C12.5438 0.353515 12.6674 0.236327 12.8172 0.236327C12.8302 0.236327 12.8465 0.236327 12.8595 0.239582C13.2013 0.255859 13.5464 0.255859 13.8881 0.239582C14.1258 0.229817 14.1518 0.317708 14.0932 0.526043C13.8491 1.39519 13.6245 2.27085 13.3739 3.14C13.3055 3.37112 13.364 3.41669 13.5822 3.41343C14.5327 3.40042 15.4832 3.40693 16.4338 3.40693ZM23.7647 0.262371C23.8786 0.262371 23.9926 0.262371 24.1065 0.262371C24.5623 0.262371 24.5655 0.262371 24.4483 0.682296C23.8102 2.99351 23.1722 5.30799 22.5309 7.6192C22.3877 8.13678 22.3812 8.13678 21.8506 8.13678C21.6 8.13678 21.346 8.13028 21.0954 8.14003C20.8708 8.1498 20.8252 8.07493 20.8871 7.85358C21.4958 5.68559 22.0947 3.51435 22.6938 1.34311C22.7686 1.11524 22.8304 0.88412 22.876 0.649744C22.876 0.643233 22.876 0.639978 22.876 0.633467C22.876 0.415367 23.0518 0.242839 23.2699 0.242839C23.309 0.242839 23.3513 0.24935 23.3871 0.262371C23.4555 0.268881 23.527 0.268881 23.5987 0.268881C23.6507 0.265626 23.7094 0.265626 23.7647 0.262371ZM32.5799 4.48767C32.3162 4.72205 32.0526 4.94991 31.7954 5.18754C30.809 6.0925 29.8292 7.00396 28.8461 7.91543C28.6833 8.06842 28.5987 8.09447 28.4717 7.86986C27.7459 6.59706 27.0069 5.33403 26.2712 4.06774C26.2485 4.03519 26.2192 4.00263 26.1899 3.9766C26.0791 4.11657 26.0076 4.28909 25.9913 4.46814C25.682 5.5684 25.3825 6.67192 25.0896 7.77871C25.0831 7.96751 24.9301 8.114 24.7413 8.114C24.7185 8.114 24.6957 8.11074 24.6729 8.10749C24.3442 8.08145 24.0089 8.09772 23.6768 8.10423C23.5238 8.10749 23.4392 8.0847 23.4945 7.88938C24.1847 5.39913 24.8715 2.90562 25.5551 0.412113C25.5714 0.386071 25.5909 0.36003 25.6137 0.337243C25.7471 0.457687 25.8546 0.604173 25.9295 0.766934C26.8604 2.31642 27.7882 3.86592 28.7159 5.41867C28.9243 5.76697 28.9178 5.76046 29.2303 5.49354C30.9099 4.06123 32.5897 2.62893 34.2759 1.20314C34.6144 0.916675 34.9497 0.62696 35.3175 0.314457C35.324 0.353519 35.3273 0.395838 35.3273 0.438155C35.3273 0.56511 35.2948 0.692064 35.2362 0.802742C34.5982 3.14326 33.9504 5.48051 33.3156 7.81777C33.3058 7.98379 33.1659 8.114 32.9998 8.114C32.9803 8.114 32.9608 8.11074 32.9445 8.10749C32.7818 8.09772 32.6157 8.09447 32.4529 8.09447C32.2966 8.09447 32.1371 8.09772 31.9809 8.10749C31.7075 8.12377 31.6847 8.02285 31.753 7.78522C32.0428 6.76308 32.3195 5.73442 32.5994 4.70902C32.6157 4.67973 32.6255 4.64718 32.6255 4.61462C32.6255 4.56579 32.6092 4.52022 32.5799 4.48767ZM3.59867 1.77603C5.35324 1.79882 7.10131 1.77278 8.85261 1.77278C9.16187 1.77278 9.41255 2.02343 9.41255 2.33267C9.41255 2.4108 9.39622 2.48892 9.36372 2.5638C9.27579 3.05208 8.84936 3.41016 8.35134 3.41016C6.61953 3.4069 4.88449 3.4069 3.14945 3.41667C2.86299 3.41667 2.85322 3.30274 2.92484 3.08138C3.03877 2.75586 3.13318 2.42708 3.20479 2.09179C3.20805 1.91275 3.35453 1.77278 3.53357 1.77278C3.55635 1.76952 3.57589 1.77278 3.59867 1.77603ZM2.6413 4.93684C4.38285 4.93684 6.12766 4.9401 7.87246 4.9466C8.47143 4.94985 8.70902 5.49999 8.35751 6.0664C8.16869 6.38541 7.82689 6.58073 7.4558 6.58073C5.74679 6.58073 4.04106 6.5612 2.33205 6.58399C2.06838 6.58724 1.94468 6.55144 2.05211 6.24544C2.17255 5.90038 2.25718 5.54231 2.34508 5.19075C2.36786 5.04426 2.49482 4.93684 2.6413 4.93684Z" fill="#66686C"/>
<path fill-rule="evenodd" clip-rule="evenodd" d="M32.7012 11.8535L34.6901 15.8119L30.5039 19.7703L31.0019 17.9767L33.2904 15.8119L32.2031 13.6472L32.7012 11.8535Z" fill="#0E8635"/>
<path fill-rule="evenodd" clip-rule="evenodd" d="M31.3027 11.8535L33.2917 15.8119L29.1055 19.7703L31.3027 11.8535Z" fill="#E97208"/>
</svg>
