<svg width="41" height="40" viewBox="0 0 41 40" fill="none" xmlns="http://www.w3.org/2000/svg">
<g clip-path="url(#clip0_545_11671)">
<path d="M40.2221 14.2752L38.0429 11.9252C35.6689 9.35702 32.5104 7.64484 29.0596 7.05547C25.6088 6.4661 22.0597 7.03267 18.9652 8.66686L0.805808 18.2669C0.671235 18.3384 0.55885 18.4453 0.480844 18.576C0.402838 18.7068 0.362188 18.8564 0.363304 19.0085V22.3419C0.363304 22.5629 0.451267 22.7748 0.607844 22.9311C0.764421 23.0874 0.976784 23.1752 1.19822 23.1752C1.86252 23.1752 2.49961 23.4386 2.96934 23.9074C3.43907 24.3763 3.70296 25.0122 3.70296 25.6752C3.70296 26.3382 3.43907 26.9741 2.96934 27.443C2.49961 27.9118 1.86252 28.1752 1.19822 28.1752C0.976784 28.1752 0.764421 28.263 0.607844 28.4193C0.451267 28.5756 0.363304 28.7875 0.363304 29.0085V30.6752C0.363304 31.3382 0.627195 31.9741 1.09693 32.443C1.56666 32.9118 2.20375 33.1752 2.86804 33.1752H27.0805C27.302 33.1752 27.5143 33.0874 27.6709 32.9311C27.8275 32.7748 27.9154 32.5629 27.9154 32.3419C27.9154 31.6788 28.1793 31.0429 28.6491 30.5741C29.1188 30.1053 29.7559 29.8419 30.4202 29.8419C31.0845 29.8419 31.7216 30.1053 32.1913 30.5741C32.661 31.0429 32.9249 31.6788 32.9249 32.3419C32.9249 32.5629 33.0129 32.7748 33.1695 32.9311C33.326 33.0874 33.5384 33.1752 33.7598 33.1752H37.9344C38.5987 33.1752 39.2358 32.9118 39.7055 32.443C40.1753 31.9741 40.4391 31.3382 40.4391 30.6752V14.8419C40.4407 14.6325 40.3632 14.4301 40.2221 14.2752ZM19.75 10.1085C22.5185 8.64442 25.6945 8.13576 28.783 8.66184C31.8714 9.18791 34.6987 10.7192 36.824 13.0169L37.8676 14.1669L5.37278 17.7252L19.75 10.1085ZM37.9344 31.5085H34.5113C34.3196 30.5666 33.8077 29.7198 33.0621 29.1115C32.3165 28.5033 31.3831 28.171 30.4202 28.171C29.4572 28.171 28.5239 28.5033 27.7783 29.1115C27.0327 29.7198 26.5207 30.5666 26.3291 31.5085H2.86804C2.64661 31.5085 2.43425 31.4207 2.27767 31.2645C2.12109 31.1082 2.03313 30.8962 2.03313 30.6752V29.7502C2.97238 29.555 3.8156 29.0428 4.42091 28.2999C5.02621 27.557 5.35667 26.6286 5.35667 25.671C5.35667 24.7134 5.02621 23.7851 4.42091 23.0422C3.8156 22.2992 2.97238 21.7871 2.03313 21.5919V19.7669L38.7693 15.7669V30.6752C38.7693 30.8962 38.6814 31.1082 38.5248 31.2645C38.3682 31.4207 38.1558 31.5085 37.9344 31.5085Z" fill="#888888"/>
<path d="M19.5652 19.0083C18.7395 19.0083 17.9324 19.2527 17.2459 19.7105C16.5594 20.1684 16.0244 20.8191 15.7084 21.5805C15.3924 22.3418 15.3098 23.1796 15.4708 23.9878C15.6319 24.7961 16.0295 25.5385 16.6133 26.1212C17.1972 26.704 17.941 27.1008 18.7508 27.2616C19.5606 27.4223 20.3999 27.3398 21.1627 27.0245C21.9255 26.7091 22.5775 26.175 23.0362 25.4898C23.4949 24.8046 23.7398 23.9991 23.7398 23.175C23.7398 22.0699 23.2999 21.0101 22.5171 20.2287C21.7342 19.4473 20.6724 19.0083 19.5652 19.0083ZM19.5652 25.675C19.0698 25.675 18.5855 25.5283 18.1736 25.2536C17.7617 24.9789 17.4407 24.5885 17.2511 24.1317C17.0615 23.6749 17.0119 23.1722 17.1086 22.6872C17.2052 22.2023 17.4438 21.7568 17.7941 21.4072C18.1444 21.0576 18.5907 20.8195 19.0765 20.723C19.5624 20.6265 20.066 20.676 20.5237 20.8653C20.9814 21.0545 21.3726 21.3749 21.6478 21.786C21.923 22.1972 22.0699 22.6805 22.0699 23.175C22.0699 23.838 21.806 24.4739 21.3363 24.9427C20.8666 25.4116 20.2295 25.675 19.5652 25.675Z" fill="#888888"/>
<path d="M34.2606 17.3418C33.6991 17.3418 33.1503 17.508 32.6835 17.8193C32.2167 18.1306 31.8528 18.5731 31.638 19.0909C31.4231 19.6086 31.3669 20.1783 31.4764 20.7279C31.586 21.2775 31.8563 21.7824 32.2533 22.1786C32.6503 22.5748 33.1561 22.8447 33.7068 22.954C34.2574 23.0633 34.8282 23.0072 35.3469 22.7928C35.8656 22.5783 36.309 22.2152 36.6209 21.7492C36.9328 21.2833 37.0993 20.7355 37.0993 20.1751C37.0993 19.4237 36.8002 18.703 36.2678 18.1717C35.7355 17.6403 35.0135 17.3418 34.2606 17.3418ZM34.2606 21.3418C34.0294 21.3418 33.8034 21.2734 33.6112 21.1452C33.419 21.017 33.2691 20.8348 33.1807 20.6216C33.0922 20.4084 33.0691 20.1738 33.1142 19.9475C33.1593 19.7212 33.2706 19.5133 33.4341 19.3502C33.5975 19.187 33.8058 19.0759 34.0325 19.0309C34.2593 18.9859 34.4943 19.009 34.7079 19.0973C34.9215 19.1856 35.104 19.3351 35.2325 19.527C35.3609 19.7188 35.4295 19.9444 35.4295 20.1751C35.4295 20.4845 35.3063 20.7813 35.0871 21.0001C34.8679 21.2189 34.5706 21.3418 34.2606 21.3418Z" fill="#888888"/>
<path d="M10.8817 24.0083C10.3202 24.0083 9.7714 24.1745 9.30458 24.4858C8.83775 24.7971 8.47391 25.2396 8.25905 25.7574C8.0442 26.2751 7.98798 26.8448 8.09751 27.3944C8.20705 27.944 8.47741 28.4489 8.87441 28.8451C9.27141 29.2414 9.77722 29.5112 10.3279 29.6205C10.8785 29.7299 11.4493 29.6737 11.968 29.4593C12.4867 29.2448 12.9301 28.8817 13.242 28.4157C13.5539 27.9498 13.7204 27.402 13.7204 26.8416C13.7204 26.0902 13.4213 25.3695 12.8889 24.8382C12.3566 24.3068 11.6345 24.0083 10.8817 24.0083ZM10.8817 28.0083C10.6505 28.0083 10.4245 27.9399 10.2323 27.8117C10.0401 27.6835 9.89024 27.5013 9.80177 27.2881C9.7133 27.0749 9.69016 26.8403 9.73526 26.614C9.78036 26.3877 9.89168 26.1798 10.0552 26.0167C10.2186 25.8535 10.4269 25.7424 10.6536 25.6974C10.8804 25.6524 11.1154 25.6755 11.329 25.7638C11.5426 25.8521 11.7251 26.0016 11.8536 26.1935C11.982 26.3853 12.0506 26.6109 12.0506 26.8416C12.0506 27.1511 11.9274 27.4478 11.7082 27.6666C11.489 27.8854 11.1917 28.0083 10.8817 28.0083Z" fill="#888888"/>
</g>
<defs>
<clipPath id="clip0_545_11671">
<rect width="40.0759" height="40" fill="white" transform="translate(0.363281)"/>
</clipPath>
</defs>
</svg>
