<svg width="41" height="40" viewBox="0 0 41 40" fill="none" xmlns="http://www.w3.org/2000/svg">
<g clip-path="url(#clip0_545_11828)">
<path d="M27.068 18.1973L12.4844 32.7808" stroke="#888888" stroke-width="2" stroke-miterlimit="10" stroke-linecap="round" stroke-linejoin="round"/>
<path d="M7.85547 28.1509L22.4392 13.5671" stroke="#888888" stroke-width="2" stroke-miterlimit="10" stroke-linecap="round" stroke-linejoin="round"/>
<mask id="mask0_545_11828" style="mask-type:luminance" maskUnits="userSpaceOnUse" x="0" y="0" width="41" height="40">
<path d="M0.636719 0H40.6367V40H0.636719V0Z" fill="white"/>
</mask>
<g mask="url(#mask0_545_11828)">
<path d="M35.1718 5.46556C31.3365 1.63032 26.6728 0.0755569 24.7551 1.99329C23.9879 2.76024 23.9879 4.00392 24.7551 4.77103L35.8661 15.8824C36.6331 16.6492 37.8769 16.6494 38.6439 15.8822C40.5616 13.9645 39.0071 9.3011 35.1718 5.46556Z" stroke="#888888" stroke-width="2" stroke-miterlimit="10" stroke-linecap="round" stroke-linejoin="round"/>
<path d="M24.7546 4.77109L18.2731 8.47476L2.76348 23.9844C1.49027 25.2575 1.49027 27.3409 2.76363 28.6138L12.0229 37.8733C13.2961 39.1464 15.3794 39.1464 16.6526 37.8733L32.1619 22.3638L35.8656 15.8824" stroke="#888888" stroke-width="2" stroke-miterlimit="10" stroke-linecap="round" stroke-linejoin="round"/>
</g>
</g>
<defs>
<clipPath id="clip0_545_11828">
<rect width="40" height="40" fill="white" transform="translate(0.636719)"/>
</clipPath>
</defs>
</svg>
