<svg width="20" height="18" viewBox="0 0 20 18" fill="none" xmlns="http://www.w3.org/2000/svg">
<path d="M4.03444 2.11066L4.03443 2.11067C3.73992 2.35978 3.55922 2.70868 3.52571 3.09275L3.28032 5.39496H2.35193C1.55125 5.39496 0.9 6.04621 0.9 6.84689V14.7817C0.9 15.5824 1.55125 16.2336 2.35193 16.2336H15.0719C15.8726 16.2336 16.5238 15.5824 16.5238 14.7817V13.6032L16.8669 13.6319L16.8669 13.6319C16.9077 13.6353 16.9483 13.637 16.9887 13.637C17.7352 13.637 18.3714 13.0629 18.4346 12.3058L19.0949 4.3985C19.1271 4.01218 19.0068 3.63594 18.7565 3.33997L18.6801 3.40455L18.7565 3.33996C18.5061 3.04402 18.155 2.86301 17.7687 2.83074L5.09293 1.77233C4.70657 1.74007 4.33041 1.86036 4.03444 2.11066ZM16.9421 12.7319L16.942 12.7319L16.5238 12.6969V6.84689C16.5238 6.04621 15.8726 5.39496 15.0719 5.39496H4.18858L4.42426 3.18385L4.42427 3.18373L4.4252 3.17356L4.42521 3.17356C4.45039 2.87204 4.71623 2.64707 5.01776 2.67233L5.01779 2.67234L17.6936 3.73075L17.7019 3.63109L17.6936 3.73075C17.8399 3.74295 17.9722 3.81116 18.067 3.92323C18.1617 4.03532 18.2071 4.17705 18.1949 4.32333L17.5346 12.2306C17.5094 12.5321 17.2434 12.7571 16.9421 12.7319ZM2.35193 6.29809H15.0719C15.3744 6.29809 15.6207 6.54438 15.6207 6.84689V7.46991H1.80312V6.84689C1.80312 6.54437 2.04941 6.29809 2.35193 6.29809ZM1.80312 8.37303H15.6207V9.63163H1.80312V8.37303ZM15.0719 15.3305H2.35193C2.04941 15.3305 1.80312 15.0842 1.80312 14.7817V10.5347H15.6207V14.7817C15.6207 15.0842 15.3744 15.3305 15.0719 15.3305Z" fill="#888888" stroke="#888888" stroke-width="0.2"/>
<path d="M14.2468 11.3805H10.8633C10.6139 11.3805 10.4117 11.5826 10.4117 11.832V14.0395C10.4117 14.2889 10.6139 14.491 10.8633 14.491H14.2468C14.4962 14.491 14.6984 14.2889 14.6984 14.0395V11.832C14.6984 11.5826 14.4962 11.3805 14.2468 11.3805ZM13.7952 13.5879H11.3148V12.2836H13.7952V13.5879Z" fill="#888888" stroke="#888888" stroke-width="0.2"/>
</svg>
