<svg width="40" height="40" viewBox="0 0 40 40" fill="none" xmlns="http://www.w3.org/2000/svg">
<path d="M15.7673 26.9027C15.7607 26.8702 15.751 26.8382 15.7383 26.8072C15.7256 26.7768 15.7099 26.7473 15.6916 26.7199C15.6733 26.692 15.652 26.6661 15.6286 26.6427C15.6053 26.6193 15.5794 26.598 15.5514 26.5797C15.524 26.5614 15.4946 26.5457 15.4636 26.533C15.4331 26.5203 15.4011 26.5101 15.3686 26.504C15.3031 26.4908 15.2356 26.4908 15.1705 26.504C15.138 26.5101 15.106 26.5203 15.0751 26.533C15.0446 26.5457 15.0151 26.5614 14.9877 26.5797C14.9598 26.598 14.9339 26.6193 14.9105 26.6427C14.8872 26.6661 14.8658 26.692 14.8475 26.7199C14.8288 26.7473 14.8135 26.7768 14.8008 26.8072C14.7881 26.8382 14.778 26.8702 14.7719 26.9027C14.7653 26.9352 14.7617 26.9687 14.7617 27.0017C14.7617 27.0348 14.7653 27.0683 14.7719 27.1008C14.778 27.1333 14.7881 27.1653 14.8008 27.1957C14.8135 27.2267 14.8288 27.2562 14.8475 27.2836C14.8658 27.3115 14.8872 27.3374 14.9105 27.3608C14.9339 27.3842 14.9598 27.4055 14.9877 27.4238C15.0151 27.4421 15.0446 27.4579 15.0751 27.4705C15.106 27.4832 15.138 27.4934 15.1705 27.4995C15.203 27.5061 15.2366 27.5097 15.2696 27.5097C15.3026 27.5097 15.3361 27.5061 15.3686 27.4995C15.4011 27.4934 15.4331 27.4832 15.4636 27.4705C15.4946 27.4579 15.524 27.4421 15.5514 27.4238C15.5794 27.4055 15.6053 27.3842 15.6286 27.3608C15.652 27.3374 15.6733 27.3115 15.6916 27.2836C15.7099 27.2562 15.7256 27.2267 15.7383 27.1957C15.751 27.1653 15.7607 27.1333 15.7673 27.1008C15.7739 27.0683 15.7774 27.0348 15.7774 27.0017C15.7774 26.9687 15.7739 26.9352 15.7673 26.9027Z" fill="#888888"/>
<path d="M30.3611 27.0581C30.3591 27.053 30.3571 27.048 30.355 27.043C29.8875 25.9493 28.7913 25.545 27.4939 25.9881L23.9558 26.9666C23.7512 26.3471 23.241 25.8199 22.5195 25.5522C22.515 25.5505 22.5105 25.5489 22.506 25.5474L18.6168 24.2274C18.2931 23.8089 17.2791 22.7383 15.3806 22.7383C14.0538 22.7383 12.8801 23.6485 12.2086 24.6406H7.50786C7.22737 24.6406 7 24.8679 7 25.1484V31.5513C7 31.8318 7.22737 32.0592 7.50786 32.0592H10.5274C10.8079 32.0592 11.0353 31.8318 11.0353 31.5513V31.1129H12.4514C12.7318 31.1129 12.9592 30.8855 12.9592 30.605V30.4588C13.7847 30.5309 14.0562 30.6874 14.8143 31.1246C15.3973 31.4608 16.2785 31.9689 17.8654 32.6824C17.8727 32.6857 17.8802 32.6888 17.8877 32.6918C18.1922 32.8116 18.7876 32.9998 19.5216 32.9998C20.0325 32.9998 20.6107 32.9085 21.2042 32.6395L29.0247 29.8394C29.0387 29.8344 29.0524 29.8288 29.0658 29.8226C29.8132 29.4788 30.927 28.5096 30.3611 27.0581ZM10.0196 31.0434H8.01572V25.6562H10.0196V31.0434ZM11.9435 30.0971H11.0353V25.6562H11.9435V30.0971ZM28.66 28.8911L20.8429 31.6899C20.836 31.6924 20.8267 31.696 20.82 31.6988C20.8131 31.7016 20.8063 31.7045 20.7995 31.7076C19.7108 32.208 18.676 31.9084 18.2704 31.7507C16.7376 31.061 15.9195 30.5893 15.3217 30.2446C14.4907 29.7654 14.0902 29.5344 12.9592 29.441V25.3506C13.4406 24.5616 14.3742 23.7539 15.3806 23.7539C17.1066 23.7539 17.838 24.8766 17.8667 24.9219C17.9288 25.0227 18.0241 25.0988 18.1362 25.1368L22.1724 26.5067C22.817 26.7486 23.1577 27.3007 23.0011 27.8512C22.9288 28.1054 22.7618 28.3163 22.531 28.4449C22.3021 28.5725 22.0375 28.604 21.7853 28.5342L17.2352 27.0923C16.9677 27.0075 16.6824 27.1556 16.5977 27.423C16.5129 27.6904 16.661 27.9758 16.9284 28.0606L21.4864 29.505C21.4912 29.5065 21.496 29.508 21.5009 29.5094C21.6828 29.5611 21.8681 29.5867 22.0523 29.5867C22.3894 29.5867 22.7228 29.5008 23.0254 29.3322C23.4933 29.0715 23.8316 28.6442 23.9781 28.129C23.9897 28.0879 24.0001 28.0467 24.0091 28.0056L27.8222 26.9492C28.373 26.7611 29.0959 26.6933 29.4178 27.4346C29.7509 28.305 28.885 28.7837 28.66 28.8911Z" fill="#888888"/>
<path d="M25.2326 13.6801C25.226 13.6476 25.2164 13.6156 25.2032 13.5846C25.1905 13.5541 25.1752 13.5247 25.1565 13.4972C25.1382 13.4693 25.1168 13.4434 25.0935 13.42C25.0701 13.3967 25.0442 13.3753 25.0163 13.3571C24.9889 13.3388 24.9594 13.323 24.9289 13.3103C24.898 13.2976 24.866 13.2875 24.834 13.2814C24.7684 13.2682 24.7009 13.2682 24.6354 13.2814C24.6029 13.2875 24.5709 13.2976 24.5404 13.3103C24.5094 13.323 24.48 13.3388 24.4526 13.3571C24.4246 13.3753 24.3987 13.3967 24.3754 13.42C24.352 13.4434 24.3307 13.4693 24.3124 13.4972C24.2941 13.5247 24.2784 13.5541 24.2657 13.5846C24.253 13.6156 24.2428 13.6476 24.2367 13.6801C24.2301 13.7126 24.2266 13.7461 24.2266 13.7791C24.2266 13.8121 24.2301 13.8456 24.2367 13.8781C24.2428 13.9106 24.253 13.9426 24.2657 13.9731C24.2784 14.0041 24.2941 14.0335 24.3124 14.0609C24.3307 14.0889 24.352 14.1148 24.3754 14.1381C24.3987 14.1615 24.4246 14.1828 24.4526 14.2011C24.48 14.2194 24.5094 14.2351 24.5404 14.2478C24.5709 14.2605 24.6029 14.2702 24.6354 14.2768C24.6679 14.2834 24.7014 14.2869 24.7344 14.2869C24.7674 14.2869 24.8009 14.2834 24.834 14.2768C24.866 14.2702 24.898 14.2605 24.9289 14.2478C24.9594 14.2351 24.9889 14.2194 25.0163 14.2011C25.0442 14.1828 25.0701 14.1615 25.0935 14.1381C25.1168 14.1148 25.1382 14.0889 25.1565 14.0609C25.1752 14.0335 25.1905 14.0041 25.2032 13.9731C25.2164 13.9426 25.226 13.9106 25.2326 13.8781C25.2392 13.8456 25.2423 13.8121 25.2423 13.7791C25.2423 13.7461 25.2392 13.7126 25.2326 13.6801Z" fill="#888888"/>
<path d="M32.4905 8.72H29.4709C29.1905 8.72 28.9631 8.94737 28.9631 9.22786V9.66634H27.547C27.2665 9.66634 27.0392 9.89371 27.0392 10.1742V10.3204C26.2137 10.2483 25.9422 10.0918 25.1841 9.65461C24.6011 9.31841 23.7199 8.8103 22.133 8.09681C22.1256 8.09346 22.1182 8.09036 22.1107 8.08741C21.5941 7.88417 20.2403 7.48428 18.7944 8.13957L16.7508 8.87129L15.0282 7.14874C14.8299 6.95042 14.5083 6.95042 14.31 7.14874L8.65455 12.8041C8.47162 12.9871 8.43653 13.3043 8.65455 13.5224L18.3184 23.1862C18.4731 23.3409 18.8352 23.3877 19.0367 23.1862L24.1998 18.0232C24.3341 18.0347 24.4734 18.041 24.6178 18.041C25.9446 18.041 27.1182 17.1308 27.7897 16.1387H32.4905C32.771 16.1387 32.9984 15.9114 32.9984 15.6309V9.22786C32.9984 8.94737 32.771 8.72 32.4905 8.72ZM14.669 8.22606L15.8265 9.38357C15.4825 9.59636 15.0846 9.71022 14.669 9.71022C14.2533 9.71022 13.8556 9.59641 13.5115 9.38357L14.669 8.22606ZM10.8894 14.3208L9.73192 13.1632L10.8894 12.0057C11.1022 12.3498 11.2161 12.7476 11.2161 13.1632C11.2161 13.5788 11.1023 13.9766 10.8894 14.3208ZM18.6776 22.1089L17.5203 20.9516C18.2269 20.5155 19.1282 20.5155 19.8348 20.9516L18.6776 22.1089ZM20.5666 20.2199C19.4443 19.4058 17.9109 19.4058 16.7886 20.2199L11.6211 15.0524C12.0177 14.5069 12.2318 13.8518 12.2318 13.1632C12.2318 12.4746 12.0177 11.8195 11.6211 11.274L12.7799 10.1153C13.3253 10.5119 13.9805 10.726 14.6691 10.726C15.3577 10.726 16.0128 10.5119 16.5582 10.1153L17.6567 11.2137C17.4197 11.2487 17.1885 11.3268 16.973 11.4469C16.609 11.6498 16.3234 11.9535 16.1455 12.321C15.5726 12.4271 15.0423 12.7045 14.6263 13.1204C13.4975 14.2492 13.4975 16.0858 14.6263 17.2145C15.1906 17.7789 15.932 18.0611 16.6733 18.0611C17.4146 18.0611 18.156 17.7789 18.7204 17.2145C19.0876 16.8474 19.3448 16.3961 19.4737 15.9043L21.1884 16.4862C20.9954 17.3805 21.1931 18.3212 21.7264 19.0601L20.5666 20.2199ZM17.4789 15.227C17.4834 15.2287 17.4878 15.2303 17.4923 15.2318L18.5079 15.5765C18.4312 15.9226 18.2576 16.2408 18.0022 16.4963C17.2695 17.229 16.0772 17.2291 15.3446 16.4963C14.6118 15.7636 14.6118 14.5714 15.3446 13.8387C15.5213 13.6619 15.7299 13.5237 15.9571 13.43C16.0509 14.2102 16.6126 14.9056 17.4789 15.227ZM22.4581 18.3283C22.2621 18.0089 22.1512 17.6443 22.1337 17.2722C22.3769 17.4481 22.6742 17.6204 23.0293 17.7571L22.4581 18.3283ZM27.0391 15.4284C26.5578 16.2175 25.6242 17.0252 24.6178 17.0252C24.4294 17.0252 24.253 17.0118 24.088 16.9879C24.0873 16.9878 24.0866 16.9877 24.086 16.9876C22.9892 16.8283 22.3992 16.2049 22.2048 15.9581C22.1944 15.9429 22.1503 15.8851 22.1437 15.8755C22.0846 15.7698 21.9876 15.6848 21.8638 15.6428L17.826 14.2723C17.1816 14.0305 16.841 13.4787 16.9971 12.9284C16.9972 12.928 16.9973 12.9277 16.9974 12.9273C16.9975 12.9269 16.9976 12.9264 16.9977 12.926C17.0703 12.6726 17.237 12.4624 17.4674 12.3341C17.6962 12.2066 17.9607 12.1749 18.2131 12.2448L22.7631 13.6867C23.0305 13.7716 23.316 13.6234 23.4007 13.356C23.4854 13.0886 23.3373 12.8032 23.07 12.7184L19.4512 11.5717L19.4196 11.5401C19.4193 11.5398 19.419 11.5394 19.4187 11.5391L17.5452 9.66563L19.1555 9.08901C19.1609 9.08703 19.1676 9.08454 19.173 9.08236C19.1744 9.0818 19.177 9.08078 19.1783 9.08023C19.1852 9.07743 19.192 9.07449 19.1988 9.07139C20.2874 8.57105 21.3223 8.87053 21.7279 9.02827C23.2608 9.71799 24.0789 10.1897 24.6767 10.5344C25.5077 11.0137 25.9082 11.2446 27.0391 11.338V15.4284ZM28.9631 15.1229H28.0549V10.6821H28.9631V15.1229ZM31.9827 15.1229H29.9788V9.73572H31.9827V15.1229Z" fill="#888888"/>
</svg>
