<svg width="21" height="20" viewBox="0 0 21 20" fill="none" xmlns="http://www.w3.org/2000/svg">
<mask id="mask0_906_5915" style="mask-type:alpha" maskUnits="userSpaceOnUse" x="0" y="0" width="21" height="20">
<rect x="0.5" width="20" height="20" fill="#D9D9D9"/>
</mask>
<g mask="url(#mask0_906_5915)">
<path d="M4.66667 18.3337C4.20833 18.3337 3.81597 18.1705 3.48958 17.8441C3.16319 17.5177 3 17.1253 3 16.667V5.00033C3 4.54199 3.16319 4.14963 3.48958 3.82324C3.81597 3.49685 4.20833 3.33366 4.66667 3.33366H5.5V1.66699H7.16667V3.33366H13.8333V1.66699H15.5V3.33366H16.3333C16.7917 3.33366 17.184 3.49685 17.5104 3.82324C17.8368 4.14963 18 4.54199 18 5.00033V16.667C18 17.1253 17.8368 17.5177 17.5104 17.8441C17.184 18.1705 16.7917 18.3337 16.3333 18.3337H4.66667ZM4.66667 16.667H16.3333V8.33366H4.66667V16.667ZM4.66667 6.66699H16.3333V5.00033H4.66667V6.66699Z" fill="#888888"/>
</g>
</svg>
