<svg width="16" height="16" viewBox="0 0 16 16" fill="none" xmlns="http://www.w3.org/2000/svg">
<path d="M5 10.25H6.5V8H9.125V9.875L11.75 7.25L9.125 4.625V6.5H5.75C5.5375 6.5 5.35938 6.57188 5.21562 6.71563C5.07188 6.85938 5 7.0375 5 7.25V10.25ZM8 15.5C7.8125 15.5 7.62812 15.4625 7.44687 15.3875C7.26562 15.3125 7.1 15.2 6.95 15.05L0.95 9.05C0.8 8.9 0.6875 8.73438 0.6125 8.55313C0.5375 8.37188 0.5 8.1875 0.5 8C0.5 7.8125 0.5375 7.62812 0.6125 7.44687C0.6875 7.26562 0.8 7.1 0.95 6.95L6.95 0.95C7.1 0.8 7.26562 0.6875 7.44687 0.6125C7.62812 0.5375 7.8125 0.5 8 0.5C8.1875 0.5 8.37188 0.5375 8.55313 0.6125C8.73438 0.6875 8.9 0.8 9.05 0.95L15.05 6.95C15.2 7.1 15.3125 7.26562 15.3875 7.44687C15.4625 7.62812 15.5 7.8125 15.5 8C15.5 8.1875 15.4625 8.37188 15.3875 8.55313C15.3125 8.73438 15.2 8.9 15.05 9.05L9.05 15.05C8.9 15.2 8.73438 15.3125 8.55313 15.3875C8.37188 15.4625 8.1875 15.5 8 15.5ZM8 14L14 8L8 2L2 8L8 14Z" fill="#008CFF"/>
</svg>
