<svg width="24" height="25" viewBox="0 0 24 25" fill="none" xmlns="http://www.w3.org/2000/svg">
<path d="M20.25 15.8753H20.1262L18.7725 12.7178C19.002 12.8184 19.2494 12.8719 19.5 12.8753C19.5995 12.8753 19.6948 12.8358 19.7652 12.7654C19.8355 12.6951 19.875 12.5997 19.875 12.5003V9.50028C19.875 9.40083 19.8355 9.30544 19.7652 9.23512C19.6948 9.16479 19.5995 9.12528 19.5 9.12528C19.1095 9.1274 18.7294 9.2514 18.4127 9.47998C18.0961 9.70855 17.8587 10.0303 17.7337 10.4003C17.6234 10.2462 17.4826 10.1165 17.32 10.0191C17.1575 9.92166 16.9766 9.85868 16.7887 9.83403C16.5506 9.80326 16.3087 9.81854 16.0763 9.87903H15.75C15.1163 9.87903 14.835 9.50403 14.3925 8.89278L14.1713 8.58153C14.3982 8.56996 14.618 8.49882 14.8088 8.37528C14.9534 8.27025 15.076 8.13767 15.1693 7.98515C15.2626 7.83263 15.3249 7.66318 15.3525 7.48653C15.4744 7.41632 15.581 7.32241 15.666 7.21034C15.751 7.09828 15.8127 6.97033 15.8475 6.83403C15.8633 6.72653 15.8528 6.61679 15.8169 6.51424C15.781 6.41169 15.7207 6.3194 15.6412 6.24528C15.4881 5.98313 15.4042 5.68631 15.3975 5.38278C15.4943 5.37699 15.5851 5.33391 15.6508 5.26258C15.7166 5.19126 15.7521 5.09725 15.75 5.00028C15.75 4.60282 15.6711 4.20932 15.5178 3.84262C15.3644 3.47593 15.1397 3.14337 14.8568 2.86424C14.5738 2.58512 14.2382 2.36501 13.8695 2.2167C13.5007 2.06838 13.1062 1.99482 12.7087 2.00028C11.9288 2.01564 11.1852 2.33229 10.6336 2.88387C10.082 3.43545 9.76535 4.17913 9.75 4.95903C9.74299 5.35664 9.81569 5.75163 9.96383 6.12068C10.112 6.48973 10.3325 6.82537 10.6125 7.10778C10.6955 7.19025 10.7831 7.26788 10.875 7.34028C9.4275 7.69278 8.66625 9.05028 8.27625 10.2278C8.16527 10.116 8.03324 10.0272 7.88777 9.96673C7.74231 9.90622 7.5863 9.87514 7.42875 9.87528H3.44625C3.24626 9.87495 3.0494 9.92492 2.87378 10.0206C2.69816 10.1163 2.54942 10.2546 2.44125 10.4228C2.38705 10.5063 2.36825 10.608 2.389 10.7054C2.40974 10.8028 2.46833 10.888 2.55187 10.9422C2.63542 10.9964 2.73707 11.0152 2.83447 10.9944C2.93188 10.9737 3.01705 10.9151 3.07125 10.8315C3.11166 10.7689 3.16721 10.7176 3.23277 10.6822C3.29832 10.6468 3.37175 10.6285 3.44625 10.629H4.125V11.754C4.125 11.8535 4.16451 11.9489 4.23484 12.0192C4.30516 12.0895 4.40054 12.129 4.5 12.129H6.375C6.47446 12.129 6.56984 12.0895 6.64017 12.0192C6.71049 11.9489 6.75 11.8535 6.75 11.754V10.6253H7.42875C7.48735 10.6253 7.54538 10.6368 7.59952 10.6593C7.65366 10.6817 7.70286 10.7145 7.7443 10.756C7.78573 10.7974 7.8186 10.8466 7.84103 10.9008C7.86346 10.9549 7.875 11.0129 7.875 11.0715V13.9328C7.87401 14.0505 7.82656 14.163 7.74298 14.2459C7.6594 14.3288 7.54646 14.3753 7.42875 14.3753H3.44625C3.33885 14.3783 3.2341 14.3417 3.15185 14.2726C3.0696 14.2035 3.01557 14.1066 3 14.0003H3.75C3.84946 14.0003 3.94484 13.9608 4.01516 13.8904C4.08549 13.8201 4.125 13.7247 4.125 13.6253C4.125 13.5258 4.08549 13.4304 4.01516 13.3601C3.94484 13.2898 3.84946 13.2503 3.75 13.2503H3V12.5003H3.375C3.47446 12.5003 3.56984 12.4608 3.64016 12.3904C3.71049 12.3201 3.75 12.2247 3.75 12.1253C3.75 12.0258 3.71049 11.9304 3.64016 11.8601C3.56984 11.7898 3.47446 11.7503 3.375 11.7503H1.5C1.40054 11.7503 1.30516 11.7898 1.23483 11.8601C1.16451 11.9304 1.125 12.0258 1.125 12.1253C1.125 12.2247 1.16451 12.3201 1.23483 12.3904C1.30516 12.4608 1.40054 12.5003 1.5 12.5003H2.25V13.2503H0.75C0.650544 13.2503 0.555161 13.2898 0.484835 13.3601C0.414509 13.4304 0.375 13.5258 0.375 13.6253C0.375 13.7247 0.414509 13.8201 0.484835 13.8904C0.555161 13.9608 0.650544 14.0003 0.75 14.0003H2.25C2.26722 14.3041 2.39991 14.5898 2.62091 14.7989C2.8419 15.0081 3.13448 15.1248 3.43875 15.1253H5.31375C5.14022 15.2954 4.99242 15.49 4.875 15.7028C4.37422 16.6848 4.11699 17.7729 4.125 18.8753C4.125 18.9747 4.16451 19.0701 4.23484 19.1404C4.30516 19.2108 4.40054 19.2503 4.5 19.2503H5.65125C5.74722 19.971 6.10165 20.6323 6.64864 21.1113C7.19562 21.5903 7.89794 21.8543 8.625 21.8543C9.35206 21.8543 10.0544 21.5903 10.6014 21.1113C11.1483 20.6323 11.5028 19.971 11.5988 19.2503H17.2762C17.3484 19.8232 17.5844 20.3631 17.9559 20.8052C18.3274 21.2473 18.8186 21.5728 19.3705 21.7426C19.9225 21.9124 20.5117 21.9194 21.0674 21.7625C21.6232 21.6057 22.1219 21.2918 22.5036 20.8586C22.8854 20.4253 23.134 19.8911 23.2196 19.32C23.3052 18.7489 23.2241 18.1653 22.9862 17.6391C22.7482 17.113 22.3635 16.6667 21.8782 16.3538C21.3928 16.0409 20.8275 15.8748 20.25 15.8753ZM6 11.3753H4.875V10.6253H6V11.3753ZM19.125 9.93903V12.0615C18.9053 11.9842 18.7149 11.8406 18.5803 11.6505C18.4456 11.4604 18.3733 11.2332 18.3733 11.0003C18.3733 10.7673 18.4456 10.5401 18.5803 10.35C18.7149 10.1599 18.9053 10.0163 19.125 9.93903ZM16.68 10.5728C16.827 10.5948 16.9636 10.6617 17.071 10.7645C17.1784 10.8672 17.2514 11.0007 17.28 11.1465L17.3775 11.3753C16.8554 11.6437 16.2729 11.7728 15.6863 11.7503C15.6346 11.5275 15.6617 11.2937 15.7628 11.0887C15.864 10.8836 16.033 10.7199 16.2413 10.6253C16.3827 10.5794 16.532 10.5628 16.68 10.5765V10.5728ZM14.8312 6.91278C14.7688 6.94423 14.7165 6.9925 14.68 7.05213C14.6436 7.11176 14.6245 7.1804 14.625 7.25028C14.6222 7.34469 14.5998 7.43747 14.5591 7.52271C14.5184 7.60794 14.4604 7.68375 14.3888 7.74528C14.175 7.88778 13.7775 7.85403 13.2638 7.65153C13.2363 7.6485 13.2087 7.6485 13.1813 7.65153L13.125 7.60278V6.16653C13.125 5.95668 13.2084 5.75542 13.3568 5.60704C13.5051 5.45865 13.7064 5.37528 13.9163 5.37528H14.625C14.6368 5.86071 14.7892 6.33228 15.0637 6.73278C14.9959 6.80535 14.9175 6.8673 14.8312 6.91653V6.91278ZM10.5 4.96653C10.5188 4.3847 10.7583 3.83182 11.1699 3.42019C11.5815 3.00855 12.1344 2.76904 12.7162 2.75028H12.75C13.282 2.74994 13.7969 2.93809 14.2033 3.28134C14.6097 3.6246 14.8813 4.10075 14.97 4.62528H13.9163C13.5078 4.62627 13.1163 4.78897 12.8275 5.0778C12.5387 5.36662 12.376 5.75807 12.375 6.16653V7.22028C11.8453 7.13081 11.3652 6.85479 11.0213 6.44213C10.6774 6.02947 10.4925 5.5074 10.5 4.97028V4.96653ZM11.625 8.00028C12.8512 8.00028 13.3013 8.64153 13.7775 9.31653C14.1225 9.81153 14.5275 10.3515 15.2025 10.5428C14.9902 10.8859 14.8942 11.2883 14.9288 11.6903C14.4633 11.5886 14.0243 11.3906 13.64 11.109C13.2557 10.8274 12.9347 10.4685 12.6975 10.0553C12.6771 10.0057 12.6463 9.96111 12.6071 9.92447C12.568 9.88782 12.5215 9.86 12.4707 9.84286C12.4199 9.82573 12.366 9.81968 12.3126 9.82514C12.2593 9.83059 12.2078 9.84742 12.1615 9.87448C12.1152 9.90154 12.0753 9.93821 12.0444 9.98202C12.0135 10.0258 11.9923 10.0758 11.9823 10.1284C11.9724 10.1811 11.9738 10.2353 11.9866 10.2874C11.9993 10.3394 12.0231 10.3882 12.0563 10.4303C12.1922 10.6584 12.3478 10.8742 12.5212 11.0753L12.4875 11.0978C12.1379 11.4999 11.892 11.9814 11.7712 12.5003H8.625V12.1253C8.65125 11.8965 9.07875 8.00028 11.625 8.00028ZM8.625 13.929V13.2503H12C12.075 13.2503 13.875 13.2728 13.875 15.1253V17.0003H12.375V16.2503C12.3845 16.0015 12.3425 15.7535 12.2516 15.5217C12.1607 15.2899 12.0229 15.0794 11.8469 14.9034C11.6709 14.7273 11.4604 14.5896 11.2286 14.4987C10.9968 14.4078 10.7488 14.3658 10.5 14.3753H8.53875C8.59602 14.2335 8.62531 14.082 8.625 13.929ZM8.625 21.1253C8.09367 21.1247 7.57968 20.9362 7.17404 20.593C6.7684 20.2498 6.4973 19.7742 6.40875 19.2503H7.1775C7.26386 19.568 7.45238 19.8486 7.71397 20.0486C7.97557 20.2486 8.29571 20.3569 8.625 20.3569C8.95429 20.3569 9.27443 20.2486 9.53603 20.0486C9.79762 19.8486 9.98614 19.568 10.0725 19.2503H10.8412C10.7527 19.7742 10.4816 20.2498 10.076 20.593C9.67032 20.9362 9.15633 21.1247 8.625 21.1253ZM7.98 19.2503H9.27C9.20359 19.3622 9.10921 19.4549 8.99612 19.5193C8.88303 19.5837 8.75514 19.6176 8.625 19.6176C8.49486 19.6176 8.36697 19.5837 8.25388 19.5193C8.14079 19.4549 8.04641 19.3622 7.98 19.2503ZM4.875 18.5003C4.92285 17.6372 5.1556 16.7944 5.5575 16.029C5.70677 15.7515 5.92951 15.5204 6.20136 15.361C6.4732 15.2016 6.78366 15.12 7.09875 15.1253H10.5C10.6499 15.1172 10.7998 15.1407 10.9399 15.1944C11.0801 15.248 11.2074 15.3306 11.3135 15.4367C11.4197 15.5429 11.5023 15.6702 11.5559 15.8103C11.6096 15.9505 11.6331 16.1004 11.625 16.2503V17.3753C11.625 17.781 11.7566 18.1757 12 18.5003H4.875ZM13.5 18.5003C13.2679 18.4996 13.0417 18.4272 12.8524 18.2929C12.663 18.1587 12.5199 17.9691 12.4425 17.7503H14.25C14.3479 17.744 14.446 17.7582 14.5381 17.792C14.6302 17.8258 14.7143 17.8784 14.7848 17.9465C14.8554 18.0146 14.911 18.0967 14.9481 18.1876C14.9851 18.2784 15.0028 18.376 15 18.474C14.8757 18.4906 14.7504 18.4994 14.625 18.5003H13.5ZM15.9037 18.0615C15.8496 18.1228 15.7878 18.177 15.72 18.2228C15.6788 17.9393 15.5518 17.6752 15.3561 17.466C15.1603 17.2568 14.9052 17.1126 14.625 17.0528V15.1253C14.6588 14.5134 14.4631 13.9109 14.076 13.4358C13.689 12.9607 13.1386 12.6471 12.5325 12.5565C12.6286 12.2202 12.7933 11.9074 13.0162 11.6378C13.0259 11.6247 13.0347 11.6109 13.0425 11.5965C13.6246 12.0687 14.325 12.3722 15.0675 12.474L16.125 17.0715C16.1844 17.4178 16.1049 17.7735 15.9037 18.0615ZM16.875 16.9178L15.8438 12.5003C16.4783 12.5061 17.1053 12.3622 17.6737 12.0803L19.4437 16.2053L17.8088 18.5003H16.5C16.6646 18.2747 16.7825 18.0185 16.8469 17.7468C16.9113 17.4751 16.9209 17.1932 16.875 16.9178ZM20.25 18.5003H19.605C19.6875 18.3573 19.815 18.2456 19.9675 18.1824C20.12 18.1192 20.2892 18.1081 20.4486 18.1508C20.6081 18.1936 20.749 18.2877 20.8495 18.4187C20.95 18.5497 21.0045 18.7102 21.0045 18.8753C21.0045 19.0404 20.95 19.2009 20.8495 19.3319C20.749 19.4628 20.6081 19.557 20.4486 19.5997C20.2892 19.6425 20.12 19.6314 19.9675 19.5682C19.815 19.505 19.6875 19.3933 19.605 19.2503H20.25C20.3495 19.2503 20.4448 19.2108 20.5152 19.1404C20.5855 19.0701 20.625 18.9747 20.625 18.8753C20.625 18.7758 20.5855 18.6804 20.5152 18.6101C20.4448 18.5398 20.3495 18.5003 20.25 18.5003ZM18.7275 18.5003L18.8587 18.3165C18.8361 18.3765 18.8173 18.4379 18.8025 18.5003H18.7275ZM20.25 21.1253C19.7187 21.1247 19.2047 20.9362 18.799 20.593C18.3934 20.2498 18.1223 19.7742 18.0338 19.2503H18.8025C18.8846 19.5666 19.0678 19.8474 19.3242 20.0501C19.5806 20.2528 19.8961 20.3661 20.2229 20.373C20.5496 20.3799 20.8696 20.2798 21.1343 20.0881C21.399 19.8964 21.5938 19.6235 21.6891 19.3109C21.7845 18.9983 21.7751 18.6632 21.6625 18.3564C21.5498 18.0496 21.3401 17.788 21.0652 17.6113C20.7902 17.4347 20.4651 17.3527 20.1393 17.3778C19.8134 17.4028 19.5047 17.5336 19.26 17.7503L20.0588 16.6253C20.1225 16.6253 20.1863 16.6253 20.25 16.6253C20.8467 16.6253 21.419 16.8623 21.841 17.2843C22.2629 17.7062 22.5 18.2785 22.5 18.8753C22.5 19.472 22.2629 20.0443 21.841 20.4663C21.419 20.8882 20.8467 21.1253 20.25 21.1253Z" fill="white"/>
</svg>
