<svg width="41" height="40" viewBox="0 0 41 40" fill="none" xmlns="http://www.w3.org/2000/svg">
<g clip-path="url(#clip0_545_11696)">
<path d="M37.5862 15.9338C37.3953 14.138 36.2607 12.6396 34.6992 11.9224L36.0696 11.1705C37.3144 10.4875 37.3549 8.71327 36.1397 7.97577L31.6666 5.26132C30.4527 4.52429 28.8959 5.37608 28.8648 6.79772L28.835 8.16796C27.8679 7.8614 26.8123 7.84929 25.8161 8.16374C25.2612 8.33772 24.6547 8.13241 24.307 7.65272C23.3676 6.35483 21.8519 5.57991 20.2524 5.57991C18.5136 5.57991 16.9257 6.46186 16.0049 7.93897C15.7977 8.27108 15.4694 8.49624 15.1045 8.57507L14.9819 6.15616C14.9099 4.73804 13.3307 3.92843 12.1369 4.70061L7.74398 7.54311C6.55195 8.31452 6.6403 10.0873 7.90601 10.7347L9.23484 11.4145C9.00445 11.7914 8.60304 12.0378 8.16046 12.0659C5.95554 12.2049 4.11804 13.7781 3.6157 15.8921C1.3957 16.7291 0.0974144 19.1141 0.690227 21.4856C3.31921 31.9978 3.22062 31.6129 3.23687 31.6622C3.87023 33.9851 5.97202 35.5981 8.38952 35.5981H32.7041C35.1217 35.5981 37.2234 33.9852 37.8568 31.6623C37.8727 31.6139 37.7894 31.9382 40.4034 21.4857C40.987 19.1511 39.7384 16.8066 37.5862 15.9338ZM30.0418 6.82343C30.0494 6.47546 30.2865 6.30827 30.3881 6.25257C30.4896 6.19686 30.758 6.08679 31.0558 6.26757L35.5291 8.9821C35.8263 9.16257 35.8526 9.45147 35.85 9.56741C35.8475 9.68327 35.8087 9.97093 35.5034 10.1383L33.0459 11.4868C33.0084 11.4836 32.9711 11.4795 32.9334 11.4772C32.4503 11.4466 32.0159 11.1565 31.7999 10.7206C31.3731 9.8578 30.7423 9.18124 30.0006 8.71069L30.0418 6.82343ZM8.07937 9.12601C8.07343 9.01022 8.09132 8.72054 8.38351 8.53147L12.7765 5.68905C12.9934 5.54866 13.2381 5.55007 13.4435 5.65522C13.5466 5.70796 13.7886 5.86835 13.8062 6.21585C13.8132 6.35304 14.0518 11.0537 14.0715 11.4415C14.0891 11.7891 13.8646 11.973 13.7673 12.0361C13.6699 12.0991 13.4103 12.2284 13.1003 12.0699C12.9898 12.0133 12.4191 11.7213 8.44218 9.68671C8.13234 9.52811 8.08523 9.24171 8.07937 9.12601ZM8.23476 13.2407C9.09085 13.1864 9.86366 12.6962 10.2843 11.9513L12.5642 13.1177C13.8323 13.7665 15.319 12.7972 15.2472 11.3817L15.1648 9.75851C15.9103 9.65483 16.5903 9.22507 17.004 8.56202C17.7084 7.43194 18.9229 6.75726 20.2526 6.75726C21.4757 6.75726 22.635 7.35007 23.3539 8.34343C23.9991 9.23358 25.1301 9.61288 26.1698 9.28671C27.9435 8.72655 29.8953 9.52476 30.7451 11.243C31.1475 12.055 31.9575 12.5949 32.8592 12.6521C34.5474 12.7585 35.9692 13.972 36.3428 15.6168C36.1631 15.5964 35.9811 15.586 35.7973 15.586C3.21577 15.5923 5.32491 15.5725 4.94249 15.6005C5.49273 14.2615 6.76945 13.333 8.23476 13.2407ZM5.2964 16.7632H35.7973C37.344 16.7632 38.6523 17.7366 39.1552 19.1176H1.93851C2.44077 17.7382 3.74804 16.7632 5.2964 16.7632ZM32.7041 34.4208H8.38952C6.76398 34.4208 5.32132 33.4855 4.63835 32.0664H36.4554C35.7723 33.4855 34.3298 34.4208 32.7041 34.4208ZM39.2614 21.2L36.8391 30.8893H4.2546L1.83226 21.2C1.7571 20.8994 1.72296 20.5956 1.72562 20.2948H39.368C39.3707 20.5956 39.3366 20.8994 39.2614 21.2Z" fill="#888888"/>
<path d="M27.6095 14.409C28.5831 14.409 29.3753 13.6169 29.3753 12.6432C29.3753 11.6696 28.5832 10.8774 27.6095 10.8774C26.6359 10.8774 25.8438 11.6696 25.8438 12.6432C25.8438 13.6169 26.6359 14.409 27.6095 14.409ZM27.6095 12.0547C27.9341 12.0547 28.1981 12.3188 28.1981 12.6433C28.1981 12.9678 27.9341 13.2319 27.6095 13.2319C27.285 13.2319 27.0209 12.9679 27.0209 12.6433C27.0209 12.3187 27.2849 12.0547 27.6095 12.0547Z" fill="#888888"/>
<path d="M19.9572 12.0545C20.9308 12.0545 21.723 11.2624 21.723 10.2887C21.723 9.31506 20.9309 8.52295 19.9572 8.52295C18.9836 8.52295 18.1914 9.31506 18.1914 10.2887C18.1914 11.2624 18.9836 12.0545 19.9572 12.0545ZM19.9572 9.70014C20.2817 9.70014 20.5458 9.9642 20.5458 10.2887C20.5458 10.6133 20.2817 10.8773 19.9572 10.8773C19.6327 10.8773 19.3686 10.6133 19.3686 10.2887C19.3686 9.9642 19.6326 9.70014 19.9572 9.70014Z" fill="#888888"/>
<path d="M9.95344 29.1237C11.9008 29.1237 13.4849 27.5395 13.4849 25.5921C13.4849 23.6448 11.9007 22.0605 9.95344 22.0605C8.00617 22.0605 6.42188 23.6448 6.42188 25.5921C6.42195 27.5395 8.00617 29.1237 9.95344 29.1237ZM9.95344 23.2378C11.2516 23.2378 12.3078 24.294 12.3078 25.5922C12.3078 26.8904 11.2516 27.9466 9.95344 27.9466C8.65523 27.9466 7.59906 26.8904 7.59906 25.5922C7.59914 24.294 8.65523 23.2378 9.95344 23.2378Z" fill="#888888"/>
<path d="M20.5472 29.1237C22.4945 29.1237 24.0788 27.5395 24.0788 25.5921C24.0788 23.6448 22.4945 22.0605 20.5472 22.0605C18.5998 22.0605 17.0156 23.6448 17.0156 25.5921C17.0156 27.5395 18.5998 29.1237 20.5472 29.1237ZM20.5472 23.2378C21.8454 23.2378 22.9016 24.294 22.9016 25.5922C22.9016 26.8904 21.8454 27.9466 20.5472 27.9466C19.249 27.9466 18.1928 26.8904 18.1928 25.5922C18.1928 24.294 19.249 23.2378 20.5472 23.2378Z" fill="#888888"/>
<path d="M31.1409 29.1237C33.0882 29.1237 34.6724 27.5395 34.6724 25.5921C34.6724 23.6448 33.0882 22.0605 31.1409 22.0605C29.1935 22.0605 27.6094 23.6448 27.6094 25.5921C27.6094 27.5395 29.1936 29.1237 31.1409 29.1237ZM31.1409 23.2378C32.4391 23.2378 33.4952 24.294 33.4952 25.5922C33.4952 26.8904 32.4391 27.9466 31.1409 27.9466C29.8427 27.9466 28.7865 26.8904 28.7865 25.5922C28.7866 24.294 29.8427 23.2378 31.1409 23.2378Z" fill="#888888"/>
</g>
<defs>
<clipPath id="clip0_545_11696">
<rect width="40" height="40" fill="white" transform="translate(0.546875)"/>
</clipPath>
</defs>
</svg>
