<svg width="30" height="30" viewBox="0 0 30 30" fill="none" xmlns="http://www.w3.org/2000/svg">
<path d="M15 1.875C7.75195 1.875 1.875 7.75195 1.875 15C1.875 22.248 7.75195 28.125 15 28.125C22.248 28.125 28.125 22.248 28.125 15C28.125 7.75195 22.248 1.875 15 1.875ZM16.0693 18.2461C14.7832 20.0566 12.1992 20.584 10.1836 19.8076C8.16211 19.0371 6.72656 16.9014 6.89941 14.7246C6.94336 12.0615 9.39551 9.72656 12.0586 9.81738C13.3359 9.75879 14.5371 10.3125 15.5156 11.0947C15.0967 11.5693 14.666 12.0264 14.2031 12.4512C13.0283 11.6396 11.3555 11.4082 10.1807 12.3457C8.49902 13.5088 8.42285 16.2539 10.04 17.5049C11.6133 18.9316 14.5869 18.2227 15.0234 16.0371C14.0391 16.0225 13.0488 16.0371 12.0645 16.0049C12.0615 15.416 12.0586 14.8301 12.0615 14.2412C13.708 14.2354 15.3574 14.2324 17.0068 14.2471C17.1035 15.6328 16.9189 17.1035 16.0693 18.2461ZM23.1738 15.7178C22.6816 15.7236 22.1895 15.7266 21.6973 15.7295C21.6914 16.2217 21.6885 16.7139 21.6885 17.2061H20.2148C20.209 16.7139 20.209 16.2246 20.2061 15.7324C19.7139 15.7266 19.2217 15.7236 18.7295 15.7178V14.25C19.2217 14.2441 19.7139 14.2412 20.2061 14.2412C20.209 13.749 20.2148 13.2568 20.2178 12.7646H21.6885L21.6973 14.2412C22.1895 14.2471 22.6816 14.2471 23.1738 14.25V15.7178Z" fill="white"/>
</svg>
