<svg width="18" height="18" viewBox="0 0 18 18" fill="none" xmlns="http://www.w3.org/2000/svg">
<path d="M8.95963 13.9993C9.2513 13.9993 9.49783 13.8987 9.69922 13.6973C9.90061 13.4959 10.0013 13.2493 10.0013 12.9577C10.0013 12.666 9.90061 12.4195 9.69922 12.2181C9.49783 12.0167 9.2513 11.916 8.95963 11.916C8.66797 11.916 8.42144 12.0167 8.22005 12.2181C8.01866 12.4195 7.91797 12.666 7.91797 12.9577C7.91797 13.2493 8.01866 13.4959 8.22005 13.6973C8.42144 13.8987 8.66797 13.9993 8.95963 13.9993ZM8.20964 10.791H9.7513C9.7513 10.3327 9.80339 9.97157 9.90755 9.70768C10.0117 9.44379 10.3069 9.08268 10.793 8.62435C11.1541 8.26324 11.4388 7.91949 11.6471 7.5931C11.8555 7.26671 11.9596 6.87435 11.9596 6.41602C11.9596 5.63824 11.6749 5.04102 11.1055 4.62435C10.536 4.20768 9.86241 3.99935 9.08464 3.99935C8.29297 3.99935 7.65061 4.20768 7.15755 4.62435C6.6645 5.04102 6.32075 5.54102 6.1263 6.12435L7.5013 6.66602C7.57075 6.41602 7.727 6.14518 7.97005 5.85352C8.21311 5.56185 8.58464 5.41602 9.08464 5.41602C9.52908 5.41602 9.86241 5.53754 10.0846 5.7806C10.3069 6.02365 10.418 6.29102 10.418 6.58268C10.418 6.86046 10.3346 7.12088 10.168 7.36393C10.0013 7.60699 9.79297 7.83268 9.54297 8.04102C8.93186 8.58268 8.55686 8.9924 8.41797 9.27018C8.27908 9.54796 8.20964 10.0549 8.20964 10.791ZM9.0013 17.3327C7.84852 17.3327 6.76519 17.1139 5.7513 16.6764C4.73741 16.2389 3.85547 15.6452 3.10547 14.8952C2.35547 14.1452 1.76172 13.2632 1.32422 12.2493C0.886719 11.2355 0.667969 10.1521 0.667969 8.99935C0.667969 7.84657 0.886719 6.76324 1.32422 5.74935C1.76172 4.73546 2.35547 3.85352 3.10547 3.10352C3.85547 2.35352 4.73741 1.75977 5.7513 1.32227C6.76519 0.884766 7.84852 0.666016 9.0013 0.666016C10.1541 0.666016 11.2374 0.884766 12.2513 1.32227C13.2652 1.75977 14.1471 2.35352 14.8971 3.10352C15.6471 3.85352 16.2409 4.73546 16.6784 5.74935C17.1159 6.76324 17.3346 7.84657 17.3346 8.99935C17.3346 10.1521 17.1159 11.2355 16.6784 12.2493C16.2409 13.2632 15.6471 14.1452 14.8971 14.8952C14.1471 15.6452 13.2652 16.2389 12.2513 16.6764C11.2374 17.1139 10.1541 17.3327 9.0013 17.3327Z" fill="#008CFF"/>
</svg>
