<svg width="30" height="30" viewBox="0 0 30 30" fill="none" xmlns="http://www.w3.org/2000/svg">
<path d="M15 2.5C8.09635 2.5 2.5 8.09635 2.5 15C2.5 21.9036 8.09635 27.5 15 27.5C21.9036 27.5 27.5 21.9036 27.5 15C27.5 8.09635 21.9036 2.5 15 2.5ZM11.9401 20.181H9.40885V12.0352H11.9401V20.181ZM10.6589 11.0352C9.85937 11.0352 9.34245 10.4687 9.34245 9.76823C9.34245 9.05338 9.875 8.50391 10.6914 8.50391C11.5078 8.50391 12.0078 9.05338 12.0234 9.76823C12.0234 10.4687 11.5078 11.0352 10.6589 11.0352ZM21.1849 20.181H18.6536V15.6667C18.6536 14.6159 18.2865 13.9023 17.3711 13.9023C16.6719 13.9023 16.2565 14.3854 16.0729 14.8503C16.0052 15.0156 15.9883 15.25 15.9883 15.4831V20.1797H13.4557V14.6328C13.4557 13.6159 13.4232 12.7656 13.3893 12.0339H15.5885L15.7044 13.1654H15.7552C16.0885 12.6341 16.9049 11.8503 18.2708 11.8503C19.9362 11.8503 21.1849 12.9661 21.1849 15.3646V20.181Z" fill="white"/>
</svg>
