<svg width="20" height="20" viewBox="0 0 20 20" fill="none" xmlns="http://www.w3.org/2000/svg">
<mask id="mask0_2_103988" style="mask-type:alpha" maskUnits="userSpaceOnUse" x="0" y="0" width="20" height="20">
<rect width="20" height="20" fill="#D9D9D9"/>
</mask>
<g mask="url(#mask0_2_103988)">
<path d="M9.16797 14.1663H5.83464C4.68186 14.1663 3.69922 13.7601 2.88672 12.9476C2.07422 12.1351 1.66797 11.1525 1.66797 9.99967C1.66797 8.8469 2.07422 7.86426 2.88672 7.05176C3.69922 6.23926 4.68186 5.83301 5.83464 5.83301H9.16797V7.49967H5.83464C5.14019 7.49967 4.54991 7.74273 4.0638 8.22884C3.57769 8.71495 3.33464 9.30523 3.33464 9.99967C3.33464 10.6941 3.57769 11.2844 4.0638 11.7705C4.54991 12.2566 5.14019 12.4997 5.83464 12.4997H9.16797V14.1663ZM6.66797 10.833V9.16634H13.3346V10.833H6.66797ZM10.8346 14.1663V12.4997H14.168C14.8624 12.4997 15.4527 12.2566 15.9388 11.7705C16.4249 11.2844 16.668 10.6941 16.668 9.99967C16.668 9.30523 16.4249 8.71495 15.9388 8.22884C15.4527 7.74273 14.8624 7.49967 14.168 7.49967H10.8346V5.83301H14.168C15.3207 5.83301 16.3034 6.23926 17.1159 7.05176C17.9284 7.86426 18.3346 8.8469 18.3346 9.99967C18.3346 11.1525 17.9284 12.1351 17.1159 12.9476C16.3034 13.7601 15.3207 14.1663 14.168 14.1663H10.8346Z" fill="#888888"/>
</g>
</svg>
