<svg width="20" height="20" viewBox="0 0 20 20" fill="none" xmlns="http://www.w3.org/2000/svg">
<mask id="mask0_1516_14496" style="mask-type:alpha" maskUnits="userSpaceOnUse" x="0" y="0" width="20" height="20">
<rect width="20" height="20" fill="#D9D9D9"/>
</mask>
<g mask="url(#mask0_1516_14496)">
<path d="M9.9987 16.6673C9.54036 16.6673 9.148 16.5041 8.82161 16.1777C8.49523 15.8513 8.33203 15.459 8.33203 15.0007C8.33203 14.5423 8.49523 14.15 8.82161 13.8236C9.148 13.4972 9.54036 13.334 9.9987 13.334C10.457 13.334 10.8494 13.4972 11.1758 13.8236C11.5022 14.15 11.6654 14.5423 11.6654 15.0007C11.6654 15.459 11.5022 15.8513 11.1758 16.1777C10.8494 16.5041 10.457 16.6673 9.9987 16.6673ZM9.9987 11.6673C9.54036 11.6673 9.148 11.5041 8.82161 11.1777C8.49523 10.8513 8.33203 10.459 8.33203 10.0007C8.33203 9.54232 8.49523 9.14996 8.82161 8.82357C9.148 8.49718 9.54036 8.33398 9.9987 8.33398C10.457 8.33398 10.8494 8.49718 11.1758 8.82357C11.5022 9.14996 11.6654 9.54232 11.6654 10.0007C11.6654 10.459 11.5022 10.8513 11.1758 11.1777C10.8494 11.5041 10.457 11.6673 9.9987 11.6673ZM9.9987 6.66732C9.54036 6.66732 9.148 6.50412 8.82161 6.17773C8.49523 5.85135 8.33203 5.45898 8.33203 5.00065C8.33203 4.54232 8.49523 4.14996 8.82161 3.82357C9.148 3.49718 9.54036 3.33398 9.9987 3.33398C10.457 3.33398 10.8494 3.49718 11.1758 3.82357C11.5022 4.14996 11.6654 4.54232 11.6654 5.00065C11.6654 5.45898 11.5022 5.85135 11.1758 6.17773C10.8494 6.50412 10.457 6.66732 9.9987 6.66732Z" fill="#888888"/>
</g>
</svg>
