<svg width="41" height="40" viewBox="0 0 41 40" fill="none" xmlns="http://www.w3.org/2000/svg">
<g clip-path="url(#clip0_545_11680)">
<path d="M34.3238 13.3752C32.4646 12.6123 30.7967 11.4484 29.4392 9.9665C27.6798 8.2665 26.0192 6.6665 22.7565 6.6665C17.4078 6.6665 10.5565 7.29184 4.98384 12.1652C0.68251 15.9285 0.0898438 20.7178 0.0898438 25.3332C0.0898438 28.3205 1.21584 33.3332 8.75651 33.3332H29.4232C36.2018 33.3332 40.0898 29.9332 40.0898 23.9998C40.0898 19.4592 40.0898 15.5378 34.3238 13.3752ZM8.75651 31.9998C3.88984 31.9998 1.42318 29.7572 1.42318 25.3332C1.42318 21.3265 1.76651 16.7518 5.86251 13.1678C7.7657 11.5149 9.97542 10.2525 12.3658 9.4525C9.89918 11.5892 7.14984 14.6885 6.11318 18.4912C4.86518 23.0665 5.38718 27.4592 7.50918 30.2378C8.0344 30.9265 8.67147 31.5221 9.39384 31.9998H8.75651ZM14.0898 31.9998C11.9424 32.0845 9.88623 31.1268 8.56918 29.4285C6.69718 26.9778 6.25984 23.0205 7.39984 18.8418C8.70784 14.0418 13.0752 10.3838 15.6325 8.58984C16.2832 8.4645 16.9312 8.3625 17.5718 8.28317C14.5198 10.3712 12.0898 14.6412 12.0898 21.9998C12.0898 27.7852 15.1418 30.6132 18.8765 31.9998H14.0898ZM29.4232 31.9998C21.6818 31.9998 13.4232 31.2272 13.4232 21.9998C13.4232 13.4952 17.0898 7.99984 22.7565 7.99984C25.4805 7.99984 26.8185 9.29117 28.5132 10.9258C30.0016 12.5353 31.8255 13.7979 33.8558 14.6245C38.7565 16.4618 38.7565 19.4605 38.7565 23.9998C38.7565 26.9872 37.5438 31.9998 29.4232 31.9998Z" fill="#888888"/>
<path d="M33.3891 15.8723C31.1884 14.9819 29.2089 13.6213 27.5891 11.8857C25.8505 10.2083 24.8458 9.33301 22.7578 9.33301C17.8245 9.33301 14.7578 14.1863 14.7578 21.9997C14.7578 29.2163 20.3698 30.6663 29.4245 30.6663C34.7325 30.6663 37.4245 28.4237 37.4245 23.9997C37.4245 19.085 37.2291 17.3123 33.3891 15.8723ZM22.7578 10.6663C23.3107 10.6488 23.8601 10.7602 24.3625 10.9917C23.7227 12.109 23.3984 13.3791 23.4245 14.6663C23.3996 15.9758 23.7823 17.2607 24.5198 18.343C24.9302 18.9421 25.2121 19.6196 25.3478 20.333C23.5938 19.8237 21.0145 19.8297 19.5191 22.3217C18.3591 24.2583 17.5071 24.9317 16.6118 25.179C16.23 24.164 16.053 23.0834 16.0911 21.9997C16.0911 15.009 18.6458 10.6663 22.7578 10.6663ZM29.4245 29.333C22.3445 29.333 18.8911 28.3037 17.3058 26.347C18.5351 25.8937 19.5385 24.8863 20.6625 23.0097C22.0398 20.7143 24.5771 21.443 25.4711 21.7917C25.5624 22.5622 25.9439 23.269 26.5378 23.7683C27.7198 24.7683 29.6778 25.077 32.2045 24.657C33.6591 24.2661 35.1639 25.0884 35.6205 26.5237C34.7658 28.4243 32.7458 29.333 29.4245 29.333ZM36.0631 24.685C35.0624 23.5067 33.486 22.9882 31.9811 23.3423C29.8891 23.6903 28.2605 23.4817 27.3991 22.751C26.9787 22.4021 26.7422 21.8791 26.7578 21.333C26.7827 20.0235 26.4 18.7387 25.6625 17.6563C25.0486 16.7822 24.7315 15.7342 24.7578 14.6663C24.7351 13.6461 24.9794 12.6377 25.4665 11.741C25.8158 12.0377 26.1998 12.397 26.6631 12.845C28.4102 14.7121 30.5467 16.172 32.9211 17.121C35.9845 18.2697 36.0911 19.3037 36.0911 23.9997C36.0911 24.2363 36.0811 24.4663 36.0631 24.685Z" fill="#888888"/>
</g>
<defs>
<clipPath id="clip0_545_11680">
<rect width="40" height="40" fill="white" transform="translate(0.0898438)"/>
</clipPath>
</defs>
</svg>
