<svg width="20" height="20" viewBox="0 0 20 20" fill="none" xmlns="http://www.w3.org/2000/svg">
<mask id="mask0_315_6138" style="mask-type:alpha" maskUnits="userSpaceOnUse" x="0" y="0" width="20" height="20">
<rect width="20" height="20" fill="#D9D9D9"/>
</mask>
<g mask="url(#mask0_315_6138)">
<path d="M3.33464 16.6668C2.8763 16.6668 2.48394 16.5036 2.15755 16.1772C1.83116 15.8509 1.66797 15.4585 1.66797 15.0002V5.00016C1.66797 4.54183 1.83116 4.14947 2.15755 3.82308C2.48394 3.49669 2.8763 3.3335 3.33464 3.3335H16.668C17.1263 3.3335 17.5187 3.49669 17.8451 3.82308C18.1714 4.14947 18.3346 4.54183 18.3346 5.00016V15.0002C18.3346 15.4585 18.1714 15.8509 17.8451 16.1772C17.5187 16.5036 17.1263 16.6668 16.668 16.6668H3.33464ZM10.0013 10.8335L3.33464 6.66683V15.0002H16.668V6.66683L10.0013 10.8335ZM10.0013 9.16683L16.668 5.00016H3.33464L10.0013 9.16683ZM3.33464 6.66683V5.00016V15.0002V6.66683Z" fill="#888888"/>
</g>
</svg>
