<svg width="30" height="30" viewBox="0 0 30 30" fill="none" xmlns="http://www.w3.org/2000/svg">
<mask id="mask0_2_103120" style="mask-type:alpha" maskUnits="userSpaceOnUse" x="0" y="0" width="30" height="30">
<rect width="30" height="30" fill="#D9D9D9"/>
</mask>
<g mask="url(#mask0_2_103120)">
<path d="M13.75 28.6875V26.1875C11.1458 25.8958 8.91146 24.8177 7.04687 22.9531C5.18229 21.0885 4.10417 18.8542 3.8125 16.25H1.3125V13.75H3.8125C4.10417 11.1458 5.18229 8.91146 7.04687 7.04687C8.91146 5.18229 11.1458 4.10417 13.75 3.8125V1.3125H16.25V3.8125C18.8542 4.10417 21.0885 5.18229 22.9531 7.04687C24.8177 8.91146 25.8958 11.1458 26.1875 13.75H28.6875V16.25H26.1875C25.8958 18.8542 24.8177 21.0885 22.9531 22.9531C21.0885 24.8177 18.8542 25.8958 16.25 26.1875V28.6875H13.75ZM15 23.75C17.4167 23.75 19.4792 22.8958 21.1875 21.1875C22.8958 19.4792 23.75 17.4167 23.75 15C23.75 12.5833 22.8958 10.5208 21.1875 8.8125C19.4792 7.10417 17.4167 6.25 15 6.25C12.5833 6.25 10.5208 7.10417 8.8125 8.8125C7.10417 10.5208 6.25 12.5833 6.25 15C6.25 17.4167 7.10417 19.4792 8.8125 21.1875C10.5208 22.8958 12.5833 23.75 15 23.75ZM15 20C13.625 20 12.4479 19.5104 11.4687 18.5312C10.4896 17.5521 10 16.375 10 15C10 13.625 10.4896 12.4479 11.4687 11.4687C12.4479 10.4896 13.625 10 15 10C16.375 10 17.5521 10.4896 18.5312 11.4687C19.5104 12.4479 20 13.625 20 15C20 16.375 19.5104 17.5521 18.5312 18.5312C17.5521 19.5104 16.375 20 15 20ZM15 17.5C15.6875 17.5 16.276 17.2552 16.7656 16.7656C17.2552 16.276 17.5 15.6875 17.5 15C17.5 14.3125 17.2552 13.724 16.7656 13.2344C16.276 12.7448 15.6875 12.5 15 12.5C14.3125 12.5 13.724 12.7448 13.2344 13.2344C12.7448 13.724 12.5 14.3125 12.5 15C12.5 15.6875 12.7448 16.276 13.2344 16.7656C13.724 17.2552 14.3125 17.5 15 17.5Z" fill="#008CFF"/>
</g>
</svg>
