<svg width="18" height="15" viewBox="0 0 18 15" fill="none" xmlns="http://www.w3.org/2000/svg">
<path d="M7.33464 7.00016C6.41797 7.00016 5.63325 6.67377 4.98047 6.021C4.32769 5.36822 4.0013 4.5835 4.0013 3.66683C4.0013 2.75016 4.32769 1.96544 4.98047 1.31266C5.63325 0.659885 6.41797 0.333496 7.33464 0.333496C8.2513 0.333496 9.03602 0.659885 9.6888 1.31266C10.3416 1.96544 10.668 2.75016 10.668 3.66683C10.668 4.5835 10.3416 5.36822 9.6888 6.021C9.03602 6.67377 8.2513 7.00016 7.33464 7.00016ZM0.667969 13.6668V11.3335C0.667969 10.8752 0.786024 10.4446 1.02214 10.0418C1.25825 9.63905 1.58464 9.3335 2.0013 9.12516C2.70964 8.76405 3.50825 8.4585 4.39714 8.2085C5.28602 7.9585 6.26519 7.8335 7.33464 7.8335H7.6263C7.70964 7.8335 7.79297 7.84739 7.8763 7.87516C7.76519 8.12516 7.67144 8.38558 7.59505 8.65641C7.51866 8.92725 7.45964 9.2085 7.41797 9.50016H7.33464C6.34852 9.50016 5.46311 9.62516 4.67839 9.87516C3.89366 10.1252 3.2513 10.3752 2.7513 10.6252C2.6263 10.6946 2.52561 10.7918 2.44922 10.9168C2.37283 11.0418 2.33464 11.1807 2.33464 11.3335V12.0002H7.58464C7.66797 12.2918 7.77908 12.58 7.91797 12.8647C8.05686 13.1495 8.20964 13.4168 8.3763 13.6668H0.667969ZM12.3346 14.5002L12.0846 13.2502C11.918 13.1807 11.7617 13.1078 11.6159 13.0314C11.4701 12.955 11.3207 12.8613 11.168 12.7502L9.95964 13.1252L9.1263 11.7085L10.0846 10.8752C10.0569 10.6807 10.043 10.5002 10.043 10.3335C10.043 10.1668 10.0569 9.98627 10.0846 9.79183L9.1263 8.9585L9.95964 7.54183L11.168 7.91683C11.3207 7.80572 11.4701 7.71197 11.6159 7.63558C11.7617 7.55919 11.918 7.48627 12.0846 7.41683L12.3346 6.16683H14.0013L14.2513 7.41683C14.418 7.48627 14.5742 7.56266 14.7201 7.646C14.8659 7.72933 15.0152 7.8335 15.168 7.9585L16.3763 7.54183L17.2096 9.00016L16.2513 9.8335C16.2791 10.0002 16.293 10.1738 16.293 10.3543C16.293 10.5349 16.2791 10.7085 16.2513 10.8752L17.2096 11.7085L16.3763 13.1252L15.168 12.7502C15.0152 12.8613 14.8659 12.955 14.7201 13.0314C14.5742 13.1078 14.418 13.1807 14.2513 13.2502L14.0013 14.5002H12.3346ZM13.168 12.0002C13.6263 12.0002 14.0187 11.837 14.3451 11.5106C14.6714 11.1842 14.8346 10.7918 14.8346 10.3335C14.8346 9.87516 14.6714 9.4828 14.3451 9.15641C14.0187 8.83002 13.6263 8.66683 13.168 8.66683C12.7096 8.66683 12.3173 8.83002 11.9909 9.15641C11.6645 9.4828 11.5013 9.87516 11.5013 10.3335C11.5013 10.7918 11.6645 11.1842 11.9909 11.5106C12.3173 11.837 12.7096 12.0002 13.168 12.0002ZM7.33464 5.3335C7.79297 5.3335 8.18533 5.1703 8.51172 4.84391C8.83811 4.51752 9.0013 4.12516 9.0013 3.66683C9.0013 3.2085 8.83811 2.81614 8.51172 2.48975C8.18533 2.16336 7.79297 2.00016 7.33464 2.00016C6.8763 2.00016 6.48394 2.16336 6.15755 2.48975C5.83116 2.81614 5.66797 3.2085 5.66797 3.66683C5.66797 4.12516 5.83116 4.51752 6.15755 4.84391C6.48394 5.1703 6.8763 5.3335 7.33464 5.3335Z" fill="#888888"/>
</svg>
