<svg width="20" height="18" viewBox="0 0 20 18" fill="none" xmlns="http://www.w3.org/2000/svg">
<path d="M14.7368 10.5068C14.754 10.4356 14.7545 10.3614 14.7384 10.2899C14.7224 10.2184 14.6901 10.1516 14.6441 10.0945C14.5982 10.0374 14.5397 9.99168 14.4733 9.96076C14.4069 9.92984 14.3342 9.91456 14.261 9.91612C14.1877 9.91768 14.1158 9.93603 14.0508 9.96975C13.9857 10.0035 13.9293 10.0517 13.8858 10.1106C13.8423 10.1696 13.8129 10.2378 13.7999 10.3099C13.7869 10.382 13.7906 10.4561 13.8107 10.5266C13.4977 10.578 13.2154 10.7451 13.0196 10.9946C12.8238 11.2442 12.7288 11.5582 12.7533 11.8744C12.7778 12.1907 12.92 12.4862 13.1519 12.7027C13.3838 12.9191 13.6885 13.0407 14.0057 13.0434C14.3018 13.0622 14.873 12.9249 14.8843 13.3852C14.8842 13.4759 14.8481 13.5628 14.7841 13.6269C14.72 13.691 14.633 13.727 14.5424 13.7271H13.2002C13.079 13.7295 12.9635 13.7793 12.8786 13.8659C12.7937 13.9525 12.7461 14.0689 12.7461 14.1902C12.7461 14.3115 12.7937 14.4279 12.8786 14.5145C12.9635 14.6011 13.079 14.6509 13.2002 14.6532H13.8107V14.7853C13.8128 14.8526 13.8293 14.9188 13.859 14.9792C13.8887 15.0397 13.931 15.0931 13.983 15.1359C14.0351 15.1788 14.0956 15.21 14.1607 15.2275C14.2257 15.245 14.2938 15.2484 14.3603 15.2376C14.4268 15.2267 14.4902 15.2017 14.5462 15.1643C14.6023 15.127 14.6498 15.0781 14.6854 15.0209C14.721 14.9637 14.7441 14.8996 14.7529 14.8328C14.7618 14.766 14.7563 14.6981 14.7368 14.6336C15.0497 14.5821 15.332 14.4152 15.5278 14.1657C15.7236 13.9162 15.8186 13.6024 15.7942 13.2862C15.7698 12.97 15.6276 12.6745 15.3958 12.458C15.164 12.2416 14.8595 12.12 14.5424 12.1172H14.0056C13.916 12.1156 13.8306 12.0788 13.7677 12.0148C13.7049 11.9508 13.6697 11.8647 13.6698 11.7751C13.6698 11.6854 13.7049 11.5994 13.7678 11.5354C13.8306 11.4714 13.916 11.4346 14.0056 11.433H15.3473C15.4686 11.4306 15.5841 11.3808 15.669 11.2942C15.7539 11.2076 15.8015 11.0912 15.8015 10.9699C15.8015 10.8486 15.7539 10.7322 15.669 10.6456C15.5841 10.559 15.4686 10.5092 15.3473 10.5068H14.7368Z" fill="#888888"/>
<path d="M1.37692 10.8554C2.03365 12.6683 3.35122 14.166 5.06559 15.0485C6.77997 15.9309 8.7645 16.1329 10.6215 15.6139C11.0801 16.1668 11.658 16.6086 12.3119 16.906C12.9657 17.2035 13.6785 17.3489 14.3966 17.3313C15.1147 17.3136 15.8195 17.1335 16.458 16.8043C17.0965 16.4752 17.6521 16.0056 18.083 15.4309C18.5139 14.8561 18.8089 14.1912 18.9459 13.486C19.0829 12.7809 19.0583 12.0539 18.8739 11.3596C18.6895 10.6653 18.3502 10.0219 17.8814 9.47761C17.4126 8.93334 16.8266 8.5024 16.1673 8.21719C16.163 7.36563 16.0136 6.52103 15.7254 5.71973C15.1945 4.24177 14.2207 2.96353 12.9367 2.05929C11.6528 1.15505 10.1211 0.668817 8.55073 0.666901C3.38165 0.586327 -0.451063 6.01861 1.37692 10.8554ZM5.28456 6.36394C5.13675 7.64173 5.13688 8.9323 5.28494 10.2101H2.14383C1.76363 8.95622 1.7635 7.61784 2.14346 6.36394H5.28456ZM8.55073 1.59304C9.32256 1.59304 10.2947 2.91141 10.7573 5.4378H6.34388C6.80692 2.91134 7.77896 1.59304 8.55073 1.59304ZM10.886 6.36394C10.997 7.28732 11.0294 8.21848 10.9827 9.14734C10.6578 9.46086 10.3786 9.81861 10.1535 10.2101H6.21559C6.06108 8.93268 6.06096 7.64135 6.21521 6.36394H10.886ZM14.9579 6.36394C15.1102 6.87099 15.2012 7.3945 15.2288 7.92322C14.1006 7.68661 12.9248 7.87316 11.9253 8.44735C11.9258 8.39322 11.9302 8.34045 11.9302 8.2863C11.9276 7.64391 11.8897 7.00215 11.8166 6.36392L14.9579 6.36394ZM6.34445 11.1362H9.74848C9.4438 12.0812 9.44371 13.098 9.74823 14.0431C8.33185 16.249 6.96042 14.2385 6.34445 11.1362ZM2.4974 11.1362H5.40598C5.57533 12.4027 6.00911 13.6195 6.67917 14.7076C5.7694 14.4415 4.92634 13.9856 4.20555 13.37C3.48475 12.7545 2.9026 11.9931 2.4974 11.1362ZM18.107 12.5806C18.1058 13.5963 17.7017 14.57 16.9835 15.2881C16.2652 16.0063 15.2915 16.4102 14.2758 16.4113C10.8013 16.4562 9.10177 11.969 11.7432 9.70543C14.1518 7.53908 18.1533 9.33168 18.107 12.5806ZM14.6045 5.4378H11.6957C11.5264 4.17093 11.0925 2.95382 10.4223 1.86551C11.3322 2.13164 12.1754 2.58762 12.8963 3.20336C13.6172 3.81911 14.1994 4.58066 14.6045 5.4378ZM6.67914 1.86553C6.00889 2.95385 5.57495 4.17093 5.4055 5.4378H2.49678C2.90193 4.58066 3.48415 3.81911 4.20506 3.20337C4.92597 2.58763 5.76919 2.13166 6.67914 1.86553Z" fill="#888888"/>
</svg>
