<svg width="18" height="18" viewBox="0 0 18 18" fill="none" xmlns="http://www.w3.org/2000/svg">
<mask id="mask0_2_103066" style="mask-type:alpha" maskUnits="userSpaceOnUse" x="0" y="0" width="18" height="18">
<rect x="0.5" y="0.5" width="17" height="17" fill="#888888" stroke="$gray-400"/>
</mask>
<g mask="url(#mask0_2_103066)">
<path d="M6 4.5125H6.0125V4.5V3C6.0125 2.59084 6.15804 2.24089 6.44946 1.94946C6.74089 1.65804 7.09084 1.5125 7.5 1.5125H10.5C10.9092 1.5125 11.2591 1.65804 11.5505 1.94946C11.842 2.24089 11.9875 2.59084 11.9875 3V4.5V4.5125H12H15C15.4092 4.5125 15.7591 4.65804 16.0505 4.94946C16.342 5.24089 16.4875 5.59084 16.4875 6V14.25C16.4875 14.6592 16.342 15.0091 16.0505 15.3005C15.7591 15.592 15.4092 15.7375 15 15.7375H3C2.59084 15.7375 2.24089 15.592 1.94946 15.3005C1.65804 15.0091 1.5125 14.6592 1.5125 14.25V6C1.5125 5.59084 1.65804 5.24089 1.94946 4.94946C2.24089 4.65804 2.59084 4.5125 3 4.5125H6ZM2.9875 14.25V14.2625H3H15H15.0125V14.25V6V5.9875H15H3H2.9875V6V14.25ZM7.4875 4.5V4.5125H7.5H10.5H10.5125V4.5V3V2.9875H10.5H7.5H7.4875V3V4.5Z" fill="#888888" stroke="$gray-400" stroke-width="0.025"/>
</g>
</svg>
