<svg width="36" height="36" viewBox="0 0 36 36" fill="none" xmlns="http://www.w3.org/2000/svg">
<mask id="mask0_2_109482" style="mask-type:luminance" maskUnits="userSpaceOnUse" x="0" y="0" width="36" height="36">
<path d="M0 0H36V36H0V0Z" fill="white"/>
</mask>
<g mask="url(#mask0_2_109482)">
<path d="M22.1332 0.48561C12.4617 -1.79799 2.76997 4.19083 0.485838 13.8622C-1.79829 23.5337 4.18998 33.2257 13.8613 35.5104C23.5326 37.795 33.2249 31.8072 35.5101 22.1361C36.6077 17.4911 35.8149 12.6004 33.3061 8.54007C30.7975 4.47971 26.7783 1.58239 22.1332 0.48561Z" fill="#5F259F"/>
<path fill-rule="evenodd" clip-rule="evenodd" d="M26.1647 13.3027C26.1444 12.592 25.5689 12.0229 24.858 12.0107H22.4439L16.9157 5.66204C16.3877 5.06891 15.5648 4.8338 14.8034 5.05853L12.8873 5.66204C12.7491 5.70889 12.6426 5.82048 12.6023 5.96073C12.562 6.10097 12.593 6.25207 12.6851 6.36516L18.7232 12.0957H9.57679C9.44242 12.0897 9.31183 12.1407 9.21697 12.2361C9.1222 12.3314 9.07198 12.4623 9.07873 12.5966V13.6015C9.09124 14.3179 9.66895 14.8956 10.3853 14.9082H11.7946V19.7363C11.7946 23.3544 13.7047 25.4667 16.9215 25.4667C17.8848 25.4963 18.8436 25.3247 19.7369 24.9628V28.1855C19.7313 28.6137 19.899 29.0261 20.2018 29.3289C20.5047 29.6318 20.9171 29.7995 21.3454 29.7939H22.7515C23.0751 29.7713 23.3325 29.5139 23.3551 29.1903V14.8114H25.6608C25.7966 14.8191 25.9293 14.7686 26.0255 14.6724C26.1218 14.5762 26.1724 14.4434 26.1647 14.3076V13.3027ZM19.7193 21.9482C19.0852 22.2255 18.3986 22.3625 17.7067 22.3495C16.0982 22.3495 15.2955 21.5468 15.2955 19.7363V14.911H19.7193V21.9423V21.9482Z" fill="white"/>
</g>
</svg>
