<svg width="20" height="20" viewBox="0 0 20 20" fill="none" xmlns="http://www.w3.org/2000/svg">
<mask id="mask0_315_6682" style="mask-type:alpha" maskUnits="userSpaceOnUse" x="0" y="0" width="20" height="20">
<rect width="20" height="20" fill="#D9D9D9"/>
</mask>
<g mask="url(#mask0_315_6682)">
<path d="M5.83073 19.1668C5.3724 19.1668 4.98003 19.0036 4.65365 18.6772C4.32726 18.3509 4.16406 17.9585 4.16406 17.5002V2.50016C4.16406 2.04183 4.32726 1.64947 4.65365 1.32308C4.98003 0.996691 5.3724 0.833496 5.83073 0.833496H14.1641C14.6224 0.833496 15.0148 0.996691 15.3411 1.32308C15.6675 1.64947 15.8307 2.04183 15.8307 2.50016V17.5002C15.8307 17.9585 15.6675 18.3509 15.3411 18.6772C15.0148 19.0036 14.6224 19.1668 14.1641 19.1668H5.83073ZM5.83073 15.0002V17.5002H14.1641V15.0002H5.83073ZM9.9974 17.0835C10.2335 17.0835 10.4314 17.0036 10.5911 16.8439C10.7509 16.6842 10.8307 16.4863 10.8307 16.2502C10.8307 16.0141 10.7509 15.8161 10.5911 15.6564C10.4314 15.4967 10.2335 15.4168 9.9974 15.4168C9.76128 15.4168 9.56337 15.4967 9.40365 15.6564C9.24392 15.8161 9.16406 16.0141 9.16406 16.2502C9.16406 16.4863 9.24392 16.6842 9.40365 16.8439C9.56337 17.0036 9.76128 17.0835 9.9974 17.0835ZM5.83073 13.3335H14.1641V5.00016H5.83073V13.3335ZM5.83073 3.3335H14.1641V2.50016H5.83073V3.3335Z" fill="#888888"/>
</g>
</svg>
