<svg width="41" height="40" viewBox="0 0 41 40" fill="none" xmlns="http://www.w3.org/2000/svg">
<g clip-path="url(#clip0_545_11759)">
<path d="M20.4531 38.8281C30.8516 38.8281 39.2812 30.3985 39.2812 20C39.2812 9.60151 30.8516 1.17188 20.4531 1.17188C10.0546 1.17188 1.625 9.60151 1.625 20C1.625 30.3985 10.0546 38.8281 20.4531 38.8281Z" stroke="#888888" stroke-width="1.79688" stroke-miterlimit="10" stroke-linejoin="round"/>
<path d="M20.4531 32.1875C27.1841 32.1875 32.6406 26.731 32.6406 20C32.6406 13.269 27.1841 7.8125 20.4531 7.8125C13.7222 7.8125 8.26562 13.269 8.26562 20C8.26562 26.731 13.7222 32.1875 20.4531 32.1875Z" stroke="#888888" stroke-width="1.79688" stroke-miterlimit="10" stroke-linejoin="round"/>
<path d="M21.0638 12.3926L19.8398 13.4863" stroke="#888888" stroke-width="1.79688" stroke-miterlimit="10" stroke-linecap="round" stroke-linejoin="round"/>
<path d="M21.0638 26.5137L19.8398 27.6074" stroke="#888888" stroke-width="1.79688" stroke-miterlimit="10" stroke-linecap="round" stroke-linejoin="round"/>
<path d="M26.9688 19.3882L28.0625 20.6121" stroke="#888888" stroke-width="1.79688" stroke-miterlimit="10" stroke-linecap="round" stroke-linejoin="round"/>
<path d="M12.8438 19.3882L13.9375 20.6121" stroke="#888888" stroke-width="1.79688" stroke-miterlimit="10" stroke-linecap="round" stroke-linejoin="round"/>
<path d="M19.9062 19.3882L21 20.6121" stroke="#888888" stroke-width="1.79688" stroke-miterlimit="10" stroke-linecap="round" stroke-linejoin="round"/>
<path d="M25.1611 25.8789C25.7741 25.8789 26.3614 25.3399 26.333 24.707C26.3046 24.0721 25.8181 23.5352 25.1611 23.5352C24.5482 23.5352 23.9609 24.0741 23.9893 24.707C24.0177 25.342 24.5042 25.8789 25.1611 25.8789Z" fill="#888888"/>
<path d="M15.7471 25.8789C16.36 25.8789 16.9473 25.3399 16.919 24.707C16.8905 24.0721 16.404 23.5352 15.7471 23.5352C15.1341 23.5352 14.5468 24.0741 14.5752 24.707C14.6036 25.342 15.0901 25.8789 15.7471 25.8789Z" fill="#888888"/>
<path d="M15.7471 16.4648C16.36 16.4648 16.9473 15.9259 16.919 15.293C16.8905 14.658 16.404 14.1211 15.7471 14.1211C15.1341 14.1211 14.5468 14.6601 14.5752 15.293C14.6036 15.9279 15.0901 16.4648 15.7471 16.4648Z" fill="#888888"/>
<path d="M25.1611 16.4648C25.7741 16.4648 26.3614 15.9259 26.333 15.293C26.3046 14.658 25.8181 14.1211 25.1611 14.1211C24.5482 14.1211 23.9609 14.6601 23.9893 15.293C24.0177 15.9279 24.5042 16.4648 25.1611 16.4648Z" fill="#888888"/>
</g>
<defs>
<clipPath id="clip0_545_11759">
<rect width="40" height="40" fill="white" transform="translate(0.453125)"/>
</clipPath>
</defs>
</svg>
