<svg width="40" height="40" viewBox="0 0 40 40" fill="none" xmlns="http://www.w3.org/2000/svg">
<path d="M30.8757 13.4071C30.3605 12.7957 29.6684 12.2875 28.8159 11.8929C28.6249 11.4048 28.3617 10.9602 28.0257 10.5614C26.6822 8.96726 24.1324 8.08938 20.8454 8.08938C19.8613 8.08938 15.9707 8.04829 13.7816 8.00042C12.8937 7.98171 12.1112 8.59527 11.9173 9.46049L8.04587 26.8763C7.92096 27.433 8.05394 28.0079 8.41071 28.4534C8.76729 28.8988 9.29923 29.1543 9.86969 29.1543H11.0223L10.8961 29.722C10.7712 30.2787 10.9042 30.8536 11.261 31.2991C11.6176 31.7445 12.1495 32 12.7201 32H17.4063C18.2947 32 19.0654 31.3677 19.2393 30.4968L20.0697 26.3389L24.4565 26.2885L24.4927 26.2844C24.7841 26.2508 26.3213 26.0271 27.967 24.9127C28.9056 24.2774 29.7025 23.4684 30.3359 22.5084C31.1081 21.3383 31.6377 19.94 31.9095 18.3528C32.261 16.3021 31.9132 14.6381 30.8757 13.4071ZM9.51127 27.5723C9.45973 27.5079 9.37957 27.372 9.42176 27.1834L13.2932 9.7681C13.341 9.55588 13.5336 9.40437 13.751 9.41005C15.9481 9.45793 19.8564 9.4992 20.8454 9.4992C23.668 9.4992 25.8922 10.2175 26.9475 11.4699C27.7047 12.3685 27.9477 13.6468 27.6698 15.2689C27.2366 17.7961 26.1118 19.6906 24.3261 20.8996C23.0018 21.7963 21.7339 22.0036 21.5131 22.0339L17.1549 22.0839C16.4903 22.0839 15.9853 22.4662 15.8689 23.0565L15.0066 27.3751C14.9638 27.5891 14.7743 27.7445 14.5561 27.7445H9.86969C9.67782 27.7445 9.56263 27.6365 9.51127 27.5723ZM30.5199 18.1146C30.0868 20.6418 28.9621 22.5363 27.1764 23.7452C25.852 24.642 24.5842 24.8493 24.3634 24.8795L20.0051 24.9296C19.3406 24.9296 18.8356 25.3119 18.7191 25.9022L17.8568 30.2208C17.8141 30.4348 17.6246 30.5902 17.4063 30.5902H12.7201C12.5281 30.5902 12.4131 30.4823 12.3615 30.4179C12.31 30.3536 12.2298 30.2176 12.272 30.0291L12.4666 29.1543H14.5562C15.4444 29.1543 16.2153 28.522 16.3892 27.6511L17.2194 23.493L21.6063 23.4428L21.6424 23.4387C21.9339 23.4052 23.471 23.1814 25.1167 22.0671C26.0553 21.4315 26.8523 20.6226 27.4858 19.6627C28.2579 18.4924 28.7874 17.0944 29.0593 15.507C29.1664 14.8819 29.2082 14.2929 29.1856 13.7409C29.4193 13.9178 29.624 14.1095 29.7977 14.3154C30.5549 15.2142 30.798 16.4925 30.5199 18.1146Z" fill="#888888"/>
</svg>
