<svg width="18" height="18" viewBox="0 0 18 18" fill="none" xmlns="http://www.w3.org/2000/svg">
<path d="M7.83464 12.8327L13.7096 6.95768L12.543 5.79102L7.83464 10.4993L5.45964 8.12435L4.29297 9.29102L7.83464 12.8327ZM9.0013 17.3327C7.84852 17.3327 6.76519 17.1139 5.7513 16.6764C4.73741 16.2389 3.85547 15.6452 3.10547 14.8952C2.35547 14.1452 1.76172 13.2632 1.32422 12.2493C0.886719 11.2355 0.667969 10.1521 0.667969 8.99935C0.667969 7.84657 0.886719 6.76324 1.32422 5.74935C1.76172 4.73546 2.35547 3.85352 3.10547 3.10352C3.85547 2.35352 4.73741 1.75977 5.7513 1.32227C6.76519 0.884766 7.84852 0.666016 9.0013 0.666016C10.1541 0.666016 11.2374 0.884766 12.2513 1.32227C13.2652 1.75977 14.1471 2.35352 14.8971 3.10352C15.6471 3.85352 16.2409 4.73546 16.6784 5.74935C17.1159 6.76324 17.3346 7.84657 17.3346 8.99935C17.3346 10.1521 17.1159 11.2355 16.6784 12.2493C16.2409 13.2632 15.6471 14.1452 14.8971 14.8952C14.1471 15.6452 13.2652 16.2389 12.2513 16.6764C11.2374 17.1139 10.1541 17.3327 9.0013 17.3327Z" fill="#26A661"/>
</svg>
