<svg width="40" height="40" viewBox="0 0 40 40" fill="none" xmlns="http://www.w3.org/2000/svg">
<circle cx="20" cy="20" r="20" fill="#EEF0F1"/>
<path d="M23.0157 19.2736C24.2954 18.3403 25.1288 16.8298 25.1288 15.1282C25.1288 12.3005 22.8283 10 20.0006 10C17.1729 10 14.8724 12.3005 14.8724 15.1282C14.8724 16.8298 15.7057 18.3403 16.9855 19.2736C13.8042 20.491 11.5391 23.5754 11.5391 27.1795C11.5391 28.7347 12.8043 30 14.3596 30H25.6416C27.1968 30 28.4621 28.7347 28.4621 27.1795C28.4621 23.5754 26.197 20.491 23.0157 19.2736ZM16.4109 15.1282C16.4109 13.1488 18.0212 11.5385 20.0006 11.5385C21.98 11.5385 23.5903 13.1488 23.5903 15.1282C23.5903 17.1076 21.98 18.718 20.0006 18.718C18.0212 18.718 16.4109 17.1076 16.4109 15.1282ZM25.6416 28.4615H14.3596C13.6527 28.4615 13.0775 27.8864 13.0775 27.1795C13.0775 23.362 16.1832 20.2564 20.0006 20.2564C23.8181 20.2564 26.9237 23.362 26.9237 27.1795C26.9237 27.8864 26.3486 28.4615 25.6416 28.4615Z" fill="#888888"/>
</svg>
