<svg width="41" height="40" viewBox="0 0 41 40" fill="none" xmlns="http://www.w3.org/2000/svg">
<g clip-path="url(#clip0_545_11709)">
<path d="M0.274216 19.3333C0.274216 26.2533 3.66755 32.88 8.94088 36.3533V38C8.94088 39.1 9.84088 40 10.9409 40H29.6076C30.7076 40 31.6076 39.1 31.6076 38V36.3533C36.8809 32.88 40.2742 26.2533 40.2742 19.3333C40.2742 18.2333 39.3742 17.3333 38.2742 17.3333H36.9409C37.2676 16.94 37.5476 16.5067 37.7476 16.0267C38.3342 14.6 38.2209 12.9733 37.4809 11.64C37.9676 11.2067 38.3542 10.6667 38.6142 10.04C39.0542 8.96 39.0476 7.78 38.5942 6.70666C38.1409 5.64 37.3076 4.81333 36.2542 4.38666C36.2076 4.36666 36.1676 4.34666 36.1209 4.33333C36.4609 2.66666 35.5809 0.939997 33.9542 0.266664C32.3342 -0.393336 30.4942 0.219997 29.5676 1.64666C29.5276 1.62666 29.4876 1.61333 29.4476 1.59333C27.2342 0.686664 24.7009 1.75333 23.7942 3.96C23.5342 4.58666 23.4276 5.24 23.4676 5.9C22.6276 6.14666 21.8742 6.60666 21.2676 7.22666C20.2009 5.70666 18.7676 4.66 16.9342 4.66C14.8742 4.66 13.3142 5.97333 12.2209 7.80666C11.7542 7.37333 11.1809 7.08 10.5609 6.96L10.6476 3.68C10.6609 3.14666 10.4676 2.64 10.1009 2.25333C9.73422 1.86666 9.23422 1.64 8.69422 1.62666C8.67422 1.62666 8.66088 1.62666 8.64088 1.62666C7.91422 1.62666 7.28088 2.02666 6.92755 2.61333C6.55422 1.64 5.49422 1.1 4.48088 1.41333C3.96755 1.56666 3.54755 1.91333 3.30088 2.38666C3.07422 2.82 3.01422 3.30666 3.12755 3.78C2.96088 3.7 2.78755 3.63333 2.60755 3.60666C2.08088 3.51333 1.54755 3.64 1.11422 3.94666C0.680883 4.26 0.387549 4.72666 0.300883 5.25333C0.214216 5.78 0.334216 6.30666 0.640883 6.74L2.54755 9.42666C2.26088 9.72 2.00755 10.0467 1.84088 10.4333C1.43422 11.34 1.44755 12.38 1.86755 13.28L3.76755 17.3333H2.27422C1.17422 17.3333 0.274216 18.2333 0.274216 19.3333ZM30.2742 38C30.2742 38.3667 29.9742 38.6667 29.6076 38.6667H10.9409C10.5742 38.6667 10.2742 38.3667 10.2742 38V36.6667H30.2742V38ZM38.9409 19.3333C38.9409 25.7733 35.6542 32.1733 30.7476 35.3333H9.80088C4.89422 32.1733 1.60755 25.7733 1.60755 19.3333C1.60755 18.9667 1.90755 18.6667 2.27422 18.6667H38.2742C38.6409 18.6667 38.9409 18.9667 38.9409 19.3333ZM14.9409 16C14.9409 14.9 15.8409 14 16.9409 14C18.0409 14 18.9409 14.9 18.9409 16C18.9409 16.4933 18.7476 16.9667 18.4142 17.3333H15.4676C15.1342 16.9667 14.9409 16.4933 14.9409 16ZM24.3209 7.08C24.5009 7.05333 24.6676 6.94666 24.7676 6.8C24.8742 6.64666 24.9076 6.46 24.8676 6.28C24.7342 5.68 24.7876 5.06 25.0276 4.48C25.6542 2.94666 27.4142 2.21333 28.9276 2.83333C29.1009 2.91333 29.3076 3 29.4542 3.11333C29.6209 3.23333 29.8342 3.27333 30.0342 3.21333C30.2342 3.15333 30.3942 3.01333 30.4676 2.82L30.4942 2.76C30.9742 1.60666 32.3009 1.04 33.4609 1.51333C34.6209 1.98666 35.1742 3.32 34.7009 4.48L34.6742 4.54666C34.6009 4.73333 34.6142 4.94666 34.7076 5.12C34.8076 5.29333 34.9809 5.42 35.1809 5.45333C35.3609 5.48 35.5476 5.54 35.7409 5.62666C36.4809 5.92666 37.0609 6.5 37.3742 7.23333C37.6876 7.97333 37.6942 8.79333 37.3876 9.54C37.1476 10.12 36.7476 10.6 36.2409 10.9267C36.0876 11.0267 35.9742 11.1867 35.9409 11.3667C35.9076 11.5467 35.9476 11.7333 36.0609 11.8867C36.8342 12.9333 37.0142 14.3267 36.5209 15.5267C36.1942 16.3067 35.6409 16.9267 34.9209 17.34H27.7076L28.3542 15.76L31.3809 15.2667C31.7409 15.2067 31.9942 14.8667 31.9342 14.5C31.8742 14.1333 31.5342 13.8933 31.1676 13.9467L28.9476 14.3067L30.1742 11.3067L33.2076 10.8133C33.5676 10.7533 33.8209 10.4133 33.7609 10.0467C33.7009 9.68 33.3609 9.44 32.9942 9.49333L30.7676 9.86L32.1076 6.57333C32.2476 6.23333 32.0809 5.84666 31.7409 5.70666C31.4009 5.56666 31.0142 5.73333 30.8742 6.07333L29.5342 9.35333L28.2009 7.53333C27.9809 7.23333 27.5676 7.17333 27.2676 7.38666C26.9676 7.60666 26.9076 8.02 27.1209 8.32L28.9342 10.8L27.7076 13.8L26.3742 11.98C26.1542 11.68 25.7409 11.62 25.4409 11.8333C25.1409 12.0533 25.0809 12.4667 25.2942 12.7667L27.1076 15.2467L26.2542 17.3333H23.2809C23.4809 16.6867 23.6009 16.0133 23.6009 15.3333C23.6009 13.1933 23.0742 10.54 21.9876 8.42C22.5676 7.7 23.3942 7.22 24.3142 7.08H24.3209ZM16.9409 6C20.3742 6 22.2742 11.52 22.2742 15.3333C22.2742 16.02 22.1342 16.7 21.8742 17.3333H19.9942C20.1742 16.92 20.2742 16.4667 20.2742 16C20.2742 14.16 18.7809 12.6667 16.9409 12.6667C15.1009 12.6667 13.6076 14.16 13.6076 16C13.6076 16.4667 13.7076 16.92 13.8876 17.3333H12.0076C11.7476 16.7 11.6076 16.02 11.6076 15.3333C11.6076 14.9533 11.6342 14.5467 11.6676 14.14C12.0076 10.4667 13.8476 6 16.9409 6ZM8.18755 3.15333C8.31422 3.03333 8.47422 2.94666 8.66088 2.97333C8.84088 2.97333 9.00755 3.05333 9.13422 3.18C9.25422 3.30666 9.32088 3.47333 9.31422 3.65333L9.22755 6.97333C9.11422 6.99333 9.00755 7.00666 8.89422 7.04666L8.34088 7.21333L7.92088 5.82666L7.97422 3.62666C7.97422 3.44666 8.05422 3.28 8.18088 3.16L8.18755 3.15333ZM4.48755 3.02C4.56755 2.86 4.70755 2.74666 4.88088 2.69333C5.23422 2.58666 5.60755 2.78666 5.71422 3.14L7.07422 7.6L5.80088 7.99333L4.44088 3.53333C4.38755 3.36666 4.40755 3.18 4.48755 3.02666V3.02ZM1.62088 5.47333C1.64755 5.3 1.74088 5.14 1.88755 5.03333C2.18755 4.82 2.60755 4.9 2.82088 5.19333L4.10088 6.99333L4.52088 8.37333L3.97422 8.54C3.86088 8.57333 3.76755 8.62666 3.66088 8.67333L1.72755 5.95333C1.62755 5.80666 1.59422 5.63333 1.62088 5.46V5.47333ZM3.76755 14.1867L6.71422 13.2867C7.06755 13.18 7.26755 12.8067 7.15422 12.4533C7.04088 12.1 6.67422 11.9 6.32088 12.0133L3.18755 12.9667L3.06755 12.7067C2.80755 12.1533 2.80088 11.52 3.04755 10.9667C3.29422 10.4133 3.76755 9.99333 4.34755 9.82L9.27422 8.31333C10.1342 8.04666 11.0476 8.37333 11.5609 9.08C10.9409 10.4933 10.5476 12.0667 10.3742 13.5533L9.00755 13.9667C8.65422 14.0733 8.45422 14.4467 8.56755 14.8C8.65422 15.0867 8.92088 15.2733 9.20755 15.2733C9.27422 15.2733 9.33422 15.2667 9.40088 15.2467L10.2742 14.98C10.2742 15.0933 10.2609 15.2133 10.2609 15.3267C10.2609 16.0067 10.3742 16.68 10.5809 17.3267H5.24755L3.77422 14.18L3.76755 14.1867Z" fill="#888888"/>
</g>
<defs>
<clipPath id="clip0_545_11709">
<rect width="40" height="40" fill="white" transform="translate(0.273438)"/>
</clipPath>
</defs>
</svg>
