<svg width="20" height="21" viewBox="0 0 20 21" fill="none" xmlns="http://www.w3.org/2000/svg">
<path d="M10.625 4.875V4.25C10.625 2.52698 9.22302 1.125 7.5 1.125C5.77698 1.125 4.375 2.52698 4.375 4.25V4.875H0.625V17.375C0.625 18.7562 1.74377 19.875 3.125 19.875H9.80011C9.29382 19.5186 8.83759 19.0999 8.4436 18.625H3.125C2.43744 18.625 1.875 18.0623 1.875 17.375V6.125H4.375V7.375H5.625V6.125H9.375V7.375H10.625V6.125H13.125V7.40613C13.3313 7.38721 13.5376 7.375 13.75 7.375C13.9624 7.375 14.1687 7.38721 14.375 7.40613V4.875H10.625ZM5.625 4.875V4.25C5.625 3.21606 6.46606 2.375 7.5 2.375C8.53394 2.375 9.375 3.21606 9.375 4.25V4.875H5.625ZM13.75 19.875C10.6482 19.875 8.125 17.3518 8.125 14.25C8.125 11.1482 10.6482 8.625 13.75 8.625C16.8518 8.625 19.375 11.1482 19.375 14.25C19.375 17.3518 16.8518 19.875 13.75 19.875ZM13.75 9.875C11.3379 9.875 9.375 11.8379 9.375 14.25C9.375 16.6621 11.3379 18.625 13.75 18.625C16.1621 18.625 18.125 16.6621 18.125 14.25C18.125 11.8379 16.1621 9.875 13.75 9.875ZM13.125 16.3838L10.9912 14.25L11.875 13.3662L13.125 14.6162L15.625 12.1162L16.5088 13L13.125 16.3838Z" fill="white"/>
</svg>
