<svg width="41" height="40" viewBox="0 0 41 40" fill="none" xmlns="http://www.w3.org/2000/svg">
<g clip-path="url(#clip0_545_11739)">
<path d="M38.3835 9.77484C39.2229 9.2118 39.8929 8.26672 40.2032 7.10828C40.2568 6.90813 40.2288 6.69484 40.1252 6.51547C40.0216 6.33602 39.851 6.20508 39.6508 6.15148L34.6586 4.81375C34.4585 4.76008 34.2452 4.7882 34.0658 4.8918C33.8863 4.99539 33.7554 5.16602 33.7018 5.36617C33.3912 6.52516 33.5125 7.67781 33.9558 8.58195C31.5786 8.89156 29.5742 10.6114 28.9406 12.9761C27.9852 16.5414 25.6991 19.521 22.5032 21.3661C20.4021 22.5792 18.0164 23.2204 15.6046 23.2204C14.4003 23.2204 13.1938 23.0607 12.0186 22.7459C11.5096 22.6095 10.9865 22.5403 10.464 22.5403C8.562 22.5403 6.82215 23.4438 5.712 24.8888C5.66715 24.8222 5.62059 24.7559 5.57059 24.6908C4.97817 23.919 4.08215 23.3413 3.0477 23.0641C2.84762 23.0106 2.63442 23.0386 2.45489 23.1422C2.27543 23.2458 2.1445 23.4164 2.0909 23.6166L0.753169 28.609C0.699575 28.8091 0.727622 29.0224 0.831216 29.2018C0.934809 29.3813 1.10543 29.5122 1.30559 29.5658C1.73965 29.6821 2.18145 29.7411 2.61879 29.7411C3.32137 29.7411 3.97192 29.5895 4.52418 29.3181C4.83387 31.6486 6.50676 33.6817 8.91551 34.327C11.108 34.9145 13.3604 35.2124 15.6095 35.2124C20.1161 35.2124 24.5727 34.0146 28.4976 31.7485C34.4675 28.3018 38.7377 22.737 40.5217 16.0791C41.1665 13.6723 40.2443 11.2087 38.3835 9.77484ZM4.67653 26.9848C4.48512 27.6989 3.65817 28.1786 2.61879 28.1786C2.57489 28.1786 2.5309 28.1777 2.48684 28.1759L3.37598 24.8576C3.76145 25.0595 4.08903 25.3268 4.33122 25.6423C4.66817 26.0814 4.7909 26.5582 4.67653 26.9848ZM35.0933 6.54781L38.407 7.4357C37.9829 8.23617 37.2859 8.77906 36.6036 8.77906C36.4948 8.77906 36.387 8.76492 36.2827 8.73703C35.5209 8.53297 35.0543 7.60898 35.0933 6.54781ZM39.0124 15.6748C37.3364 21.9295 33.3247 27.1573 27.7163 30.3954C24.0285 32.5245 19.8421 33.65 15.6094 33.65C13.4968 33.65 11.3806 33.37 9.31981 32.8178C6.95918 32.1853 5.55317 29.7502 6.18567 27.3894C6.70418 25.4544 8.46333 24.1029 10.4639 24.1029C10.85 24.1029 11.2371 24.1541 11.6143 24.2552C12.9212 24.6054 14.2637 24.783 15.6046 24.783C18.2904 24.783 20.9461 24.0694 23.2845 22.7193C26.8418 20.6655 29.3865 17.3489 30.4498 13.3805C30.9682 11.4455 32.7274 10.094 34.7279 10.094C35.1138 10.094 35.5007 10.1452 35.8779 10.2462C35.878 10.2463 35.8781 10.2463 35.8782 10.2463C35.8782 10.2463 35.8785 10.2463 35.8786 10.2463C38.239 10.8791 39.6448 13.3141 39.0124 15.6748Z" fill="#888888"/>
<path d="M11.3351 25.3645C11.3347 25.3644 11.3258 25.362 11.3254 25.3619C10.9101 25.247 10.4794 25.4909 10.3644 25.9069C10.2494 26.3227 10.4934 26.7531 10.9094 26.868C10.9104 26.8682 10.9159 26.8698 10.9181 26.8704C10.9876 26.8896 11.0576 26.8988 11.1264 26.8988C11.4686 26.8988 11.7826 26.6722 11.8787 26.3264C11.9942 25.9106 11.7508 25.4799 11.3351 25.3645Z" fill="#888888"/>
<path d="M36.7493 16.5597C36.3453 16.4075 35.8948 16.6116 35.7427 17.0153C35.3185 18.1412 34.797 19.2371 34.1926 20.273C33.9751 20.6456 34.1009 21.1241 34.4736 21.3415C34.5974 21.4137 34.7329 21.448 34.8665 21.448C35.1353 21.448 35.3969 21.3093 35.542 21.0605C36.1904 19.9494 36.7498 18.7737 37.2047 17.5662C37.3569 17.1624 37.153 16.7118 36.7493 16.5597Z" fill="#888888"/>
<path d="M37.3522 14.4261C36.9362 14.3153 36.5083 14.5662 36.3961 14.9814C36.3958 14.9825 36.3938 14.9899 36.3935 14.991C36.2829 15.4074 36.5311 15.8316 36.9472 15.9431C37.0143 15.9611 37.0819 15.9698 37.1483 15.9698C37.4934 15.9698 37.8101 15.7381 37.9044 15.3894L37.9084 15.3745C38.0171 14.9582 37.7679 14.5367 37.3522 14.4261Z" fill="#888888"/>
<path d="M18.9603 26.3949C18.8957 25.9683 18.4976 25.6748 18.0707 25.7394C17.733 25.7905 17.3894 25.8316 17.0497 25.8616C15.8455 25.9676 14.6268 25.9405 13.4273 25.781C12.9996 25.7243 12.6068 26.0248 12.5499 26.4524C12.493 26.8801 12.7936 27.273 13.2214 27.3298C14.0109 27.4348 14.8081 27.4874 15.6049 27.4874C16.1332 27.4874 16.6612 27.4643 17.1867 27.418C17.5588 27.3853 17.9349 27.3402 18.3047 27.2843C18.7314 27.2197 19.0249 26.8216 18.9603 26.3949Z" fill="#888888"/>
</g>
<defs>
<clipPath id="clip0_545_11739">
<rect width="40" height="40" fill="white" transform="translate(0.726562)"/>
</clipPath>
</defs>
</svg>
