<svg width="30" height="30" viewBox="0 0 30 30" fill="none" xmlns="http://www.w3.org/2000/svg">
<path d="M15 2.5C21.9107 2.5 27.5 8.08929 27.5 15C27.5 21.9107 21.9107 27.5 15 27.5C8.08929 27.5 2.5 21.9107 2.5 15C2.5 8.08929 8.08929 2.5 15 2.5ZM12.7143 21.5893C18.25 21.5893 21.2857 17 21.2857 13.0179V12.625C21.875 12.1964 22.3929 11.6607 22.7857 11.0536C22.25 11.2857 21.6607 11.4464 21.0536 11.5357C21.6786 11.1607 22.1607 10.5714 22.375 9.875C21.7857 10.2143 21.1429 10.4643 20.4643 10.6071C19.9107 10.0179 19.125 9.66071 18.2679 9.66071C16.6071 9.66071 15.25 11.0179 15.25 12.6786C15.25 12.9107 15.2679 13.1429 15.3393 13.3571C12.8393 13.2321 10.6071 12.0357 9.125 10.2143C8.875 10.6607 8.71429 11.1786 8.71429 11.7321C8.71429 12.7679 9.25 13.6964 10.0536 14.2321C9.55357 14.2321 9.08929 14.0893 8.69643 13.8571V13.8929C8.69643 15.3571 9.73214 16.5714 11.1071 16.8571C10.8571 16.9286 10.5893 16.9643 10.3214 16.9643C10.125 16.9643 9.94643 16.9464 9.75 16.9107C10.125 18.1071 11.25 18.9821 12.5536 19C11.5179 19.8036 10.2143 20.2857 8.80357 20.2857C8.55357 20.2857 8.32143 20.2857 8.08929 20.25C9.41071 21.1071 11 21.6071 12.6964 21.6071" fill="white"/>
</svg>
