<svg width="82" height="37" viewBox="0 0 82 37" fill="none" xmlns="http://www.w3.org/2000/svg">
<g clip-path="url(#clip0_2_101703)">
<path d="M50.2959 0.102025C45.7817 0.260596 35.2407 0.860902 33.6825 1.05345C33.2013 1.12141 30.8067 1.32529 23.3135 1.9709C18.845 2.34468 14.9724 2.61651 11.9934 2.74111C11.2258 2.77509 10.4925 2.85437 10.3664 2.92233C9.79356 3.22815 9.73628 4.11162 10.2519 4.54202C10.6643 4.89315 10.8362 4.92713 12.7038 5.07437C15.6484 5.3009 20.3689 5.19896 28.1256 4.73458C42.5048 3.87376 45.0369 3.78315 54.8217 3.79447C59.7026 3.79447 64.2741 3.85111 64.9616 3.90774C66.474 4.03233 66.8979 3.95305 67.1958 3.45468C67.5968 2.80907 67.3906 1.99356 66.7031 1.57447C66.1417 1.23468 64.4575 0.826923 62.143 0.487127C58.6829 -0.0225668 56.3341 -0.101852 50.2959 0.102025Z" fill="#FF9671"/>
<path d="M43.2409 5.00646C41.3275 5.33493 40.6172 5.53881 39.838 5.98054C39.0589 6.42228 38.6579 6.99993 38.2798 8.15524C37.6153 10.2733 37.3518 13.0823 37.4434 17.4543C37.6267 26.7421 38.7038 30.7856 40.9723 30.7856C41.4306 30.7856 41.6025 30.7177 41.9233 30.4345C42.4733 29.9588 42.5535 29.4944 42.2327 28.5317C41.8202 27.2631 41.7056 25.4395 41.7056 20.3426C41.7171 17.7375 41.74 15.5854 41.7744 15.5628C41.8087 15.5288 42.3816 15.4269 43.0576 15.3249C43.7336 15.2343 44.4325 15.0871 44.6158 14.9965C45.372 14.6 45.5668 13.5806 44.9939 13.003C44.5013 12.5159 43.9284 12.414 42.966 12.6066C42.5306 12.6972 42.0952 12.7765 42.015 12.7765C41.9004 12.7765 41.8775 12.4706 41.9348 11.3267C41.9692 10.5338 42.0264 9.57105 42.0608 9.18595L42.1181 8.49503L44.7992 8.50636L47.4688 8.52901L47.7781 8.24585C48.225 7.82677 48.4083 7.41901 48.4083 6.79605C48.4083 6.02585 48.0646 5.56146 47.2282 5.14238C46.3116 4.68932 45.3033 4.65534 43.2409 5.00646Z" fill="#008CFF"/>
<path d="M70.3704 5.98032C69.2705 6.93175 68.7434 10.1711 68.7663 15.8344C68.7893 20.4217 69.0872 23.9669 69.6142 25.9037C69.8663 26.8551 70.76 28.5428 71.1266 28.8033C71.6422 29.1544 73.6129 28.8712 74.8388 28.2596C75.7325 27.8065 77.3939 26.6739 78.2532 25.9377C81.129 23.4458 82.3779 20.2631 81.805 16.9104C81.2551 13.6824 79.5479 10.5676 77.0387 8.17767C76.0877 7.28288 75.4805 6.85247 74.4722 6.34277C73.59 5.91236 73.1087 5.78777 71.8255 5.69716L70.7714 5.6292L70.3704 5.98032ZM73.2577 8.37022C74.6784 9.299 76.6491 11.7795 77.623 13.8296C78.5396 15.7551 78.9406 17.8505 78.6657 19.289C78.3792 20.7954 77.3824 22.2339 75.744 23.5251C75.3659 23.8196 74.3462 24.5105 73.4983 25.0429L71.9515 26.017L71.8713 25.6545C71.8255 25.4506 71.7224 24.2047 71.6422 22.8795C71.5391 20.9767 71.5391 19.7307 71.6422 16.8764C71.814 12.5384 72.238 7.90583 72.4671 7.90583C72.513 7.90583 72.8681 8.10971 73.2577 8.37022Z" fill="#008CFF"/>
<path d="M62.2464 7.3284C60.2986 7.96268 59.3362 9.34452 58.2592 13.0596C57.6978 14.9625 57.4572 16.3103 57.377 17.93C57.2968 19.6856 57.4342 20.6937 57.904 21.6678C58.2134 22.3021 58.2363 22.472 58.2936 24.103C58.3623 26.0738 58.6029 27.2404 59.2331 28.5883C59.8403 29.8908 60.8257 30.7743 61.7079 30.7856C62.2464 30.7856 63.1745 30.2306 63.6328 29.6077C64.6754 28.2372 65.7295 25.3829 66.7951 21.1015C67.7346 17.2957 68.1012 12.7878 67.6315 10.9529C67.1846 9.23126 66.2565 7.90605 65.1566 7.43034C64.4004 7.09054 63.0943 7.04524 62.2464 7.3284ZM63.8619 10.3866C64.0567 10.5904 64.2859 11.0775 64.4577 11.6098C64.7098 12.4367 64.7327 12.6519 64.7212 15.0418C64.7212 17.93 64.5952 18.9947 63.8619 22.2115C63.1859 25.1677 62.235 27.9767 61.8225 28.2258C61.6621 28.3278 61.1694 27.2744 60.9517 26.323C60.5163 24.4881 60.5049 21.0448 60.9173 17.3184L61.0548 16.0385L60.7913 15.8233C60.6424 15.6987 60.4247 15.6081 60.3101 15.6081C60.0237 15.6081 60.0695 15.4155 60.7226 13.7392C61.4444 11.893 62.361 10.3752 62.888 10.1714C63.312 10.0015 63.5411 10.0468 63.8619 10.3866Z" fill="#008CFF"/>
<path d="M24.7469 8.0306C23.2459 8.89141 22.6731 11.5531 22.696 17.5902C22.7189 25.4961 23.7157 30.3439 25.4916 31.2387C26.1332 31.5671 26.5915 31.5331 26.9925 31.1367C27.4165 30.7176 27.4279 30.3099 27.0269 29.3245C26.6488 28.407 26.4655 27.3423 26.3051 25.2809C26.0759 22.302 26.1905 18.7455 26.7519 12.2554C27.004 9.33315 27.004 9.28784 26.7978 8.85743C26.6717 8.61958 26.4426 8.33641 26.2822 8.21182C25.9155 7.95131 25.0677 7.84937 24.7469 8.0306Z" fill="#008CFF"/>
<path d="M50.8603 8.13244C49.6114 8.31366 48.4428 9.10652 47.7897 10.1939C46.9991 11.5417 46.5866 14.7245 46.5866 19.6742C46.5752 23.5592 46.7012 24.9523 47.2053 26.8212C48.1449 30.2418 50.001 31.7596 51.9373 30.6722C52.7279 30.2192 53.4268 29.3244 54.183 27.784C56.4401 23.242 57.6202 16.2649 56.7266 12.7763C56.0391 10.1146 54.7215 8.60815 52.6935 8.18907C51.8342 8.00784 51.7311 8.00784 50.8603 8.13244ZM52.1435 10.7375C52.4529 10.7375 53.1976 11.5417 53.4841 12.1873C53.6559 12.5498 53.8736 13.32 53.9767 13.909C54.6184 17.5335 52.8654 25.8018 50.929 28.2937L50.7113 28.5768L50.3676 27.8293C50.1728 27.4102 49.9093 26.5494 49.7604 25.9038C49.5198 24.8164 49.4969 24.4653 49.5083 21.4411C49.5083 18.9946 49.5656 17.794 49.7145 16.7633C49.9322 15.1889 49.8749 14.8944 49.2677 14.5886C49.0844 14.4979 48.9125 14.4187 48.9011 14.4187C48.8896 14.4073 48.9583 14.1015 49.05 13.7391C49.2792 12.8669 50.0239 11.3152 50.3333 11.032C50.6311 10.7715 51.2155 10.6243 51.6623 10.6922C51.8456 10.7149 52.0633 10.7375 52.1435 10.7375Z" fill="#008CFF"/>
<path d="M29.9013 8.7441C29.0649 9.11788 28.5608 10.1146 28.492 11.5418C28.4347 12.6178 28.5837 13.0822 29.0993 13.4106C29.5346 13.6938 30.4512 13.5692 30.8637 13.1841C31.2991 12.765 32.0324 11.3039 32.1011 10.7036C32.2615 9.32175 31.0241 8.22308 29.9013 8.7441Z" fill="#008CFF"/>
<path d="M15.6735 8.92534C14.8371 9.11789 14.3444 9.70687 14.585 10.2166C14.6767 10.4318 14.6537 10.6356 14.4933 11.168C14.1267 12.3346 13.9892 13.6485 14.0007 16.1743C14.0007 17.9752 14.0579 19.1192 14.2527 20.5917C14.8256 25.2242 15.6391 27.852 16.8765 29.1772L17.3004 29.6189L18.618 29.6869C19.3399 29.7209 20.371 29.8454 20.8981 29.9474C22.1011 30.1739 22.6396 30.0606 22.9719 29.5056C23.4302 28.7694 23.1552 27.9992 22.2959 27.5915C21.8491 27.3763 21.5741 27.3536 20.119 27.3423L18.4462 27.3196L18.2629 26.7646C18.1597 26.4475 18.0337 25.9718 17.9879 25.6999L17.9077 25.2016L18.641 25.2582C19.8669 25.3601 20.5658 25.009 20.5658 24.2954C20.5658 23.4913 20.0617 23.1968 18.641 23.1968H17.6212L17.5525 22.2C17.3692 19.7535 17.3463 18.0772 17.4608 16.8539C17.5296 16.1403 17.69 14.566 17.8046 13.3653C17.9306 12.1647 18.0452 11.1453 18.0795 11.1227C18.1139 11.0887 18.6639 11.1227 19.294 11.1906C19.9357 11.2699 20.6919 11.2926 20.9898 11.2473C22.5709 11.0207 22.3417 9.28779 20.6804 8.93666C20.0273 8.80075 16.2463 8.78942 15.6735 8.92534Z" fill="#008CFF"/>
<path d="M1.79741 9.74088C1.62555 9.78619 1.3162 9.99006 1.10996 10.1939C0.285017 11.0548 -0.0128789 13.0029 0.101696 16.9332C0.296475 23.8537 1.08704 28.8714 2.17551 30.2872C2.80567 31.1027 3.61916 31.3519 4.11183 30.8649C4.30661 30.6723 4.66179 30.5477 5.39508 30.4005C7.26265 30.0493 8.96983 29.03 10.5853 27.3197C12.4071 25.3941 13.3581 22.9136 13.3695 20.082C13.381 17.1711 12.1894 14.0563 10.402 12.244C9.15315 10.9981 7.72096 10.2392 5.94504 9.89945C4.95969 9.7069 2.313 9.61629 1.79741 9.74088ZM5.13155 12.312C7.22828 12.8444 8.4657 13.8977 9.4625 16.0045C10.6655 18.5416 10.6999 21.4185 9.55416 23.7291C9.06149 24.7372 8.04177 25.6773 6.16273 26.8439C4.29515 28.0106 4.22641 28.0332 4.13475 27.7614C3.9056 26.9799 3.77956 24.2502 3.77956 19.5157C3.77956 14.045 3.87122 12.0968 4.11183 12.0968C4.19204 12.0968 4.65034 12.1987 5.13155 12.312Z" fill="#008CFF"/>
<path d="M29.0429 15.6307C27.8055 16.2536 27.4274 18.2698 27.8399 22.0641C28.1378 24.8844 28.6648 26.9119 29.2492 27.5235C29.822 28.1352 30.5439 28.1691 31.048 27.6141C31.3001 27.331 31.3001 27.4895 31.1626 24.0463C31.1053 22.4492 31.1282 21.2826 31.2657 19.5157C31.4605 16.9445 31.4261 16.4802 30.9563 15.9591C30.6814 15.6647 30.097 15.3815 29.7533 15.3815C29.6387 15.3815 29.3179 15.4948 29.0429 15.6307Z" fill="#008CFF"/>
<path d="M52.9881 32.0881C44.1314 32.4279 34.1748 33.0055 27.3805 33.5605C23.4047 33.889 21.182 34.0815 20.2768 34.1835C17.6187 34.4893 13.7919 34.7838 11.4201 34.8404C8.78491 34.9197 8.73908 34.9197 8.52139 35.1915C8.04017 35.7692 8.41827 36.4488 9.36924 36.732C10.8358 37.1624 14.5366 37.185 20.3914 36.7886C21.2736 36.732 23.0495 36.63 24.3442 36.5621C25.6389 36.4941 27.4721 36.3922 28.4117 36.3355C31.0584 36.1656 40.2588 35.7465 46.0563 35.5427C50.8455 35.3614 64.3654 35.2822 68.513 35.4067C72.5003 35.52 72.9013 35.4747 73.4283 34.8517C74.1272 34.0362 73.4742 32.8583 72.1222 32.4845C71.9045 32.4279 71.1826 32.292 70.5181 32.19C68.8797 31.9295 58.5679 31.8729 52.9881 32.0881Z" fill="#FF9671"/>
</g>
<defs>
<clipPath id="clip0_2_101703">
<rect width="82" height="37" fill="white"/>
</clipPath>
</defs>
</svg>
